<ttFont>
    <TTGlyph name=".notdef" xMin="193" yMin="0" xMax="1034" yMax="1462">
      <contour>
        <pt x="193" y="1462" on="1"/>
        <pt x="1034" y="1462" on="1"/>
        <pt x="1034" y="0" on="1"/>
        <pt x="193" y="0" on="1"/>
      </contour>
      <contour>
        <pt x="297" y="104" on="1"/>
        <pt x="930" y="104" on="1"/>
        <pt x="930" y="1358" on="1"/>
        <pt x="297" y="1358" on="1"/>
      </contour>
    </TTGlyph>
    <TTGlyph name="A" xMin="8" yMin="0" xMax="1542" yMax="1462">
      <contour>
        <pt x="446" y="481" on="1"/>
        <pt x="387" y="305" on="1"/>
        <pt x="379" y="280" on="0"/>
        <pt x="362" y="213" on="0"/>
        <pt x="362" y="188" on="1"/>
        <pt x="362" y="168" on="0"/>
        <pt x="378" y="138" on="0"/>
        <pt x="404" y="119" on="0"/>
        <pt x="437" y="109" on="0"/>
        <pt x="455" y="109" on="1"/>
        <pt x="541" y="109" on="1"/>
        <pt x="541" y="0" on="1"/>
        <pt x="8" y="0" on="1"/>
        <pt x="8" y="109" on="1"/>
        <pt x="33" y="109" on="1"/>
        <pt x="60" y="109" on="0"/>
        <pt x="105" y="121" on="0"/>
        <pt x="144" y="154" on="0"/>
        <pt x="179" y="212" on="0"/>
        <pt x="197" y="258" on="1"/>
        <pt x="641" y="1462" on="1"/>
        <pt x="922" y="1462" on="1"/>
        <pt x="1350" y="256" on="1"/>
        <pt x="1365" y="213" on="0"/>
        <pt x="1398" y="156" on="0"/>
        <pt x="1437" y="123" on="0"/>
        <pt x="1481" y="109" on="0"/>
        <pt x="1505" y="109" on="1"/>
        <pt x="1542" y="109" on="1"/>
        <pt x="1542" y="0" on="1"/>
        <pt x="866" y="0" on="1"/>
        <pt x="866" y="109" on="1"/>
        <pt x="946" y="109" on="1"/>
        <pt x="961" y="109" on="0"/>
        <pt x="993" y="118" on="0"/>
        <pt x="1018" y="137" on="0"/>
        <pt x="1034" y="167" on="0"/>
        <pt x="1034" y="188" on="1"/>
        <pt x="1034" y="213" on="0"/>
        <pt x="1022" y="259" on="0"/>
        <pt x="1016" y="276" on="1"/>
        <pt x="944" y="481" on="1"/>
      </contour>
      <contour>
        <pt x="795" y="942" on="1"/>
        <pt x="784" y="977" on="0"/>
        <pt x="761" y="1054" on="0"/>
        <pt x="738" y="1134" on="0"/>
        <pt x="717" y="1213" on="0"/>
        <pt x="709" y="1249" on="1"/>
        <pt x="700" y="1218" on="0"/>
        <pt x="676" y="1144" on="0"/>
        <pt x="649" y="1066" on="0"/>
        <pt x="622" y="988" on="0"/>
        <pt x="610" y="952" on="1"/>
        <pt x="489" y="606" on="1"/>
        <pt x="903" y="606" on="1"/>
      </contour>
    </TTGlyph>
    <TTGlyph name="AE" xMin="0" yMin="0" xMax="1968" yMax="1462">
      <contour>
        <pt x="1270" y="125" on="1"/>
        <pt x="1679" y="125" on="1"/>
        <pt x="1710" y="125" on="0"/>
        <pt x="1754" y="148" on="0"/>
        <pt x="1786" y="190" on="0"/>
        <pt x="1805" y="247" on="0"/>
        <pt x="1810" y="281" on="1"/>
        <pt x="1827" y="377" on="1"/>
        <pt x="1968" y="377" on="1"/>
        <pt x="1954" y="0" on="1"/>
        <pt x="754" y="0" on="1"/>
        <pt x="754" y="109" on="1"/>
        <pt x="840" y="109" on="1"/>
        <pt x="896" y="109" on="0"/>
        <pt x="944" y="178" on="0"/>
        <pt x="944" y="231" on="1"/>
        <pt x="944" y="469" on="1"/>
        <pt x="473" y="469" on="1"/>
        <pt x="387" y="297" on="1"/>
        <pt x="370" y="265" on="0"/>
        <pt x="354" y="207" on="0"/>
        <pt x="354" y="188" on="1"/>
        <pt x="354" y="146" on="0"/>
        <pt x="417" y="109" on="0"/>
        <pt x="477" y="109" on="1"/>
        <pt x="512" y="109" on="1"/>
        <pt x="512" y="0" on="1"/>
        <pt x="0" y="0" on="1"/>
        <pt x="0" y="109" on="1"/>
        <pt x="25" y="109" on="1"/>
        <pt x="78" y="109" on="0"/>
        <pt x="162" y="186" on="0"/>
        <pt x="207" y="268" on="1"/>
        <pt x="782" y="1343" on="1"/>
        <pt x="647" y="1354" on="1"/>
        <pt x="647" y="1462" on="1"/>
        <pt x="1890" y="1462" on="1"/>
        <pt x="1898" y="1085" on="1"/>
        <pt x="1755" y="1085" on="1"/>
        <pt x="1745" y="1182" on="1"/>
        <pt x="1737" y="1257" on="0"/>
        <pt x="1677" y="1337" on="0"/>
        <pt x="1614" y="1337" on="1"/>
        <pt x="1270" y="1337" on="1"/>
        <pt x="1270" y="825" on="1"/>
        <pt x="1755" y="825" on="1"/>
        <pt x="1755" y="702" on="1"/>
        <pt x="1270" y="702" on="1"/>
      </contour>
      <contour>
        <pt x="924" y="1337" on="1"/>
        <pt x="539" y="592" on="1"/>
        <pt x="944" y="592" on="1"/>
        <pt x="944" y="1337" on="1"/>
      </contour>
    </TTGlyph>
    <TTGlyph name="AEacute" xMin="0" yMin="0" xMax="1968" yMax="1907">
      <component glyphName="AE" x="0" y="0" flags="0x204"/>
      <component glyphName="acute" x="786" y="338" flags="0x4"/>
    </TTGlyph>
    <TTGlyph name="Aacute" xMin="8" yMin="0" xMax="1542" yMax="1907">
      <component glyphName="A" x="0" y="0" flags="0x204"/>
      <component glyphName="acute" x="311" y="338" flags="0x4"/>
    </TTGlyph>
    <TTGlyph name="Abreve" xMin="8" yMin="0" xMax="1542" yMax="1901">
      <component glyphName="A" x="0" y="0" flags="0x204"/>
      <component glyphName="breve" x="188" y="338" flags="0x4"/>
    </TTGlyph>
    <TTGlyph name="Acircumflex" xMin="8" yMin="0" xMax="1542" yMax="1907">
      <component glyphName="A" x="0" y="0" flags="0x204"/>
      <component glyphName="circumflex" x="188" y="338" flags="0x4"/>
    </TTGlyph>
    <TTGlyph name="Adieresis" xMin="8" yMin="0" xMax="1542" yMax="1874">
      <component glyphName="A" x="0" y="0" flags="0x204"/>
      <component glyphName="dieresis" x="178" y="338" flags="0x4"/>
    </TTGlyph>
    <TTGlyph name="Agrave" xMin="8" yMin="0" xMax="1542" yMax="1907">
      <component glyphName="A" x="0" y="0" flags="0x204"/>
      <component glyphName="grave" x="45" y="338" flags="0x4"/>
    </TTGlyph>
    <TTGlyph name="Alpha" xMin="8" yMin="0" xMax="1542" yMax="1462">
      <component glyphName="A" x="0" y="0" flags="0x204"/>
    </TTGlyph>
    <TTGlyph name="Alphatonos" xMin="8" yMin="0" xMax="1542" yMax="1462">
      <component glyphName="A" x="0" y="0" flags="0x204"/>
      <component glyphName="tonos" x="-379" y="-168" flags="0x4"/>
    </TTGlyph>
    <TTGlyph name="Amacron" xMin="8" yMin="0" xMax="1542" yMax="1741">
      <component glyphName="A" x="0" y="0" flags="0x204"/>
      <component glyphName="uni02C9" x="256" y="338" flags="0x4"/>
    </TTGlyph>
    <TTGlyph name="Aogonek" xMin="8" yMin="-492" xMax="1542" yMax="1462">
      <component glyphName="A" x="0" y="0" flags="0x204"/>
      <component glyphName="ogonek" x="582" y="0" flags="0x4"/>
    </TTGlyph>
    <TTGlyph name="Aring" xMin="8" yMin="0" xMax="1542" yMax="1796">
      <component glyphName="A" x="0" y="0" flags="0x204"/>
      <component glyphName="ring" x="438" y="129" flags="0x4"/>
    </TTGlyph>
    <TTGlyph name="Aringacute" xMin="8" yMin="0" xMax="1542" yMax="1962">
      <contour>
        <pt x="1024" y="1425" on="1"/>
        <pt x="1024" y="1367" on="0"/>
        <pt x="981" y="1281" on="0"/>
        <pt x="946" y="1253" on="1"/>
        <pt x="1350" y="242" on="1"/>
        <pt x="1365" y="203" on="0"/>
        <pt x="1399" y="152" on="0"/>
        <pt x="1438" y="122" on="0"/>
        <pt x="1481" y="109" on="0"/>
        <pt x="1505" y="109" on="1"/>
        <pt x="1542" y="109" on="1"/>
        <pt x="1542" y="0" on="1"/>
        <pt x="866" y="0" on="1"/>
        <pt x="866" y="109" on="1"/>
        <pt x="946" y="109" on="1"/>
        <pt x="961" y="109" on="0"/>
        <pt x="993" y="118" on="0"/>
        <pt x="1018" y="137" on="0"/>
        <pt x="1034" y="165" on="0"/>
        <pt x="1034" y="184" on="1"/>
        <pt x="1034" y="207" on="0"/>
        <pt x="1024" y="249" on="0"/>
        <pt x="1018" y="264" on="1"/>
        <pt x="952" y="432" on="1"/>
        <pt x="446" y="432" on="1"/>
        <pt x="391" y="291" on="1"/>
        <pt x="382" y="268" on="0"/>
        <pt x="362" y="207" on="0"/>
        <pt x="362" y="184" on="1"/>
        <pt x="362" y="166" on="0"/>
        <pt x="378" y="139" on="0"/>
        <pt x="404" y="119" on="0"/>
        <pt x="437" y="109" on="0"/>
        <pt x="455" y="109" on="1"/>
        <pt x="541" y="109" on="1"/>
        <pt x="541" y="0" on="1"/>
        <pt x="8" y="0" on="1"/>
        <pt x="8" y="109" on="1"/>
        <pt x="33" y="109" on="1"/>
        <pt x="60" y="109" on="0"/>
        <pt x="105" y="120" on="0"/>
        <pt x="144" y="150" on="0"/>
        <pt x="179" y="202" on="0"/>
        <pt x="197" y="244" on="1"/>
        <pt x="614" y="1249" on="1"/>
        <pt x="576" y="1278" on="0"/>
        <pt x="532" y="1365" on="0"/>
        <pt x="532" y="1425" on="1"/>
        <pt x="532" y="1480" on="0"/>
        <pt x="570" y="1563" on="0"/>
        <pt x="637" y="1620" on="0"/>
        <pt x="727" y="1649" on="0"/>
        <pt x="778" y="1649" on="1"/>
        <pt x="829" y="1649" on="0"/>
        <pt x="919" y="1620" on="0"/>
        <pt x="986" y="1563" on="0"/>
        <pt x="1024" y="1480" on="0"/>
      </contour>
      <contour>
        <pt x="795" y="848" on="1"/>
        <pt x="784" y="879" on="0"/>
        <pt x="761" y="951" on="0"/>
        <pt x="738" y="1027" on="0"/>
        <pt x="717" y="1102" on="0"/>
        <pt x="709" y="1135" on="1"/>
        <pt x="700" y="1107" on="0"/>
        <pt x="676" y="1036" on="0"/>
        <pt x="649" y="962" on="0"/>
        <pt x="622" y="888" on="0"/>
        <pt x="610" y="856" on="1"/>
        <pt x="496" y="557" on="1"/>
        <pt x="899" y="557" on="1"/>
      </contour>
      <contour>
        <pt x="639" y="1720" on="1"/>
        <pt x="661" y="1744" on="0"/>
        <pt x="717" y="1805" on="0"/>
        <pt x="772" y="1870" on="0"/>
        <pt x="822" y="1934" on="0"/>
        <pt x="838" y="1962" on="1"/>
        <pt x="1159" y="1962" on="1"/>
        <pt x="1159" y="1946" on="1"/>
        <pt x="1140" y="1924" on="0"/>
        <pt x="1052" y="1859" on="0"/>
        <pt x="943" y="1788" on="0"/>
        <pt x="826" y="1722" on="0"/>
        <pt x="778" y="1700" on="1"/>
        <pt x="639" y="1700" on="1"/>
      </contour>
      <contour>
        <pt x="899" y="1425" on="1"/>
        <pt x="899" y="1455" on="0"/>
        <pt x="880" y="1497" on="0"/>
        <pt x="847" y="1524" on="0"/>
        <pt x="803" y="1536" on="0"/>
        <pt x="778" y="1536" on="1"/>
        <pt x="754" y="1536" on="0"/>
        <pt x="710" y="1524" on="0"/>
        <pt x="677" y="1497" on="0"/>
        <pt x="657" y="1455" on="0"/>
        <pt x="657" y="1425" on="1"/>
        <pt x="657" y="1369" on="0"/>
        <pt x="722" y="1317" on="0"/>
        <pt x="768" y="1315" on="1"/>
        <pt x="788" y="1315" on="1"/>
        <pt x="835" y="1317" on="0"/>
        <pt x="899" y="1369" on="0"/>
      </contour>
    </TTGlyph>
    <TTGlyph name="Atilde" xMin="8" yMin="0" xMax="1542" yMax="1903">
      <component glyphName="A" x="0" y="0" flags="0x204"/>
      <component glyphName="tilde" x="180" y="338" flags="0x4"/>
    </TTGlyph>
    <TTGlyph name="B" xMin="57" yMin="0" xMax="1303" yMax="1462">
      <contour>
        <pt x="1241" y="1090" on="1"/>
        <pt x="1241" y="1022" on="0"/>
        <pt x="1204" y="921" on="0"/>
        <pt x="1136" y="848" on="0"/>
        <pt x="1041" y="796" on="0"/>
        <pt x="983" y="778" on="1"/>
        <pt x="983" y="768" on="1"/>
        <pt x="1054" y="750" on="0"/>
        <pt x="1171" y="687" on="0"/>
        <pt x="1256" y="596" on="0"/>
        <pt x="1303" y="476" on="0"/>
        <pt x="1303" y="401" on="1"/>
        <pt x="1303" y="199" on="0"/>
        <pt x="1009" y="0" on="0"/>
        <pt x="717" y="0" on="1"/>
        <pt x="57" y="0" on="1"/>
        <pt x="57" y="109" on="1"/>
        <pt x="141" y="109" on="1"/>
        <pt x="164" y="109" on="0"/>
        <pt x="203" y="118" on="0"/>
        <pt x="231" y="146" on="0"/>
        <pt x="248" y="198" on="0"/>
        <pt x="248" y="242" on="1"/>
        <pt x="248" y="1223" on="1"/>
        <pt x="248" y="1264" on="0"/>
        <pt x="231" y="1315" on="0"/>
        <pt x="202" y="1343" on="0"/>
        <pt x="163" y="1354" on="0"/>
        <pt x="141" y="1354" on="1"/>
        <pt x="57" y="1354" on="1"/>
        <pt x="57" y="1462" on="1"/>
        <pt x="655" y="1462" on="1"/>
        <pt x="947" y="1462" on="0"/>
        <pt x="1241" y="1282" on="0"/>
      </contour>
      <contour>
        <pt x="571" y="125" on="1"/>
        <pt x="707" y="125" on="1"/>
        <pt x="775" y="125" on="0"/>
        <pt x="871" y="155" on="0"/>
        <pt x="931" y="222" on="0"/>
        <pt x="958" y="330" on="0"/>
        <pt x="958" y="408" on="1"/>
        <pt x="958" y="483" on="0"/>
        <pt x="934" y="594" on="0"/>
        <pt x="876" y="666" on="0"/>
        <pt x="782" y="702" on="0"/>
        <pt x="711" y="702" on="1"/>
        <pt x="571" y="702" on="1"/>
      </contour>
      <contour>
        <pt x="571" y="827" on="1"/>
        <pt x="649" y="827" on="1"/>
        <pt x="721" y="827" on="0"/>
        <pt x="816" y="857" on="0"/>
        <pt x="873" y="920" on="0"/>
        <pt x="897" y="1020" on="0"/>
        <pt x="897" y="1090" on="1"/>
        <pt x="897" y="1160" on="0"/>
        <pt x="870" y="1254" on="0"/>
        <pt x="810" y="1312" on="0"/>
        <pt x="714" y="1337" on="0"/>
        <pt x="645" y="1337" on="1"/>
        <pt x="571" y="1337" on="1"/>
      </contour>
    </TTGlyph>
    <TTGlyph name="Beta" xMin="57" yMin="0" xMax="1303" yMax="1462">
      <component glyphName="B" x="0" y="0" flags="0x204"/>
    </TTGlyph>
    <TTGlyph name="C" xMin="113" yMin="-20" xMax="1286" yMax="1483">
      <contour>
        <pt x="870" y="143" on="1"/>
        <pt x="945" y="143" on="0"/>
        <pt x="1062" y="178" on="0"/>
        <pt x="1154" y="234" on="0"/>
        <pt x="1223" y="304" on="0"/>
        <pt x="1249" y="338" on="1"/>
        <pt x="1265" y="326" on="0"/>
        <pt x="1284" y="276" on="0"/>
        <pt x="1284" y="250" on="1"/>
        <pt x="1284" y="207" on="0"/>
        <pt x="1238" y="112" on="0"/>
        <pt x="1130" y="32" on="0"/>
        <pt x="952" y="-20" on="0"/>
        <pt x="821" y="-20" on="1"/>
        <pt x="643" y="-20" on="0"/>
        <pt x="377" y="88" on="0"/>
        <pt x="201" y="286" on="0"/>
        <pt x="113" y="564" on="0"/>
        <pt x="113" y="733" on="1"/>
        <pt x="113" y="899" on="0"/>
        <pt x="203" y="1175" on="0"/>
        <pt x="380" y="1373" on="0"/>
        <pt x="645" y="1483" on="0"/>
        <pt x="819" y="1483" on="1"/>
        <pt x="937" y="1483" on="0"/>
        <pt x="1112" y="1446" on="0"/>
        <pt x="1228" y="1382" on="0"/>
        <pt x="1286" y="1295" on="0"/>
        <pt x="1286" y="1245" on="1"/>
        <pt x="1286" y="1207" on="0"/>
        <pt x="1253" y="1142" on="0"/>
        <pt x="1188" y="1094" on="0"/>
        <pt x="1092" y="1067" on="0"/>
        <pt x="1030" y="1067" on="1"/>
        <pt x="1030" y="1118" on="0"/>
        <pt x="1008" y="1219" on="0"/>
        <pt x="955" y="1301" on="0"/>
        <pt x="869" y="1352" on="0"/>
        <pt x="805" y="1352" on="1"/>
        <pt x="708" y="1352" on="0"/>
        <pt x="574" y="1270" on="0"/>
        <pt x="493" y="1112" on="0"/>
        <pt x="457" y="881" on="0"/>
        <pt x="457" y="733" on="1"/>
        <pt x="457" y="585" on="0"/>
        <pt x="501" y="363" on="0"/>
        <pt x="599" y="216" on="0"/>
        <pt x="756" y="143" on="0"/>
      </contour>
    </TTGlyph>
    <TTGlyph name="Cacute" xMin="113" yMin="-20" xMax="1286" yMax="1907">
      <component glyphName="C" x="0" y="0" flags="0x204"/>
      <component glyphName="acute" x="340" y="338" flags="0x4"/>
    </TTGlyph>
    <TTGlyph name="Ccaron" xMin="113" yMin="-20" xMax="1286" yMax="1907">
      <component glyphName="C" x="0" y="0" flags="0x204"/>
      <component glyphName="caron" x="186" y="338" flags="0x4"/>
    </TTGlyph>
    <TTGlyph name="Ccedilla" xMin="113" yMin="-492" xMax="1286" yMax="1483">
      <component glyphName="C" x="0" y="0" flags="0x204"/>
      <component glyphName="cedilla" x="391" y="0" flags="0x4"/>
    </TTGlyph>
    <TTGlyph name="Ccircumflex" xMin="113" yMin="-20" xMax="1286" yMax="1907">
      <component glyphName="C" x="0" y="0" flags="0x204"/>
      <component glyphName="circumflex" x="186" y="338" flags="0x4"/>
    </TTGlyph>
    <TTGlyph name="Cdotaccent" xMin="113" yMin="-20" xMax="1286" yMax="1915">
      <component glyphName="C" x="0" y="0" flags="0x204"/>
      <component glyphName="dotaccent" x="455" y="338" flags="0x4"/>
    </TTGlyph>
    <TTGlyph name="Chi" xMin="20" yMin="0" xMax="1479" yMax="1462">
      <component glyphName="X" x="0" y="0" flags="0x204"/>
    </TTGlyph>
    <TTGlyph name="D" xMin="57" yMin="0" xMax="1458" yMax="1462">
      <contour>
        <pt x="1458" y="758" on="1"/>
        <pt x="1458" y="590" on="0"/>
        <pt x="1366" y="311" on="0"/>
        <pt x="1183" y="111" on="0"/>
        <pt x="912" y="0" on="0"/>
        <pt x="733" y="0" on="1"/>
        <pt x="57" y="0" on="1"/>
        <pt x="57" y="109" on="1"/>
        <pt x="143" y="109" on="1"/>
        <pt x="166" y="109" on="0"/>
        <pt x="204" y="118" on="0"/>
        <pt x="232" y="146" on="0"/>
        <pt x="248" y="198" on="0"/>
        <pt x="248" y="242" on="1"/>
        <pt x="248" y="1229" on="1"/>
        <pt x="248" y="1270" on="0"/>
        <pt x="232" y="1319" on="0"/>
        <pt x="203" y="1345" on="0"/>
        <pt x="165" y="1354" on="0"/>
        <pt x="143" y="1354" on="1"/>
        <pt x="57" y="1354" on="1"/>
        <pt x="57" y="1462" on="1"/>
        <pt x="733" y="1462" on="1"/>
        <pt x="903" y="1462" on="0"/>
        <pt x="1172" y="1373" on="0"/>
        <pt x="1359" y="1196" on="0"/>
        <pt x="1458" y="932" on="0"/>
      </contour>
      <contour>
        <pt x="1112" y="758" on="1"/>
        <pt x="1112" y="1051" on="0"/>
        <pt x="897" y="1337" on="0"/>
        <pt x="688" y="1337" on="1"/>
        <pt x="571" y="1337" on="1"/>
        <pt x="571" y="127" on="1"/>
        <pt x="686" y="127" on="1"/>
        <pt x="791" y="127" on="0"/>
        <pt x="951" y="214" on="0"/>
        <pt x="1058" y="378" on="0"/>
        <pt x="1112" y="611" on="0"/>
      </contour>
    </TTGlyph>
    <TTGlyph name="Dcaron" xMin="57" yMin="0" xMax="1458" yMax="1907">
      <component glyphName="D" x="0" y="0" flags="0x204"/>
      <component glyphName="caron" x="160" y="338" flags="0x4"/>
    </TTGlyph>
    <TTGlyph name="Dcroat" xMin="57" yMin="0" xMax="1458" yMax="1462">
      <component glyphName="Eth" x="0" y="0" flags="0x204"/>
    </TTGlyph>
    <TTGlyph name="Delta" xMin="100" yMin="0" xMax="1333" yMax="1462">
      <component glyphName="uni2206" x="0" y="0" flags="0x204"/>
    </TTGlyph>
    <TTGlyph name="E" xMin="57" yMin="0" xMax="1272" yMax="1462">
      <contour>
        <pt x="573" y="125" on="1"/>
        <pt x="983" y="125" on="1"/>
        <pt x="1014" y="125" on="0"/>
        <pt x="1058" y="148" on="0"/>
        <pt x="1090" y="190" on="0"/>
        <pt x="1109" y="247" on="0"/>
        <pt x="1114" y="281" on="1"/>
        <pt x="1130" y="377" on="1"/>
        <pt x="1272" y="377" on="1"/>
        <pt x="1257" y="0" on="1"/>
        <pt x="57" y="0" on="1"/>
        <pt x="57" y="109" on="1"/>
        <pt x="143" y="109" on="1"/>
        <pt x="165" y="109" on="0"/>
        <pt x="203" y="117" on="0"/>
        <pt x="232" y="142" on="0"/>
        <pt x="248" y="191" on="0"/>
        <pt x="248" y="231" on="1"/>
        <pt x="248" y="1221" on="1"/>
        <pt x="248" y="1265" on="0"/>
        <pt x="232" y="1317" on="0"/>
        <pt x="204" y="1345" on="0"/>
        <pt x="166" y="1354" on="0"/>
        <pt x="143" y="1354" on="1"/>
        <pt x="57" y="1354" on="1"/>
        <pt x="57" y="1462" on="1"/>
        <pt x="1194" y="1462" on="1"/>
        <pt x="1202" y="1085" on="1"/>
        <pt x="1059" y="1085" on="1"/>
        <pt x="1049" y="1182" on="1"/>
        <pt x="1041" y="1257" on="0"/>
        <pt x="981" y="1337" on="0"/>
        <pt x="918" y="1337" on="1"/>
        <pt x="573" y="1337" on="1"/>
        <pt x="573" y="825" on="1"/>
        <pt x="1059" y="825" on="1"/>
        <pt x="1059" y="702" on="1"/>
        <pt x="573" y="702" on="1"/>
      </contour>
    </TTGlyph>
    <TTGlyph name="Eacute" xMin="57" yMin="0" xMax="1272" yMax="1907">
      <component glyphName="E" x="0" y="0" flags="0x204"/>
      <component glyphName="acute" x="193" y="338" flags="0x4"/>
    </TTGlyph>
    <TTGlyph name="Ebreve" xMin="57" yMin="0" xMax="1272" yMax="1901">
      <component glyphName="E" x="0" y="0" flags="0x204"/>
      <component glyphName="breve" x="94" y="338" flags="0x4"/>
    </TTGlyph>
    <TTGlyph name="Ecaron" xMin="57" yMin="0" xMax="1272" yMax="1907">
      <component glyphName="E" x="0" y="0" flags="0x204"/>
      <component glyphName="caron" x="84" y="338" flags="0x4"/>
    </TTGlyph>
    <TTGlyph name="Ecircumflex" xMin="57" yMin="0" xMax="1272" yMax="1907">
      <component glyphName="E" x="0" y="0" flags="0x204"/>
      <component glyphName="circumflex" x="61" y="338" flags="0x4"/>
    </TTGlyph>
    <TTGlyph name="Edieresis" xMin="57" yMin="0" xMax="1272" yMax="1874">
      <component glyphName="E" x="0" y="0" flags="0x204"/>
      <component glyphName="dieresis" x="98" y="338" flags="0x4"/>
    </TTGlyph>
    <TTGlyph name="Edotaccent" xMin="57" yMin="0" xMax="1272" yMax="1886">
      <component glyphName="E" x="0" y="0" flags="0x204"/>
      <component glyphName="dotaccent" x="338" y="309" flags="0x4"/>
    </TTGlyph>
    <TTGlyph name="Egrave" xMin="57" yMin="0" xMax="1272" yMax="1907">
      <component glyphName="E" x="0" y="0" flags="0x204"/>
      <component glyphName="grave" x="-24" y="338" flags="0x4"/>
    </TTGlyph>
    <TTGlyph name="Emacron" xMin="57" yMin="0" xMax="1272" yMax="1741">
      <component glyphName="E" x="0" y="0" flags="0x204"/>
      <component glyphName="uni02C9" x="162" y="338" flags="0x4"/>
    </TTGlyph>
    <TTGlyph name="Eng" xMin="57" yMin="-492" xMax="1579" yMax="1462">
      <contour>
        <pt x="401" y="1128" on="1"/>
        <pt x="401" y="242" on="1"/>
        <pt x="401" y="198" on="0"/>
        <pt x="418" y="146" on="0"/>
        <pt x="446" y="118" on="0"/>
        <pt x="485" y="109" on="0"/>
        <pt x="506" y="109" on="1"/>
        <pt x="592" y="109" on="1"/>
        <pt x="592" y="0" on="1"/>
        <pt x="57" y="0" on="1"/>
        <pt x="57" y="109" on="1"/>
        <pt x="143" y="109" on="1"/>
        <pt x="165" y="109" on="0"/>
        <pt x="203" y="118" on="0"/>
        <pt x="232" y="146" on="0"/>
        <pt x="248" y="198" on="0"/>
        <pt x="248" y="242" on="1"/>
        <pt x="248" y="1229" on="1"/>
        <pt x="248" y="1270" on="0"/>
        <pt x="231" y="1319" on="0"/>
        <pt x="202" y="1345" on="0"/>
        <pt x="164" y="1354" on="0"/>
        <pt x="143" y="1354" on="1"/>
        <pt x="57" y="1354" on="1"/>
        <pt x="57" y="1462" on="1"/>
        <pt x="512" y="1462" on="1"/>
        <pt x="1235" y="485" on="1"/>
        <pt x="1235" y="1229" on="1"/>
        <pt x="1235" y="1270" on="0"/>
        <pt x="1218" y="1319" on="0"/>
        <pt x="1189" y="1345" on="0"/>
        <pt x="1151" y="1354" on="0"/>
        <pt x="1130" y="1354" on="1"/>
        <pt x="1044" y="1354" on="1"/>
        <pt x="1044" y="1462" on="1"/>
        <pt x="1579" y="1462" on="1"/>
        <pt x="1579" y="1354" on="1"/>
        <pt x="1493" y="1354" on="1"/>
        <pt x="1472" y="1354" on="0"/>
        <pt x="1434" y="1345" on="0"/>
        <pt x="1405" y="1317" on="0"/>
        <pt x="1389" y="1265" on="0"/>
        <pt x="1389" y="1221" on="1"/>
        <pt x="1389" y="-16" on="1"/>
        <pt x="1389" y="-154" on="0"/>
        <pt x="1341" y="-337" on="0"/>
        <pt x="1252" y="-446" on="0"/>
        <pt x="1126" y="-492" on="0"/>
        <pt x="1049" y="-492" on="1"/>
        <pt x="981" y="-492" on="1"/>
        <pt x="981" y="-373" on="1"/>
        <pt x="1030" y="-373" on="1"/>
        <pt x="1070" y="-373" on="0"/>
        <pt x="1144" y="-333" on="0"/>
        <pt x="1201" y="-247" on="0"/>
        <pt x="1235" y="-113" on="0"/>
        <pt x="1235" y="-18" on="1"/>
        <pt x="1235" y="0" on="1"/>
      </contour>
    </TTGlyph>
    <TTGlyph name="Eogonek" xMin="57" yMin="-492" xMax="1272" yMax="1462">
      <component glyphName="E" x="0" y="0" flags="0x204"/>
      <component glyphName="ogonek" x="401" y="0" flags="0x4"/>
    </TTGlyph>
    <TTGlyph name="Epsilon" xMin="57" yMin="0" xMax="1272" yMax="1462">
      <component glyphName="E" x="0" y="0" flags="0x204"/>
    </TTGlyph>
    <TTGlyph name="Epsilontonos" xMin="-98" yMin="0" xMax="1522" yMax="1462">
      <component glyphName="E" x="250" y="0" flags="0x4"/>
      <component glyphName="tonos" x="-549" y="-168" flags="0x4"/>
    </TTGlyph>
    <TTGlyph name="Eta" xMin="57" yMin="0" xMax="1620" yMax="1462">
      <component glyphName="H" x="0" y="0" flags="0x204"/>
    </TTGlyph>
    <TTGlyph name="Etatonos" xMin="-98" yMin="0" xMax="1870" yMax="1462">
      <component glyphName="H" x="250" y="0" flags="0x4"/>
      <component glyphName="tonos" x="-549" y="-168" flags="0x4"/>
    </TTGlyph>
    <TTGlyph name="Eth" xMin="57" yMin="0" xMax="1458" yMax="1462">
      <contour>
        <pt x="1458" y="758" on="1"/>
        <pt x="1458" y="590" on="0"/>
        <pt x="1366" y="311" on="0"/>
        <pt x="1183" y="111" on="0"/>
        <pt x="912" y="0" on="0"/>
        <pt x="733" y="0" on="1"/>
        <pt x="57" y="0" on="1"/>
        <pt x="57" y="109" on="1"/>
        <pt x="143" y="109" on="1"/>
        <pt x="166" y="109" on="0"/>
        <pt x="204" y="118" on="0"/>
        <pt x="232" y="146" on="0"/>
        <pt x="248" y="198" on="0"/>
        <pt x="248" y="242" on="1"/>
        <pt x="248" y="702" on="1"/>
        <pt x="78" y="702" on="1"/>
        <pt x="78" y="827" on="1"/>
        <pt x="248" y="827" on="1"/>
        <pt x="248" y="1229" on="1"/>
        <pt x="248" y="1270" on="0"/>
        <pt x="232" y="1319" on="0"/>
        <pt x="203" y="1345" on="0"/>
        <pt x="165" y="1354" on="0"/>
        <pt x="143" y="1354" on="1"/>
        <pt x="57" y="1354" on="1"/>
        <pt x="57" y="1462" on="1"/>
        <pt x="733" y="1462" on="1"/>
        <pt x="903" y="1462" on="0"/>
        <pt x="1172" y="1373" on="0"/>
        <pt x="1359" y="1196" on="0"/>
        <pt x="1458" y="932" on="0"/>
      </contour>
      <contour>
        <pt x="1112" y="758" on="1"/>
        <pt x="1112" y="1051" on="0"/>
        <pt x="897" y="1337" on="0"/>
        <pt x="688" y="1337" on="1"/>
        <pt x="571" y="1337" on="1"/>
        <pt x="571" y="827" on="1"/>
        <pt x="827" y="827" on="1"/>
        <pt x="827" y="702" on="1"/>
        <pt x="571" y="702" on="1"/>
        <pt x="571" y="127" on="1"/>
        <pt x="686" y="127" on="1"/>
        <pt x="791" y="127" on="0"/>
        <pt x="951" y="214" on="0"/>
        <pt x="1058" y="378" on="0"/>
        <pt x="1112" y="611" on="0"/>
      </contour>
    </TTGlyph>
    <TTGlyph name="Euro" xMin="55" yMin="-20" xMax="1110" yMax="1479">
      <contour>
        <pt x="737" y="-20" on="1"/>
        <pt x="632" y="-20" on="0"/>
        <pt x="446" y="41" on="0"/>
        <pt x="298" y="175" on="0"/>
        <pt x="197" y="389" on="0"/>
        <pt x="176" y="543" on="1"/>
        <pt x="55" y="543" on="1"/>
        <pt x="55" y="670" on="1"/>
        <pt x="164" y="670" on="1"/>
        <pt x="164" y="733" on="1"/>
        <pt x="164" y="797" on="1"/>
        <pt x="55" y="797" on="1"/>
        <pt x="55" y="924" on="1"/>
        <pt x="174" y="924" on="1"/>
        <pt x="192" y="1083" on="0"/>
        <pt x="292" y="1296" on="0"/>
        <pt x="438" y="1425" on="0"/>
        <pt x="621" y="1479" on="0"/>
        <pt x="723" y="1479" on="1"/>
        <pt x="814" y="1479" on="0"/>
        <pt x="957" y="1443" on="0"/>
        <pt x="1057" y="1379" on="0"/>
        <pt x="1110" y="1293" on="0"/>
        <pt x="1110" y="1243" on="1"/>
        <pt x="1110" y="1208" on="0"/>
        <pt x="1077" y="1145" on="0"/>
        <pt x="1012" y="1097" on="0"/>
        <pt x="918" y="1069" on="0"/>
        <pt x="856" y="1069" on="1"/>
        <pt x="856" y="1117" on="0"/>
        <pt x="841" y="1217" on="0"/>
        <pt x="805" y="1298" on="0"/>
        <pt x="746" y="1350" on="0"/>
        <pt x="702" y="1350" on="1"/>
        <pt x="659" y="1350" on="0"/>
        <pt x="582" y="1314" on="0"/>
        <pt x="521" y="1219" on="0"/>
        <pt x="480" y="1054" on="0"/>
        <pt x="471" y="924" on="1"/>
        <pt x="848" y="924" on="1"/>
        <pt x="848" y="797" on="1"/>
        <pt x="465" y="797" on="1"/>
        <pt x="465" y="729" on="1"/>
        <pt x="465" y="670" on="1"/>
        <pt x="766" y="670" on="1"/>
        <pt x="766" y="543" on="1"/>
        <pt x="475" y="543" on="1"/>
        <pt x="492" y="337" on="0"/>
        <pt x="639" y="133" on="0"/>
        <pt x="778" y="133" on="1"/>
        <pt x="827" y="133" on="0"/>
        <pt x="912" y="158" on="0"/>
        <pt x="982" y="203" on="0"/>
        <pt x="1035" y="264" on="0"/>
        <pt x="1053" y="299" on="1"/>
        <pt x="1074" y="282" on="0"/>
        <pt x="1096" y="233" on="0"/>
        <pt x="1096" y="205" on="1"/>
        <pt x="1096" y="166" on="0"/>
        <pt x="1058" y="86" on="0"/>
        <pt x="973" y="21" on="0"/>
        <pt x="836" y="-20" on="0"/>
      </contour>
    </TTGlyph>
    <TTGlyph name="F" xMin="57" yMin="0" xMax="1202" yMax="1462">
      <contour>
        <pt x="1059" y="1085" on="1"/>
        <pt x="1049" y="1184" on="1"/>
        <pt x="1039" y="1265" on="0"/>
        <pt x="960" y="1337" on="0"/>
        <pt x="897" y="1337" on="1"/>
        <pt x="571" y="1337" on="1"/>
        <pt x="571" y="778" on="1"/>
        <pt x="1057" y="778" on="1"/>
        <pt x="1057" y="657" on="1"/>
        <pt x="571" y="657" on="1"/>
        <pt x="571" y="242" on="1"/>
        <pt x="571" y="198" on="0"/>
        <pt x="588" y="146" on="0"/>
        <pt x="616" y="118" on="0"/>
        <pt x="656" y="109" on="0"/>
        <pt x="678" y="109" on="1"/>
        <pt x="805" y="109" on="1"/>
        <pt x="805" y="0" on="1"/>
        <pt x="57" y="0" on="1"/>
        <pt x="57" y="109" on="1"/>
        <pt x="143" y="109" on="1"/>
        <pt x="165" y="109" on="0"/>
        <pt x="203" y="117" on="0"/>
        <pt x="232" y="142" on="0"/>
        <pt x="248" y="191" on="0"/>
        <pt x="248" y="231" on="1"/>
        <pt x="248" y="1229" on="1"/>
        <pt x="248" y="1270" on="0"/>
        <pt x="232" y="1319" on="0"/>
        <pt x="203" y="1345" on="0"/>
        <pt x="165" y="1354" on="0"/>
        <pt x="143" y="1354" on="1"/>
        <pt x="57" y="1354" on="1"/>
        <pt x="57" y="1462" on="1"/>
        <pt x="1192" y="1462" on="1"/>
        <pt x="1202" y="1085" on="1"/>
      </contour>
    </TTGlyph>
    <TTGlyph name="G" xMin="113" yMin="-20" xMax="1518" yMax="1483">
      <contour>
        <pt x="866" y="-20" on="1"/>
        <pt x="676" y="-20" on="0"/>
        <pt x="393" y="88" on="0"/>
        <pt x="205" y="286" on="0"/>
        <pt x="113" y="564" on="0"/>
        <pt x="113" y="733" on="1"/>
        <pt x="113" y="899" on="0"/>
        <pt x="211" y="1175" on="0"/>
        <pt x="403" y="1373" on="0"/>
        <pt x="689" y="1483" on="0"/>
        <pt x="877" y="1483" on="1"/>
        <pt x="1005" y="1483" on="0"/>
        <pt x="1196" y="1446" on="0"/>
        <pt x="1325" y="1382" on="0"/>
        <pt x="1389" y="1295" on="0"/>
        <pt x="1389" y="1245" on="1"/>
        <pt x="1389" y="1209" on="0"/>
        <pt x="1355" y="1146" on="0"/>
        <pt x="1287" y="1098" on="0"/>
        <pt x="1189" y="1071" on="0"/>
        <pt x="1124" y="1071" on="1"/>
        <pt x="1124" y="1133" on="0"/>
        <pt x="1094" y="1237" on="0"/>
        <pt x="1031" y="1311" on="0"/>
        <pt x="935" y="1352" on="0"/>
        <pt x="870" y="1352" on="1"/>
        <pt x="758" y="1352" on="0"/>
        <pt x="601" y="1270" on="0"/>
        <pt x="502" y="1112" on="0"/>
        <pt x="457" y="881" on="0"/>
        <pt x="457" y="733" on="1"/>
        <pt x="457" y="585" on="0"/>
        <pt x="504" y="356" on="0"/>
        <pt x="609" y="200" on="0"/>
        <pt x="776" y="119" on="0"/>
        <pt x="897" y="119" on="1"/>
        <pt x="935" y="119" on="0"/>
        <pt x="1011" y="125" on="0"/>
        <pt x="1047" y="133" on="1"/>
        <pt x="1047" y="434" on="1"/>
        <pt x="1047" y="516" on="0"/>
        <pt x="973" y="580" on="0"/>
        <pt x="901" y="580" on="1"/>
        <pt x="874" y="580" on="1"/>
        <pt x="874" y="688" on="1"/>
        <pt x="1518" y="688" on="1"/>
        <pt x="1518" y="580" on="1"/>
        <pt x="1491" y="580" on="1"/>
        <pt x="1460" y="580" on="0"/>
        <pt x="1414" y="565" on="0"/>
        <pt x="1384" y="529" on="0"/>
        <pt x="1370" y="470" on="0"/>
        <pt x="1370" y="426" on="1"/>
        <pt x="1370" y="90" on="1"/>
        <pt x="1250" y="35" on="0"/>
        <pt x="1006" y="-20" on="0"/>
      </contour>
    </TTGlyph>
    <TTGlyph name="Gamma" xMin="57" yMin="0" xMax="1190" yMax="1462">
      <contour>
        <pt x="1176" y="1462" on="1"/>
        <pt x="1190" y="1061" on="1"/>
        <pt x="1075" y="1061" on="1"/>
        <pt x="1051" y="1159" on="1"/>
        <pt x="1028" y="1248" on="0"/>
        <pt x="937" y="1337" on="0"/>
        <pt x="854" y="1337" on="1"/>
        <pt x="573" y="1337" on="1"/>
        <pt x="573" y="233" on="1"/>
        <pt x="573" y="193" on="0"/>
        <pt x="590" y="144" on="0"/>
        <pt x="618" y="117" on="0"/>
        <pt x="657" y="109" on="0"/>
        <pt x="678" y="109" on="1"/>
        <pt x="805" y="109" on="1"/>
        <pt x="805" y="0" on="1"/>
        <pt x="57" y="0" on="1"/>
        <pt x="57" y="109" on="1"/>
        <pt x="143" y="109" on="1"/>
        <pt x="166" y="109" on="0"/>
        <pt x="204" y="118" on="0"/>
        <pt x="232" y="146" on="0"/>
        <pt x="248" y="198" on="0"/>
        <pt x="248" y="242" on="1"/>
        <pt x="248" y="1221" on="1"/>
        <pt x="248" y="1265" on="0"/>
        <pt x="232" y="1317" on="0"/>
        <pt x="204" y="1345" on="0"/>
        <pt x="166" y="1354" on="0"/>
        <pt x="143" y="1354" on="1"/>
        <pt x="57" y="1354" on="1"/>
        <pt x="57" y="1462" on="1"/>
      </contour>
    </TTGlyph>
    <TTGlyph name="Gbreve" xMin="113" yMin="-20" xMax="1518" yMax="1901">
      <component glyphName="G" x="0" y="0" flags="0x204"/>
      <component glyphName="breve" x="248" y="338" flags="0x4"/>
    </TTGlyph>
    <TTGlyph name="Gcaron" xMin="113" yMin="-20" xMax="1518" yMax="1907">
      <component glyphName="G" x="0" y="0" flags="0x204"/>
      <component glyphName="caron" x="270" y="338" flags="0x4"/>
    </TTGlyph>
    <TTGlyph name="Gcircumflex" xMin="113" yMin="-20" xMax="1518" yMax="1907">
      <component glyphName="G" x="0" y="0" flags="0x204"/>
      <component glyphName="circumflex" x="248" y="338" flags="0x4"/>
    </TTGlyph>
    <TTGlyph name="Gcommaaccent" xMin="113" yMin="-453" xMax="1518" yMax="1483">
      <component glyphName="G" x="0" y="0" flags="0x204"/>
      <component glyphName="glyph00569" x="279" y="0" flags="0x4"/>
    </TTGlyph>
    <TTGlyph name="Gdotaccent" xMin="113" yMin="-20" xMax="1518" yMax="1915">
      <component glyphName="G" x="0" y="0" flags="0x204"/>
      <component glyphName="dotaccent" x="496" y="338" flags="0x4"/>
    </TTGlyph>
    <TTGlyph name="H" xMin="57" yMin="0" xMax="1620" yMax="1462">
      <contour>
        <pt x="913" y="0" on="1"/>
        <pt x="913" y="109" on="1"/>
        <pt x="1001" y="109" on="1"/>
        <pt x="1023" y="109" on="0"/>
        <pt x="1061" y="118" on="0"/>
        <pt x="1090" y="146" on="0"/>
        <pt x="1106" y="198" on="0"/>
        <pt x="1106" y="242" on="1"/>
        <pt x="1106" y="700" on="1"/>
        <pt x="571" y="700" on="1"/>
        <pt x="571" y="242" on="1"/>
        <pt x="571" y="198" on="0"/>
        <pt x="588" y="146" on="0"/>
        <pt x="616" y="118" on="0"/>
        <pt x="654" y="109" on="0"/>
        <pt x="676" y="109" on="1"/>
        <pt x="764" y="109" on="1"/>
        <pt x="764" y="0" on="1"/>
        <pt x="57" y="0" on="1"/>
        <pt x="57" y="109" on="1"/>
        <pt x="143" y="109" on="1"/>
        <pt x="165" y="109" on="0"/>
        <pt x="203" y="118" on="0"/>
        <pt x="232" y="146" on="0"/>
        <pt x="248" y="198" on="0"/>
        <pt x="248" y="242" on="1"/>
        <pt x="248" y="1228" on="1"/>
        <pt x="248" y="1269" on="0"/>
        <pt x="231" y="1318" on="0"/>
        <pt x="202" y="1344" on="0"/>
        <pt x="164" y="1353" on="0"/>
        <pt x="143" y="1353" on="1"/>
        <pt x="57" y="1353" on="1"/>
        <pt x="57" y="1462" on="1"/>
        <pt x="764" y="1462" on="1"/>
        <pt x="764" y="1353" on="1"/>
        <pt x="676" y="1353" on="1"/>
        <pt x="654" y="1353" on="0"/>
        <pt x="616" y="1344" on="0"/>
        <pt x="588" y="1316" on="0"/>
        <pt x="571" y="1264" on="0"/>
        <pt x="571" y="1220" on="1"/>
        <pt x="571" y="825" on="1"/>
        <pt x="1106" y="825" on="1"/>
        <pt x="1106" y="1220" on="1"/>
        <pt x="1106" y="1264" on="0"/>
        <pt x="1090" y="1316" on="0"/>
        <pt x="1061" y="1344" on="0"/>
        <pt x="1023" y="1353" on="0"/>
        <pt x="1001" y="1353" on="1"/>
        <pt x="913" y="1353" on="1"/>
        <pt x="913" y="1462" on="1"/>
        <pt x="1620" y="1462" on="1"/>
        <pt x="1620" y="1353" on="1"/>
        <pt x="1534" y="1353" on="1"/>
        <pt x="1513" y="1353" on="0"/>
        <pt x="1475" y="1344" on="0"/>
        <pt x="1446" y="1316" on="0"/>
        <pt x="1430" y="1264" on="0"/>
        <pt x="1430" y="1220" on="1"/>
        <pt x="1430" y="231" on="1"/>
        <pt x="1430" y="191" on="0"/>
        <pt x="1447" y="142" on="0"/>
        <pt x="1476" y="117" on="0"/>
        <pt x="1513" y="109" on="0"/>
        <pt x="1534" y="109" on="1"/>
        <pt x="1620" y="109" on="1"/>
        <pt x="1620" y="0" on="1"/>
      </contour>
    </TTGlyph>
    <TTGlyph name="H18533" xMin="178" yMin="137" xMax="1059" yMax="1018">
      <contour>
        <pt x="618" y="1018" on="1"/>
        <pt x="727" y="1018" on="0"/>
        <pt x="944" y="901" on="0"/>
        <pt x="1059" y="684" on="0"/>
        <pt x="1059" y="578" on="1"/>
        <pt x="1059" y="395" on="0"/>
        <pt x="801" y="137" on="0"/>
        <pt x="618" y="137" on="1"/>
        <pt x="436" y="137" on="0"/>
        <pt x="178" y="395" on="0"/>
        <pt x="178" y="578" on="1"/>
        <pt x="178" y="686" on="0"/>
        <pt x="289" y="899" on="0"/>
        <pt x="504" y="1018" on="0"/>
      </contour>
    </TTGlyph>
    <TTGlyph name="H18543" xMin="109" yMin="383" xMax="616" yMax="891">
      <contour>
        <pt x="616" y="383" on="1"/>
        <pt x="109" y="383" on="1"/>
        <pt x="109" y="891" on="1"/>
        <pt x="616" y="891" on="1"/>
      </contour>
    </TTGlyph>
    <TTGlyph name="H18551" xMin="109" yMin="383" xMax="616" yMax="891">
      <contour>
        <pt x="616" y="383" on="1"/>
        <pt x="109" y="383" on="1"/>
        <pt x="109" y="891" on="1"/>
        <pt x="616" y="891" on="1"/>
      </contour>
      <contour>
        <pt x="541" y="459" on="1"/>
        <pt x="541" y="813" on="1"/>
        <pt x="184" y="813" on="1"/>
        <pt x="184" y="459" on="1"/>
      </contour>
    </TTGlyph>
    <TTGlyph name="H22073" xMin="6" yMin="0" xMax="1231" yMax="1225">
      <contour>
        <pt x="6" y="1225" on="1"/>
        <pt x="1231" y="1225" on="1"/>
        <pt x="1231" y="0" on="1"/>
        <pt x="6" y="0" on="1"/>
      </contour>
      <contour>
        <pt x="82" y="1149" on="1"/>
        <pt x="82" y="76" on="1"/>
        <pt x="1155" y="76" on="1"/>
        <pt x="1155" y="1149" on="1"/>
      </contour>
    </TTGlyph>
    <TTGlyph name="Hbar" xMin="37" yMin="0" xMax="1640" yMax="1462">
      <contour>
        <pt x="913" y="0" on="1"/>
        <pt x="913" y="109" on="1"/>
        <pt x="1001" y="109" on="1"/>
        <pt x="1023" y="109" on="0"/>
        <pt x="1061" y="118" on="0"/>
        <pt x="1090" y="146" on="0"/>
        <pt x="1106" y="198" on="0"/>
        <pt x="1106" y="242" on="1"/>
        <pt x="1106" y="700" on="1"/>
        <pt x="571" y="700" on="1"/>
        <pt x="571" y="242" on="1"/>
        <pt x="571" y="198" on="0"/>
        <pt x="588" y="146" on="0"/>
        <pt x="616" y="118" on="0"/>
        <pt x="654" y="109" on="0"/>
        <pt x="676" y="109" on="1"/>
        <pt x="764" y="109" on="1"/>
        <pt x="764" y="0" on="1"/>
        <pt x="57" y="0" on="1"/>
        <pt x="57" y="109" on="1"/>
        <pt x="143" y="109" on="1"/>
        <pt x="165" y="109" on="0"/>
        <pt x="203" y="118" on="0"/>
        <pt x="232" y="146" on="0"/>
        <pt x="248" y="198" on="0"/>
        <pt x="248" y="242" on="1"/>
        <pt x="248" y="1022" on="1"/>
        <pt x="37" y="1022" on="1"/>
        <pt x="37" y="1130" on="1"/>
        <pt x="248" y="1130" on="1"/>
        <pt x="248" y="1229" on="1"/>
        <pt x="248" y="1270" on="0"/>
        <pt x="231" y="1319" on="0"/>
        <pt x="202" y="1345" on="0"/>
        <pt x="164" y="1354" on="0"/>
        <pt x="143" y="1354" on="1"/>
        <pt x="57" y="1354" on="1"/>
        <pt x="57" y="1462" on="1"/>
        <pt x="764" y="1462" on="1"/>
        <pt x="764" y="1354" on="1"/>
        <pt x="676" y="1354" on="1"/>
        <pt x="654" y="1354" on="0"/>
        <pt x="616" y="1345" on="0"/>
        <pt x="588" y="1317" on="0"/>
        <pt x="571" y="1265" on="0"/>
        <pt x="571" y="1221" on="1"/>
        <pt x="571" y="1130" on="1"/>
        <pt x="1106" y="1130" on="1"/>
        <pt x="1106" y="1221" on="1"/>
        <pt x="1106" y="1265" on="0"/>
        <pt x="1090" y="1317" on="0"/>
        <pt x="1061" y="1345" on="0"/>
        <pt x="1023" y="1354" on="0"/>
        <pt x="1001" y="1354" on="1"/>
        <pt x="913" y="1354" on="1"/>
        <pt x="913" y="1462" on="1"/>
        <pt x="1620" y="1462" on="1"/>
        <pt x="1620" y="1354" on="1"/>
        <pt x="1534" y="1354" on="1"/>
        <pt x="1513" y="1354" on="0"/>
        <pt x="1475" y="1345" on="0"/>
        <pt x="1446" y="1317" on="0"/>
        <pt x="1430" y="1265" on="0"/>
        <pt x="1430" y="1221" on="1"/>
        <pt x="1430" y="1130" on="1"/>
        <pt x="1640" y="1130" on="1"/>
        <pt x="1640" y="1022" on="1"/>
        <pt x="1430" y="1022" on="1"/>
        <pt x="1430" y="231" on="1"/>
        <pt x="1430" y="191" on="0"/>
        <pt x="1447" y="142" on="0"/>
        <pt x="1476" y="117" on="0"/>
        <pt x="1513" y="109" on="0"/>
        <pt x="1534" y="109" on="1"/>
        <pt x="1620" y="109" on="1"/>
        <pt x="1620" y="0" on="1"/>
      </contour>
      <contour>
        <pt x="1106" y="825" on="1"/>
        <pt x="1106" y="1022" on="1"/>
        <pt x="571" y="1022" on="1"/>
        <pt x="571" y="825" on="1"/>
      </contour>
    </TTGlyph>
    <TTGlyph name="Hcircumflex" xMin="57" yMin="0" xMax="1620" yMax="1907">
      <component glyphName="H" x="0" y="0" flags="0x204"/>
      <component glyphName="circumflex" x="250" y="338" flags="0x4"/>
    </TTGlyph>
    <TTGlyph name="I" xMin="57" yMin="0" xMax="764" yMax="1462">
      <contour>
        <pt x="57" y="0" on="1"/>
        <pt x="57" y="109" on="1"/>
        <pt x="143" y="109" on="1"/>
        <pt x="166" y="109" on="0"/>
        <pt x="204" y="118" on="0"/>
        <pt x="232" y="146" on="0"/>
        <pt x="248" y="198" on="0"/>
        <pt x="248" y="242" on="1"/>
        <pt x="248" y="1220" on="1"/>
        <pt x="248" y="1264" on="0"/>
        <pt x="232" y="1316" on="0"/>
        <pt x="204" y="1344" on="0"/>
        <pt x="166" y="1353" on="0"/>
        <pt x="143" y="1353" on="1"/>
        <pt x="57" y="1353" on="1"/>
        <pt x="57" y="1462" on="1"/>
        <pt x="764" y="1462" on="1"/>
        <pt x="764" y="1353" on="1"/>
        <pt x="678" y="1353" on="1"/>
        <pt x="656" y="1353" on="0"/>
        <pt x="617" y="1344" on="0"/>
        <pt x="589" y="1316" on="0"/>
        <pt x="573" y="1264" on="0"/>
        <pt x="573" y="1220" on="1"/>
        <pt x="573" y="242" on="1"/>
        <pt x="573" y="198" on="0"/>
        <pt x="589" y="146" on="0"/>
        <pt x="617" y="118" on="0"/>
        <pt x="656" y="109" on="0"/>
        <pt x="678" y="109" on="1"/>
        <pt x="764" y="109" on="1"/>
        <pt x="764" y="0" on="1"/>
      </contour>
    </TTGlyph>
    <TTGlyph name="IJ" xMin="57" yMin="-492" xMax="1552" yMax="1462">
      <component glyphName="I" x="0" y="0" flags="0x4"/>
      <component glyphName="J" x="821" y="0" flags="0x4"/>
    </TTGlyph>
    <TTGlyph name="Iacute" xMin="57" yMin="0" xMax="773" yMax="1907">
      <component glyphName="I" x="0" y="0" flags="0x204"/>
      <component glyphName="acute" x="-77" y="338" flags="0x4"/>
    </TTGlyph>
    <TTGlyph name="Ibreve" xMin="57" yMin="0" xMax="764" yMax="1901">
      <component glyphName="I" x="0" y="0" flags="0x204"/>
      <component glyphName="breve" x="-181" y="338" flags="0x4"/>
    </TTGlyph>
    <TTGlyph name="Icircumflex" xMin="48" yMin="0" xMax="775" yMax="1907">
      <component glyphName="I" x="0" y="0" flags="0x204"/>
      <component glyphName="circumflex" x="-179" y="338" flags="0x4"/>
    </TTGlyph>
    <TTGlyph name="Idieresis" xMin="57" yMin="0" xMax="764" yMax="1874">
      <component glyphName="I" x="0" y="0" flags="0x204"/>
      <component glyphName="dieresis" x="-179" y="338" flags="0x4"/>
    </TTGlyph>
    <TTGlyph name="Idotaccent" xMin="57" yMin="0" xMax="764" yMax="1915">
      <component glyphName="I" x="0" y="0" flags="0x204"/>
      <component glyphName="dotaccent" x="66" y="338" flags="0x4"/>
    </TTGlyph>
    <TTGlyph name="Igrave" xMin="48" yMin="0" xMax="764" yMax="1907">
      <component glyphName="I" x="0" y="0" flags="0x204"/>
      <component glyphName="grave" x="-284" y="338" flags="0x4"/>
    </TTGlyph>
    <TTGlyph name="Imacron" xMin="57" yMin="0" xMax="764" yMax="1741">
      <component glyphName="I" x="0" y="0" flags="0x204"/>
      <component glyphName="uni02C9" x="-103" y="338" flags="0x4"/>
    </TTGlyph>
    <TTGlyph name="Iogonek" xMin="57" yMin="-492" xMax="764" yMax="1462">
      <component glyphName="I" x="0" y="0" flags="0x204"/>
      <component glyphName="ogonek" x="-110" y="0" flags="0x4"/>
    </TTGlyph>
    <TTGlyph name="Iota" xMin="57" yMin="0" xMax="764" yMax="1462">
      <component glyphName="I" x="0" y="0" flags="0x204"/>
    </TTGlyph>
    <TTGlyph name="Iotadieresis" xMin="57" yMin="0" xMax="764" yMax="1874">
      <component glyphName="I" x="0" y="0" flags="0x204"/>
      <component glyphName="dieresis" x="-179" y="338" flags="0x4"/>
    </TTGlyph>
    <TTGlyph name="Iotatonos" xMin="-98" yMin="0" xMax="1014" yMax="1462">
      <component glyphName="I" x="250" y="0" flags="0x4"/>
      <component glyphName="tonos" x="-549" y="-168" flags="0x4"/>
    </TTGlyph>
    <TTGlyph name="Itilde" xMin="1" yMin="0" xMax="812" yMax="1903">
      <component glyphName="I" x="0" y="0" flags="0x204"/>
      <component glyphName="tilde" x="-183" y="338" flags="0x4"/>
    </TTGlyph>
    <TTGlyph name="J" xMin="-80" yMin="-492" xMax="731" yMax="1462">
      <contour>
        <pt x="731" y="1354" on="1"/>
        <pt x="645" y="1354" on="1"/>
        <pt x="623" y="1354" on="0"/>
        <pt x="584" y="1345" on="0"/>
        <pt x="556" y="1317" on="0"/>
        <pt x="539" y="1265" on="0"/>
        <pt x="539" y="1221" on="1"/>
        <pt x="539" y="-4" on="1"/>
        <pt x="539" y="-97" on="0"/>
        <pt x="497" y="-241" on="0"/>
        <pt x="423" y="-350" on="0"/>
        <pt x="320" y="-425" on="0"/>
        <pt x="199" y="-471" on="0"/>
        <pt x="64" y="-492" on="0"/>
        <pt x="-6" y="-492" on="1"/>
        <pt x="-80" y="-492" on="1"/>
        <pt x="-80" y="-373" on="1"/>
        <pt x="-43" y="-373" on="1"/>
        <pt x="6" y="-373" on="0"/>
        <pt x="99" y="-336" on="0"/>
        <pt x="171" y="-250" on="0"/>
        <pt x="215" y="-109" on="0"/>
        <pt x="215" y="-6" on="1"/>
        <pt x="215" y="1229" on="1"/>
        <pt x="215" y="1270" on="0"/>
        <pt x="199" y="1319" on="0"/>
        <pt x="170" y="1345" on="0"/>
        <pt x="132" y="1354" on="0"/>
        <pt x="111" y="1354" on="1"/>
        <pt x="25" y="1354" on="1"/>
        <pt x="25" y="1462" on="1"/>
        <pt x="731" y="1462" on="1"/>
      </contour>
    </TTGlyph>
    <TTGlyph name="Jcircumflex" xMin="-80" yMin="-492" xMax="738" yMax="1907">
      <component glyphName="J" x="0" y="0" flags="0x204"/>
      <component glyphName="circumflex" x="-216" y="338" flags="0x4"/>
    </TTGlyph>
    <TTGlyph name="K" xMin="57" yMin="0" xMax="1503" yMax="1462">
      <contour>
        <pt x="889" y="1090" on="1"/>
        <pt x="922" y="1125" on="0"/>
        <pt x="967" y="1182" on="0"/>
        <pt x="994" y="1231" on="0"/>
        <pt x="1006" y="1275" on="0"/>
        <pt x="1006" y="1296" on="1"/>
        <pt x="1006" y="1330" on="0"/>
        <pt x="954" y="1356" on="0"/>
        <pt x="891" y="1356" on="1"/>
        <pt x="891" y="1462" on="1"/>
        <pt x="1446" y="1462" on="1"/>
        <pt x="1446" y="1356" on="1"/>
        <pt x="1404" y="1356" on="0"/>
        <pt x="1329" y="1330" on="0"/>
        <pt x="1257" y="1282" on="0"/>
        <pt x="1187" y="1216" on="0"/>
        <pt x="1151" y="1176" on="1"/>
        <pt x="881" y="879" on="1"/>
        <pt x="1262" y="274" on="1"/>
        <pt x="1292" y="226" on="0"/>
        <pt x="1347" y="163" on="0"/>
        <pt x="1403" y="125" on="0"/>
        <pt x="1461" y="109" on="0"/>
        <pt x="1495" y="109" on="1"/>
        <pt x="1503" y="109" on="1"/>
        <pt x="1503" y="0" on="1"/>
        <pt x="1393" y="0" on="1"/>
        <pt x="1315" y="0" on="0"/>
        <pt x="1197" y="10" on="0"/>
        <pt x="1108" y="30" on="0"/>
        <pt x="1044" y="61" on="0"/>
        <pt x="996" y="103" on="0"/>
        <pt x="957" y="156" on="0"/>
        <pt x="938" y="188" on="1"/>
        <pt x="662" y="659" on="1"/>
        <pt x="571" y="588" on="1"/>
        <pt x="571" y="242" on="1"/>
        <pt x="571" y="198" on="0"/>
        <pt x="588" y="146" on="0"/>
        <pt x="616" y="118" on="0"/>
        <pt x="656" y="109" on="0"/>
        <pt x="678" y="109" on="1"/>
        <pt x="764" y="109" on="1"/>
        <pt x="764" y="0" on="1"/>
        <pt x="57" y="0" on="1"/>
        <pt x="57" y="109" on="1"/>
        <pt x="143" y="109" on="1"/>
        <pt x="165" y="109" on="0"/>
        <pt x="203" y="117" on="0"/>
        <pt x="232" y="142" on="0"/>
        <pt x="248" y="191" on="0"/>
        <pt x="248" y="231" on="1"/>
        <pt x="248" y="1229" on="1"/>
        <pt x="248" y="1270" on="0"/>
        <pt x="232" y="1319" on="0"/>
        <pt x="203" y="1345" on="0"/>
        <pt x="165" y="1354" on="0"/>
        <pt x="143" y="1354" on="1"/>
        <pt x="57" y="1354" on="1"/>
        <pt x="57" y="1462" on="1"/>
        <pt x="764" y="1462" on="1"/>
        <pt x="764" y="1354" on="1"/>
        <pt x="678" y="1354" on="1"/>
        <pt x="656" y="1354" on="0"/>
        <pt x="616" y="1345" on="0"/>
        <pt x="588" y="1317" on="0"/>
        <pt x="571" y="1265" on="0"/>
        <pt x="571" y="1221" on="1"/>
        <pt x="571" y="743" on="1"/>
      </contour>
    </TTGlyph>
    <TTGlyph name="Kappa" xMin="57" yMin="0" xMax="1503" yMax="1462">
      <component glyphName="K" x="0" y="0" flags="0x204"/>
    </TTGlyph>
    <TTGlyph name="Kcommaaccent" xMin="57" yMin="-453" xMax="1503" yMax="1462">
      <component glyphName="K" x="0" y="0" flags="0x204"/>
      <component glyphName="glyph00569" x="283" y="0" flags="0x4"/>
    </TTGlyph>
    <TTGlyph name="L" xMin="57" yMin="0" xMax="1272" yMax="1462">
      <contour>
        <pt x="57" y="0" on="1"/>
        <pt x="57" y="109" on="1"/>
        <pt x="143" y="109" on="1"/>
        <pt x="166" y="109" on="0"/>
        <pt x="204" y="118" on="0"/>
        <pt x="232" y="146" on="0"/>
        <pt x="248" y="198" on="0"/>
        <pt x="248" y="242" on="1"/>
        <pt x="248" y="1221" on="1"/>
        <pt x="248" y="1265" on="0"/>
        <pt x="232" y="1317" on="0"/>
        <pt x="204" y="1345" on="0"/>
        <pt x="166" y="1354" on="0"/>
        <pt x="143" y="1354" on="1"/>
        <pt x="57" y="1354" on="1"/>
        <pt x="57" y="1462" on="1"/>
        <pt x="764" y="1462" on="1"/>
        <pt x="764" y="1354" on="1"/>
        <pt x="678" y="1354" on="1"/>
        <pt x="657" y="1354" on="0"/>
        <pt x="618" y="1345" on="0"/>
        <pt x="590" y="1319" on="0"/>
        <pt x="573" y="1270" on="0"/>
        <pt x="573" y="1229" on="1"/>
        <pt x="573" y="125" on="1"/>
        <pt x="954" y="125" on="1"/>
        <pt x="1026" y="125" on="0"/>
        <pt x="1106" y="216" on="0"/>
        <pt x="1124" y="303" on="1"/>
        <pt x="1157" y="457" on="1"/>
        <pt x="1272" y="457" on="1"/>
        <pt x="1257" y="0" on="1"/>
      </contour>
    </TTGlyph>
    <TTGlyph name="Lacute" xMin="57" yMin="0" xMax="1272" yMax="1907">
      <component glyphName="L" x="0" y="0" flags="0x204"/>
      <component glyphName="acute" x="14" y="338" flags="0x4"/>
    </TTGlyph>
    <TTGlyph name="Lambda" xMin="0" yMin="0" xMax="1430" yMax="1462">
      <contour>
        <pt x="0" y="109" on="1"/>
        <pt x="98" y="109" on="1"/>
        <pt x="112" y="109" on="0"/>
        <pt x="134" y="120" on="0"/>
        <pt x="156" y="153" on="0"/>
        <pt x="181" y="211" on="0"/>
        <pt x="197" y="258" on="1"/>
        <pt x="614" y="1462" on="1"/>
        <pt x="819" y="1462" on="1"/>
        <pt x="1255" y="207" on="1"/>
        <pt x="1265" y="178" on="0"/>
        <pt x="1296" y="140" on="0"/>
        <pt x="1331" y="118" on="0"/>
        <pt x="1367" y="109" on="0"/>
        <pt x="1382" y="109" on="1"/>
        <pt x="1430" y="109" on="1"/>
        <pt x="1430" y="0" on="1"/>
        <pt x="754" y="0" on="1"/>
        <pt x="754" y="109" on="1"/>
        <pt x="848" y="109" on="1"/>
        <pt x="863" y="109" on="0"/>
        <pt x="891" y="116" on="0"/>
        <pt x="914" y="131" on="0"/>
        <pt x="928" y="157" on="0"/>
        <pt x="928" y="176" on="1"/>
        <pt x="928" y="196" on="0"/>
        <pt x="916" y="247" on="0"/>
        <pt x="909" y="264" on="1"/>
        <pt x="700" y="895" on="1"/>
        <pt x="693" y="918" on="0"/>
        <pt x="675" y="980" on="0"/>
        <pt x="659" y="1048" on="0"/>
        <pt x="646" y="1115" on="0"/>
        <pt x="643" y="1143" on="1"/>
        <pt x="640" y="1126" on="0"/>
        <pt x="625" y="1067" on="0"/>
        <pt x="606" y="999" on="0"/>
        <pt x="584" y="929" on="0"/>
        <pt x="575" y="901" on="1"/>
        <pt x="365" y="279" on="1"/>
        <pt x="361" y="268" on="0"/>
        <pt x="352" y="240" on="0"/>
        <pt x="345" y="212" on="0"/>
        <pt x="340" y="187" on="0"/>
        <pt x="340" y="178" on="1"/>
        <pt x="340" y="144" on="0"/>
        <pt x="385" y="109" on="0"/>
        <pt x="422" y="109" on="1"/>
        <pt x="528" y="109" on="1"/>
        <pt x="528" y="0" on="1"/>
        <pt x="0" y="0" on="1"/>
      </contour>
    </TTGlyph>
    <TTGlyph name="Lcaron" xMin="57" yMin="0" xMax="1272" yMax="1463">
      <component glyphName="L" x="0" y="0" flags="0x204"/>
      <component glyphName="glyph00568" x="557" y="-93" flags="0x4"/>
    </TTGlyph>
    <TTGlyph name="Lcommaaccent" xMin="57" yMin="-453" xMax="1272" yMax="1462">
      <component glyphName="L" x="0" y="0" flags="0x204"/>
      <component glyphName="glyph00569" x="143" y="0" flags="0x4"/>
    </TTGlyph>
    <TTGlyph name="Ldot" xMin="57" yMin="0" xMax="1272" yMax="1462">
      <component glyphName="L" x="0" y="0" flags="0x204"/>
      <component glyphName="dotaccent" x="723" y="-669" flags="0x4"/>
    </TTGlyph>
    <TTGlyph name="Lslash" xMin="57" yMin="0" xMax="1272" yMax="1462">
      <contour>
        <pt x="57" y="0" on="1"/>
        <pt x="57" y="109" on="1"/>
        <pt x="143" y="109" on="1"/>
        <pt x="166" y="109" on="0"/>
        <pt x="204" y="118" on="0"/>
        <pt x="232" y="146" on="0"/>
        <pt x="248" y="198" on="0"/>
        <pt x="248" y="242" on="1"/>
        <pt x="248" y="565" on="1"/>
        <pt x="78" y="469" on="1"/>
        <pt x="78" y="608" on="1"/>
        <pt x="248" y="707" on="1"/>
        <pt x="248" y="1221" on="1"/>
        <pt x="248" y="1265" on="0"/>
        <pt x="232" y="1317" on="0"/>
        <pt x="204" y="1345" on="0"/>
        <pt x="166" y="1354" on="0"/>
        <pt x="143" y="1354" on="1"/>
        <pt x="57" y="1354" on="1"/>
        <pt x="57" y="1462" on="1"/>
        <pt x="764" y="1462" on="1"/>
        <pt x="764" y="1354" on="1"/>
        <pt x="678" y="1354" on="1"/>
        <pt x="657" y="1354" on="0"/>
        <pt x="620" y="1345" on="0"/>
        <pt x="592" y="1319" on="0"/>
        <pt x="575" y="1270" on="0"/>
        <pt x="573" y="1229" on="1"/>
        <pt x="573" y="895" on="1"/>
        <pt x="868" y="1067" on="1"/>
        <pt x="868" y="924" on="1"/>
        <pt x="573" y="752" on="1"/>
        <pt x="573" y="125" on="1"/>
        <pt x="954" y="125" on="1"/>
        <pt x="1026" y="125" on="0"/>
        <pt x="1106" y="216" on="0"/>
        <pt x="1124" y="303" on="1"/>
        <pt x="1157" y="457" on="1"/>
        <pt x="1272" y="457" on="1"/>
        <pt x="1257" y="0" on="1"/>
      </contour>
    </TTGlyph>
    <TTGlyph name="M" xMin="57" yMin="0" xMax="1892" yMax="1462">
      <contour>
        <pt x="1237" y="0" on="1"/>
        <pt x="1237" y="109" on="1"/>
        <pt x="1257" y="109" on="1"/>
        <pt x="1289" y="109" on="0"/>
        <pt x="1338" y="117" on="0"/>
        <pt x="1370" y="141" on="0"/>
        <pt x="1386" y="186" on="0"/>
        <pt x="1386" y="223" on="1"/>
        <pt x="1386" y="1260" on="1"/>
        <pt x="973" y="0" on="1"/>
        <pt x="834" y="0" on="1"/>
        <pt x="401" y="1260" on="1"/>
        <pt x="401" y="242" on="1"/>
        <pt x="401" y="198" on="0"/>
        <pt x="422" y="146" on="0"/>
        <pt x="461" y="118" on="0"/>
        <pt x="517" y="109" on="0"/>
        <pt x="553" y="109" on="1"/>
        <pt x="565" y="109" on="1"/>
        <pt x="565" y="0" on="1"/>
        <pt x="57" y="0" on="1"/>
        <pt x="57" y="109" on="1"/>
        <pt x="143" y="109" on="1"/>
        <pt x="165" y="109" on="0"/>
        <pt x="203" y="117" on="0"/>
        <pt x="232" y="142" on="0"/>
        <pt x="248" y="191" on="0"/>
        <pt x="248" y="231" on="1"/>
        <pt x="248" y="1229" on="1"/>
        <pt x="248" y="1270" on="0"/>
        <pt x="232" y="1319" on="0"/>
        <pt x="203" y="1345" on="0"/>
        <pt x="165" y="1354" on="0"/>
        <pt x="143" y="1354" on="1"/>
        <pt x="57" y="1354" on="1"/>
        <pt x="57" y="1462" on="1"/>
        <pt x="647" y="1462" on="1"/>
        <pt x="987" y="473" on="1"/>
        <pt x="1313" y="1462" on="1"/>
        <pt x="1892" y="1462" on="1"/>
        <pt x="1892" y="1354" on="1"/>
        <pt x="1806" y="1354" on="1"/>
        <pt x="1784" y="1354" on="0"/>
        <pt x="1746" y="1345" on="0"/>
        <pt x="1718" y="1317" on="0"/>
        <pt x="1702" y="1265" on="0"/>
        <pt x="1702" y="1221" on="1"/>
        <pt x="1702" y="242" on="1"/>
        <pt x="1702" y="198" on="0"/>
        <pt x="1718" y="146" on="0"/>
        <pt x="1746" y="118" on="0"/>
        <pt x="1784" y="109" on="0"/>
        <pt x="1806" y="109" on="1"/>
        <pt x="1892" y="109" on="1"/>
        <pt x="1892" y="0" on="1"/>
      </contour>
    </TTGlyph>
    <TTGlyph name="Mu" xMin="57" yMin="0" xMax="1892" yMax="1462">
      <component glyphName="M" x="0" y="0" flags="0x204"/>
    </TTGlyph>
    <TTGlyph name="N" xMin="57" yMin="0" xMax="1579" yMax="1462">
      <contour>
        <pt x="1200" y="0" on="1"/>
        <pt x="401" y="1128" on="1"/>
        <pt x="401" y="242" on="1"/>
        <pt x="401" y="198" on="0"/>
        <pt x="418" y="146" on="0"/>
        <pt x="446" y="118" on="0"/>
        <pt x="485" y="109" on="0"/>
        <pt x="506" y="109" on="1"/>
        <pt x="592" y="109" on="1"/>
        <pt x="592" y="0" on="1"/>
        <pt x="57" y="0" on="1"/>
        <pt x="57" y="109" on="1"/>
        <pt x="143" y="109" on="1"/>
        <pt x="165" y="109" on="0"/>
        <pt x="203" y="118" on="0"/>
        <pt x="232" y="146" on="0"/>
        <pt x="248" y="198" on="0"/>
        <pt x="248" y="242" on="1"/>
        <pt x="248" y="1229" on="1"/>
        <pt x="248" y="1270" on="0"/>
        <pt x="231" y="1319" on="0"/>
        <pt x="202" y="1345" on="0"/>
        <pt x="164" y="1354" on="0"/>
        <pt x="143" y="1354" on="1"/>
        <pt x="57" y="1354" on="1"/>
        <pt x="57" y="1462" on="1"/>
        <pt x="512" y="1462" on="1"/>
        <pt x="1235" y="440" on="1"/>
        <pt x="1235" y="1229" on="1"/>
        <pt x="1235" y="1270" on="0"/>
        <pt x="1218" y="1319" on="0"/>
        <pt x="1189" y="1345" on="0"/>
        <pt x="1151" y="1354" on="0"/>
        <pt x="1130" y="1354" on="1"/>
        <pt x="1044" y="1354" on="1"/>
        <pt x="1044" y="1462" on="1"/>
        <pt x="1579" y="1462" on="1"/>
        <pt x="1579" y="1354" on="1"/>
        <pt x="1493" y="1354" on="1"/>
        <pt x="1472" y="1354" on="0"/>
        <pt x="1434" y="1345" on="0"/>
        <pt x="1405" y="1317" on="0"/>
        <pt x="1389" y="1265" on="0"/>
        <pt x="1389" y="1221" on="1"/>
        <pt x="1389" y="0" on="1"/>
      </contour>
    </TTGlyph>
    <TTGlyph name="Nacute" xMin="57" yMin="0" xMax="1579" yMax="1907">
      <component glyphName="N" x="0" y="0" flags="0x204"/>
      <component glyphName="acute" x="383" y="338" flags="0x4"/>
    </TTGlyph>
    <TTGlyph name="Ncaron" xMin="57" yMin="0" xMax="1579" yMax="1907">
      <component glyphName="N" x="0" y="0" flags="0x204"/>
      <component glyphName="caron" x="260" y="338" flags="0x4"/>
    </TTGlyph>
    <TTGlyph name="Ncommaaccent" xMin="57" yMin="-453" xMax="1579" yMax="1462">
      <component glyphName="N" x="0" y="0" flags="0x204"/>
      <component glyphName="glyph00569" x="293" y="0" flags="0x4"/>
    </TTGlyph>
    <TTGlyph name="Ntilde" xMin="57" yMin="0" xMax="1579" yMax="1903">
      <component glyphName="N" x="0" y="0" flags="0x204"/>
      <component glyphName="tilde" x="236" y="338" flags="0x4"/>
    </TTGlyph>
    <TTGlyph name="Nu" xMin="57" yMin="0" xMax="1579" yMax="1462">
      <component glyphName="N" x="0" y="0" flags="0x204"/>
    </TTGlyph>
    <TTGlyph name="O" xMin="113" yMin="-20" xMax="1499" yMax="1485">
      <contour>
        <pt x="1499" y="733" on="1"/>
        <pt x="1499" y="564" on="0"/>
        <pt x="1408" y="286" on="0"/>
        <pt x="1231" y="88" on="0"/>
        <pt x="974" y="-20" on="0"/>
        <pt x="807" y="-20" on="1"/>
        <pt x="632" y="-20" on="0"/>
        <pt x="371" y="88" on="0"/>
        <pt x="199" y="286" on="0"/>
        <pt x="113" y="565" on="0"/>
        <pt x="113" y="735" on="1"/>
        <pt x="113" y="905" on="0"/>
        <pt x="199" y="1182" on="0"/>
        <pt x="372" y="1378" on="0"/>
        <pt x="633" y="1485" on="0"/>
        <pt x="809" y="1485" on="1"/>
        <pt x="975" y="1485" on="0"/>
        <pt x="1232" y="1378" on="0"/>
        <pt x="1408" y="1181" on="0"/>
        <pt x="1499" y="904" on="0"/>
      </contour>
      <contour>
        <pt x="457" y="733" on="1"/>
        <pt x="457" y="586" on="0"/>
        <pt x="495" y="356" on="0"/>
        <pt x="579" y="197" on="0"/>
        <pt x="712" y="113" on="0"/>
        <pt x="807" y="113" on="1"/>
        <pt x="903" y="113" on="0"/>
        <pt x="1036" y="197" on="0"/>
        <pt x="1118" y="356" on="0"/>
        <pt x="1155" y="586" on="0"/>
        <pt x="1155" y="733" on="1"/>
        <pt x="1155" y="880" on="0"/>
        <pt x="1118" y="1110" on="0"/>
        <pt x="1036" y="1269" on="0"/>
        <pt x="904" y="1352" on="0"/>
        <pt x="809" y="1352" on="1"/>
        <pt x="713" y="1352" on="0"/>
        <pt x="579" y="1269" on="0"/>
        <pt x="495" y="1110" on="0"/>
        <pt x="457" y="880" on="0"/>
      </contour>
    </TTGlyph>
    <TTGlyph name="OE" xMin="113" yMin="-20" xMax="2021" yMax="1485">
      <contour>
        <pt x="1323" y="125" on="1"/>
        <pt x="1733" y="125" on="1"/>
        <pt x="1764" y="125" on="0"/>
        <pt x="1808" y="148" on="0"/>
        <pt x="1839" y="190" on="0"/>
        <pt x="1858" y="247" on="0"/>
        <pt x="1864" y="281" on="1"/>
        <pt x="1880" y="377" on="1"/>
        <pt x="2021" y="377" on="1"/>
        <pt x="2007" y="0" on="1"/>
        <pt x="1020" y="0" on="1"/>
        <pt x="975" y="-9" on="0"/>
        <pt x="858" y="-20" on="0"/>
        <pt x="807" y="-20" on="1"/>
        <pt x="632" y="-20" on="0"/>
        <pt x="371" y="88" on="0"/>
        <pt x="199" y="286" on="0"/>
        <pt x="113" y="565" on="0"/>
        <pt x="113" y="735" on="1"/>
        <pt x="113" y="905" on="0"/>
        <pt x="199" y="1182" on="0"/>
        <pt x="372" y="1378" on="0"/>
        <pt x="633" y="1485" on="0"/>
        <pt x="809" y="1485" on="1"/>
        <pt x="862" y="1485" on="0"/>
        <pt x="981" y="1473" on="0"/>
        <pt x="1026" y="1462" on="1"/>
        <pt x="1944" y="1462" on="1"/>
        <pt x="1952" y="1085" on="1"/>
        <pt x="1808" y="1085" on="1"/>
        <pt x="1798" y="1182" on="1"/>
        <pt x="1790" y="1257" on="0"/>
        <pt x="1730" y="1337" on="0"/>
        <pt x="1667" y="1337" on="1"/>
        <pt x="1323" y="1337" on="1"/>
        <pt x="1323" y="825" on="1"/>
        <pt x="1808" y="825" on="1"/>
        <pt x="1808" y="702" on="1"/>
        <pt x="1323" y="702" on="1"/>
      </contour>
      <contour>
        <pt x="807" y="113" on="1"/>
        <pt x="866" y="113" on="0"/>
        <pt x="959" y="143" on="0"/>
        <pt x="997" y="172" on="1"/>
        <pt x="997" y="1290" on="1"/>
        <pt x="963" y="1316" on="0"/>
        <pt x="866" y="1352" on="0"/>
        <pt x="809" y="1352" on="1"/>
        <pt x="713" y="1352" on="0"/>
        <pt x="579" y="1269" on="0"/>
        <pt x="495" y="1110" on="0"/>
        <pt x="457" y="880" on="0"/>
        <pt x="457" y="733" on="1"/>
        <pt x="457" y="586" on="0"/>
        <pt x="495" y="356" on="0"/>
        <pt x="579" y="197" on="0"/>
        <pt x="712" y="113" on="0"/>
      </contour>
    </TTGlyph>
    <TTGlyph name="Oacute" xMin="113" yMin="-20" xMax="1499" yMax="1907">
      <component glyphName="O" x="0" y="0" flags="0x204"/>
      <component glyphName="acute" x="336" y="338" flags="0x4"/>
    </TTGlyph>
    <TTGlyph name="Obreve" xMin="113" yMin="-20" xMax="1499" yMax="1901">
      <component glyphName="O" x="0" y="0" flags="0x204"/>
      <component glyphName="breve" x="209" y="338" flags="0x4"/>
    </TTGlyph>
    <TTGlyph name="Ocircumflex" xMin="113" yMin="-20" xMax="1499" yMax="1907">
      <component glyphName="O" x="0" y="0" flags="0x204"/>
      <component glyphName="circumflex" x="213" y="338" flags="0x4"/>
    </TTGlyph>
    <TTGlyph name="Odieresis" xMin="113" yMin="-20" xMax="1499" yMax="1874">
      <component glyphName="O" x="0" y="0" flags="0x204"/>
      <component glyphName="dieresis" x="205" y="338" flags="0x4"/>
    </TTGlyph>
    <TTGlyph name="Ograve" xMin="113" yMin="-20" xMax="1499" yMax="1907">
      <component glyphName="O" x="0" y="0" flags="0x204"/>
      <component glyphName="grave" x="100" y="338" flags="0x4"/>
    </TTGlyph>
    <TTGlyph name="Ohorn" xMin="113" yMin="-20" xMax="1726" yMax="1577">
      <contour>
        <pt x="1415" y="1133" on="1"/>
        <pt x="1544" y="1185" on="0"/>
        <pt x="1544" y="1257" on="1"/>
        <pt x="1544" y="1296" on="0"/>
        <pt x="1432" y="1384" on="0"/>
        <pt x="1432" y="1454" on="1"/>
        <pt x="1432" y="1577" on="0"/>
        <pt x="1569" y="1577" on="1"/>
        <pt x="1639" y="1577" on="0"/>
        <pt x="1726" y="1470" on="0"/>
        <pt x="1726" y="1380" on="1"/>
        <pt x="1726" y="1153" on="0"/>
        <pt x="1452" y="1044" on="1"/>
        <pt x="1499" y="905" on="0"/>
        <pt x="1499" y="733" on="1"/>
        <pt x="1499" y="385" on="0"/>
        <pt x="1130" y="-20" on="0"/>
        <pt x="807" y="-20" on="1"/>
        <pt x="472" y="-20" on="0"/>
        <pt x="113" y="378" on="0"/>
        <pt x="113" y="735" on="1"/>
        <pt x="113" y="1092" on="0"/>
        <pt x="474" y="1485" on="0"/>
        <pt x="809" y="1485" on="1"/>
        <pt x="1242" y="1485" on="0"/>
      </contour>
      <contour>
        <pt x="807" y="113" on="1"/>
        <pt x="1155" y="113" on="0"/>
        <pt x="1155" y="733" on="1"/>
        <pt x="1155" y="1352" on="0"/>
        <pt x="809" y="1352" on="1"/>
        <pt x="457" y="1352" on="0"/>
        <pt x="457" y="733" on="1"/>
        <pt x="457" y="113" on="0"/>
      </contour>
    </TTGlyph>
    <TTGlyph name="Ohungarumlaut" xMin="113" yMin="-20" xMax="1499" yMax="1907">
      <component glyphName="O" x="0" y="0" flags="0x204"/>
      <component glyphName="hungarumlaut" x="285" y="338" flags="0x4"/>
    </TTGlyph>
    <TTGlyph name="Omacron" xMin="113" yMin="-20" xMax="1499" yMax="1741">
      <component glyphName="O" x="0" y="0" flags="0x204"/>
      <component glyphName="uni02C9" x="291" y="338" flags="0x4"/>
    </TTGlyph>
    <TTGlyph name="Omega" xMin="90" yMin="0" xMax="1565" yMax="1485">
      <contour>
        <pt x="131" y="922" on="1"/>
        <pt x="131" y="1050" on="0"/>
        <pt x="217" y="1257" on="0"/>
        <pt x="391" y="1405" on="0"/>
        <pt x="654" y="1485" on="0"/>
        <pt x="831" y="1485" on="1"/>
        <pt x="998" y="1485" on="0"/>
        <pt x="1256" y="1405" on="0"/>
        <pt x="1433" y="1257" on="0"/>
        <pt x="1524" y="1050" on="0"/>
        <pt x="1524" y="922" on="1"/>
        <pt x="1524" y="705" on="0"/>
        <pt x="1270" y="435" on="0"/>
        <pt x="1022" y="391" on="1"/>
        <pt x="1018" y="219" on="1"/>
        <pt x="1223" y="219" on="1"/>
        <pt x="1276" y="219" on="0"/>
        <pt x="1350" y="233" on="0"/>
        <pt x="1399" y="264" on="0"/>
        <pt x="1428" y="312" on="0"/>
        <pt x="1436" y="346" on="1"/>
        <pt x="1452" y="414" on="1"/>
        <pt x="1565" y="414" on="1"/>
        <pt x="1550" y="0" on="1"/>
        <pt x="889" y="0" on="1"/>
        <pt x="903" y="494" on="1"/>
        <pt x="976" y="503" on="0"/>
        <pt x="1078" y="569" on="0"/>
        <pt x="1141" y="678" on="0"/>
        <pt x="1169" y="828" on="0"/>
        <pt x="1169" y="922" on="1"/>
        <pt x="1169" y="1024" on="0"/>
        <pt x="1133" y="1184" on="0"/>
        <pt x="1052" y="1294" on="0"/>
        <pt x="923" y="1352" on="0"/>
        <pt x="829" y="1352" on="1"/>
        <pt x="735" y="1352" on="0"/>
        <pt x="603" y="1294" on="0"/>
        <pt x="521" y="1184" on="0"/>
        <pt x="483" y="1024" on="0"/>
        <pt x="483" y="922" on="1"/>
        <pt x="483" y="828" on="0"/>
        <pt x="512" y="678" on="0"/>
        <pt x="575" y="569" on="0"/>
        <pt x="677" y="503" on="0"/>
        <pt x="750" y="494" on="1"/>
        <pt x="764" y="0" on="1"/>
        <pt x="104" y="0" on="1"/>
        <pt x="90" y="410" on="1"/>
        <pt x="203" y="410" on="1"/>
        <pt x="219" y="342" on="1"/>
        <pt x="226" y="308" on="0"/>
        <pt x="254" y="260" on="0"/>
        <pt x="303" y="229" on="0"/>
        <pt x="377" y="215" on="0"/>
        <pt x="430" y="215" on="1"/>
        <pt x="637" y="215" on="1"/>
        <pt x="631" y="393" on="1"/>
        <pt x="383" y="437" on="0"/>
        <pt x="131" y="707" on="0"/>
      </contour>
    </TTGlyph>
    <TTGlyph name="Omegatonos" xMin="-98" yMin="0" xMax="1628" yMax="1485">
      <component glyphName="Omega" x="63" y="0" flags="0x4"/>
      <component glyphName="tonos" x="-549" y="-168" flags="0x4"/>
    </TTGlyph>
    <TTGlyph name="Omicron" xMin="113" yMin="-20" xMax="1499" yMax="1485">
      <component glyphName="O" x="0" y="0" flags="0x204"/>
    </TTGlyph>
    <TTGlyph name="Omicrontonos" xMin="-119" yMin="-20" xMax="1513" yMax="1485">
      <component glyphName="O" x="14" y="0" flags="0x4"/>
      <component glyphName="tonos" x="-570" y="-168" flags="0x4"/>
    </TTGlyph>
    <TTGlyph name="Oslash" xMin="113" yMin="-82" xMax="1499" yMax="1546">
      <contour>
        <pt x="1499" y="733" on="1"/>
        <pt x="1499" y="564" on="0"/>
        <pt x="1408" y="286" on="0"/>
        <pt x="1231" y="88" on="0"/>
        <pt x="974" y="-20" on="0"/>
        <pt x="807" y="-20" on="1"/>
        <pt x="634" y="-20" on="0"/>
        <pt x="504" y="33" on="1"/>
        <pt x="442" y="-82" on="1"/>
        <pt x="297" y="-82" on="1"/>
        <pt x="391" y="92" on="1"/>
        <pt x="251" y="188" on="0"/>
        <pt x="113" y="517" on="0"/>
        <pt x="113" y="735" on="1"/>
        <pt x="113" y="905" on="0"/>
        <pt x="199" y="1182" on="0"/>
        <pt x="372" y="1378" on="0"/>
        <pt x="633" y="1485" on="0"/>
        <pt x="809" y="1485" on="1"/>
        <pt x="894" y="1485" on="0"/>
        <pt x="1044" y="1455" on="0"/>
        <pt x="1110" y="1427" on="1"/>
        <pt x="1174" y="1546" on="1"/>
        <pt x="1317" y="1546" on="1"/>
        <pt x="1221" y="1368" on="1"/>
        <pt x="1357" y="1272" on="0"/>
        <pt x="1499" y="948" on="0"/>
      </contour>
      <contour>
        <pt x="457" y="733" on="1"/>
        <pt x="457" y="605" on="0"/>
        <pt x="485" y="401" on="0"/>
        <pt x="516" y="324" on="1"/>
        <pt x="1022" y="1266" on="1"/>
        <pt x="984" y="1308" on="0"/>
        <pt x="877" y="1352" on="0"/>
        <pt x="809" y="1352" on="1"/>
        <pt x="713" y="1352" on="0"/>
        <pt x="579" y="1269" on="0"/>
        <pt x="495" y="1110" on="0"/>
        <pt x="457" y="880" on="0"/>
      </contour>
      <contour>
        <pt x="1155" y="733" on="1"/>
        <pt x="1155" y="860" on="0"/>
        <pt x="1127" y="1063" on="0"/>
        <pt x="1098" y="1141" on="1"/>
        <pt x="592" y="197" on="1"/>
        <pt x="632" y="155" on="0"/>
        <pt x="738" y="113" on="0"/>
        <pt x="807" y="113" on="1"/>
        <pt x="903" y="113" on="0"/>
        <pt x="1036" y="197" on="0"/>
        <pt x="1118" y="356" on="0"/>
        <pt x="1155" y="586" on="0"/>
      </contour>
    </TTGlyph>
    <TTGlyph name="Oslashacute" xMin="113" yMin="-82" xMax="1499" yMax="1907">
      <component glyphName="Oslash" x="0" y="0" flags="0x204"/>
      <component glyphName="acute" x="336" y="338" flags="0x4"/>
    </TTGlyph>
    <TTGlyph name="Otilde" xMin="113" yMin="-20" xMax="1499" yMax="1903">
      <component glyphName="O" x="0" y="0" flags="0x204"/>
      <component glyphName="tilde" x="213" y="338" flags="0x4"/>
    </TTGlyph>
    <TTGlyph name="P" xMin="57" yMin="0" xMax="1245" yMax="1462">
      <contour>
        <pt x="1245" y="1028" on="1"/>
        <pt x="1245" y="936" on="0"/>
        <pt x="1181" y="766" on="0"/>
        <pt x="1037" y="636" on="0"/>
        <pt x="807" y="559" on="0"/>
        <pt x="641" y="559" on="1"/>
        <pt x="571" y="559" on="1"/>
        <pt x="571" y="231" on="1"/>
        <pt x="571" y="191" on="0"/>
        <pt x="589" y="142" on="0"/>
        <pt x="619" y="117" on="0"/>
        <pt x="659" y="109" on="0"/>
        <pt x="680" y="109" on="1"/>
        <pt x="805" y="109" on="1"/>
        <pt x="805" y="0" on="1"/>
        <pt x="57" y="0" on="1"/>
        <pt x="57" y="109" on="1"/>
        <pt x="143" y="109" on="1"/>
        <pt x="166" y="109" on="0"/>
        <pt x="204" y="118" on="0"/>
        <pt x="232" y="146" on="0"/>
        <pt x="248" y="198" on="0"/>
        <pt x="248" y="242" on="1"/>
        <pt x="248" y="1229" on="1"/>
        <pt x="248" y="1270" on="0"/>
        <pt x="232" y="1319" on="0"/>
        <pt x="203" y="1345" on="0"/>
        <pt x="165" y="1354" on="0"/>
        <pt x="143" y="1354" on="1"/>
        <pt x="57" y="1354" on="1"/>
        <pt x="57" y="1462" on="1"/>
        <pt x="686" y="1462" on="1"/>
        <pt x="828" y="1462" on="0"/>
        <pt x="1038" y="1402" on="0"/>
        <pt x="1177" y="1289" on="0"/>
        <pt x="1245" y="1129" on="0"/>
      </contour>
      <contour>
        <pt x="571" y="678" on="1"/>
        <pt x="621" y="678" on="1"/>
        <pt x="697" y="678" on="0"/>
        <pt x="803" y="716" on="0"/>
        <pt x="870" y="798" on="0"/>
        <pt x="901" y="928" on="0"/>
        <pt x="901" y="1020" on="1"/>
        <pt x="901" y="1102" on="0"/>
        <pt x="874" y="1223" on="0"/>
        <pt x="815" y="1302" on="0"/>
        <pt x="720" y="1341" on="0"/>
        <pt x="651" y="1341" on="1"/>
        <pt x="571" y="1341" on="1"/>
      </contour>
    </TTGlyph>
    <TTGlyph name="Phi" xMin="61" yMin="0" xMax="1679" yMax="1462">
      <contour>
        <pt x="1020" y="393" on="1"/>
        <pt x="1079" y="393" on="1"/>
        <pt x="1157" y="393" on="0"/>
        <pt x="1267" y="432" on="0"/>
        <pt x="1337" y="518" on="0"/>
        <pt x="1370" y="655" on="0"/>
        <pt x="1370" y="752" on="1"/>
        <pt x="1370" y="838" on="0"/>
        <pt x="1342" y="964" on="0"/>
        <pt x="1279" y="1047" on="0"/>
        <pt x="1178" y="1087" on="0"/>
        <pt x="1106" y="1087" on="1"/>
        <pt x="1020" y="1087" on="1"/>
      </contour>
      <contour>
        <pt x="721" y="1087" on="1"/>
        <pt x="635" y="1087" on="1"/>
        <pt x="563" y="1087" on="0"/>
        <pt x="462" y="1047" on="0"/>
        <pt x="399" y="964" on="0"/>
        <pt x="371" y="838" on="0"/>
        <pt x="371" y="752" on="1"/>
        <pt x="371" y="655" on="0"/>
        <pt x="404" y="518" on="0"/>
        <pt x="474" y="432" on="0"/>
        <pt x="584" y="393" on="0"/>
        <pt x="662" y="393" on="1"/>
        <pt x="721" y="393" on="1"/>
      </contour>
      <contour>
        <pt x="721" y="274" on="1"/>
        <pt x="657" y="274" on="1"/>
        <pt x="547" y="274" on="0"/>
        <pt x="373" y="312" on="0"/>
        <pt x="241" y="379" on="0"/>
        <pt x="147" y="472" on="0"/>
        <pt x="88" y="580" on="0"/>
        <pt x="61" y="699" on="0"/>
        <pt x="61" y="760" on="1"/>
        <pt x="61" y="860" on="0"/>
        <pt x="127" y="1025" on="0"/>
        <pt x="263" y="1143" on="0"/>
        <pt x="469" y="1208" on="0"/>
        <pt x="608" y="1208" on="1"/>
        <pt x="721" y="1208" on="1"/>
        <pt x="721" y="1229" on="1"/>
        <pt x="721" y="1270" on="0"/>
        <pt x="694" y="1319" on="0"/>
        <pt x="649" y="1345" on="0"/>
        <pt x="588" y="1354" on="0"/>
        <pt x="553" y="1354" on="1"/>
        <pt x="526" y="1354" on="1"/>
        <pt x="526" y="1462" on="1"/>
        <pt x="1214" y="1462" on="1"/>
        <pt x="1214" y="1354" on="1"/>
        <pt x="1188" y="1354" on="1"/>
        <pt x="1154" y="1354" on="0"/>
        <pt x="1092" y="1345" on="0"/>
        <pt x="1047" y="1319" on="0"/>
        <pt x="1020" y="1270" on="0"/>
        <pt x="1020" y="1229" on="1"/>
        <pt x="1020" y="1208" on="1"/>
        <pt x="1133" y="1208" on="1"/>
        <pt x="1273" y="1208" on="0"/>
        <pt x="1478" y="1143" on="0"/>
        <pt x="1613" y="1025" on="0"/>
        <pt x="1679" y="860" on="0"/>
        <pt x="1679" y="760" on="1"/>
        <pt x="1679" y="699" on="0"/>
        <pt x="1652" y="580" on="0"/>
        <pt x="1593" y="472" on="0"/>
        <pt x="1500" y="379" on="0"/>
        <pt x="1367" y="312" on="0"/>
        <pt x="1193" y="274" on="0"/>
        <pt x="1083" y="274" on="1"/>
        <pt x="1020" y="274" on="1"/>
        <pt x="1020" y="233" on="1"/>
        <pt x="1020" y="193" on="0"/>
        <pt x="1047" y="144" on="0"/>
        <pt x="1092" y="117" on="0"/>
        <pt x="1154" y="109" on="0"/>
        <pt x="1188" y="109" on="1"/>
        <pt x="1214" y="109" on="1"/>
        <pt x="1214" y="0" on="1"/>
        <pt x="526" y="0" on="1"/>
        <pt x="526" y="109" on="1"/>
        <pt x="553" y="109" on="1"/>
        <pt x="588" y="109" on="0"/>
        <pt x="649" y="117" on="0"/>
        <pt x="694" y="144" on="0"/>
        <pt x="721" y="193" on="0"/>
        <pt x="721" y="233" on="1"/>
      </contour>
    </TTGlyph>
    <TTGlyph name="Pi" xMin="57" yMin="0" xMax="1599" yMax="1462">
      <contour>
        <pt x="893" y="0" on="1"/>
        <pt x="893" y="109" on="1"/>
        <pt x="981" y="109" on="1"/>
        <pt x="1002" y="109" on="0"/>
        <pt x="1040" y="118" on="0"/>
        <pt x="1069" y="146" on="0"/>
        <pt x="1085" y="198" on="0"/>
        <pt x="1085" y="242" on="1"/>
        <pt x="1085" y="1337" on="1"/>
        <pt x="571" y="1337" on="1"/>
        <pt x="571" y="242" on="1"/>
        <pt x="571" y="198" on="0"/>
        <pt x="588" y="146" on="0"/>
        <pt x="616" y="118" on="0"/>
        <pt x="654" y="109" on="0"/>
        <pt x="676" y="109" on="1"/>
        <pt x="764" y="109" on="1"/>
        <pt x="764" y="0" on="1"/>
        <pt x="57" y="0" on="1"/>
        <pt x="57" y="109" on="1"/>
        <pt x="143" y="109" on="1"/>
        <pt x="165" y="109" on="0"/>
        <pt x="203" y="118" on="0"/>
        <pt x="232" y="146" on="0"/>
        <pt x="248" y="198" on="0"/>
        <pt x="248" y="242" on="1"/>
        <pt x="248" y="1229" on="1"/>
        <pt x="248" y="1270" on="0"/>
        <pt x="231" y="1319" on="0"/>
        <pt x="202" y="1345" on="0"/>
        <pt x="164" y="1354" on="0"/>
        <pt x="143" y="1354" on="1"/>
        <pt x="57" y="1354" on="1"/>
        <pt x="57" y="1462" on="1"/>
        <pt x="1599" y="1462" on="1"/>
        <pt x="1599" y="1354" on="1"/>
        <pt x="1513" y="1354" on="1"/>
        <pt x="1492" y="1354" on="0"/>
        <pt x="1454" y="1345" on="0"/>
        <pt x="1425" y="1317" on="0"/>
        <pt x="1409" y="1265" on="0"/>
        <pt x="1409" y="1221" on="1"/>
        <pt x="1409" y="231" on="1"/>
        <pt x="1409" y="191" on="0"/>
        <pt x="1426" y="142" on="0"/>
        <pt x="1455" y="117" on="0"/>
        <pt x="1492" y="109" on="0"/>
        <pt x="1513" y="109" on="1"/>
        <pt x="1599" y="109" on="1"/>
        <pt x="1599" y="0" on="1"/>
      </contour>
    </TTGlyph>
    <TTGlyph name="Psi" xMin="45" yMin="0" xMax="1950" yMax="1462">
      <contour>
        <pt x="770" y="487" on="1"/>
        <pt x="655" y="487" on="0"/>
        <pt x="483" y="522" on="0"/>
        <pt x="359" y="585" on="0"/>
        <pt x="278" y="672" on="0"/>
        <pt x="231" y="775" on="0"/>
        <pt x="213" y="891" on="0"/>
        <pt x="213" y="952" on="1"/>
        <pt x="213" y="1206" on="1"/>
        <pt x="213" y="1254" on="0"/>
        <pt x="186" y="1313" on="0"/>
        <pt x="141" y="1344" on="0"/>
        <pt x="80" y="1354" on="0"/>
        <pt x="45" y="1354" on="1"/>
        <pt x="45" y="1462" on="1"/>
        <pt x="512" y="1462" on="1"/>
        <pt x="512" y="979" on="1"/>
        <pt x="512" y="882" on="0"/>
        <pt x="537" y="741" on="0"/>
        <pt x="601" y="649" on="0"/>
        <pt x="715" y="606" on="0"/>
        <pt x="803" y="606" on="1"/>
        <pt x="848" y="606" on="1"/>
        <pt x="848" y="1227" on="1"/>
        <pt x="848" y="1268" on="0"/>
        <pt x="821" y="1317" on="0"/>
        <pt x="776" y="1345" on="0"/>
        <pt x="715" y="1354" on="0"/>
        <pt x="680" y="1354" on="1"/>
        <pt x="653" y="1354" on="1"/>
        <pt x="653" y="1462" on="1"/>
        <pt x="1341" y="1462" on="1"/>
        <pt x="1341" y="1354" on="1"/>
        <pt x="1315" y="1354" on="1"/>
        <pt x="1281" y="1354" on="0"/>
        <pt x="1219" y="1345" on="0"/>
        <pt x="1174" y="1317" on="0"/>
        <pt x="1147" y="1268" on="0"/>
        <pt x="1147" y="1227" on="1"/>
        <pt x="1147" y="606" on="1"/>
        <pt x="1192" y="606" on="1"/>
        <pt x="1280" y="606" on="0"/>
        <pt x="1393" y="649" on="0"/>
        <pt x="1458" y="741" on="0"/>
        <pt x="1483" y="882" on="0"/>
        <pt x="1483" y="979" on="1"/>
        <pt x="1483" y="1462" on="1"/>
        <pt x="1950" y="1462" on="1"/>
        <pt x="1950" y="1354" on="1"/>
        <pt x="1916" y="1354" on="0"/>
        <pt x="1854" y="1344" on="0"/>
        <pt x="1809" y="1313" on="0"/>
        <pt x="1782" y="1254" on="0"/>
        <pt x="1782" y="1206" on="1"/>
        <pt x="1782" y="952" on="1"/>
        <pt x="1782" y="891" on="0"/>
        <pt x="1764" y="775" on="0"/>
        <pt x="1717" y="672" on="0"/>
        <pt x="1636" y="585" on="0"/>
        <pt x="1512" y="522" on="0"/>
        <pt x="1340" y="487" on="0"/>
        <pt x="1225" y="487" on="1"/>
        <pt x="1147" y="487" on="1"/>
        <pt x="1147" y="233" on="1"/>
        <pt x="1147" y="193" on="0"/>
        <pt x="1174" y="144" on="0"/>
        <pt x="1219" y="117" on="0"/>
        <pt x="1281" y="109" on="0"/>
        <pt x="1315" y="109" on="1"/>
        <pt x="1341" y="109" on="1"/>
        <pt x="1341" y="0" on="1"/>
        <pt x="653" y="0" on="1"/>
        <pt x="653" y="109" on="1"/>
        <pt x="680" y="109" on="1"/>
        <pt x="715" y="109" on="0"/>
        <pt x="776" y="117" on="0"/>
        <pt x="821" y="144" on="0"/>
        <pt x="848" y="193" on="0"/>
        <pt x="848" y="233" on="1"/>
        <pt x="848" y="487" on="1"/>
      </contour>
    </TTGlyph>
    <TTGlyph name="Q" xMin="113" yMin="-492" xMax="1499" yMax="1485">
      <contour>
        <pt x="1499" y="733" on="1"/>
        <pt x="1499" y="589" on="0"/>
        <pt x="1434" y="346" on="0"/>
        <pt x="1308" y="158" on="0"/>
        <pt x="1122" y="29" on="0"/>
        <pt x="1001" y="0" on="1"/>
        <pt x="1010" y="-113" on="0"/>
        <pt x="1066" y="-258" on="0"/>
        <pt x="1147" y="-341" on="0"/>
        <pt x="1245" y="-373" on="0"/>
        <pt x="1296" y="-373" on="1"/>
        <pt x="1329" y="-373" on="1"/>
        <pt x="1329" y="-492" on="1"/>
        <pt x="1182" y="-492" on="1"/>
        <pt x="1090" y="-492" on="0"/>
        <pt x="911" y="-438" on="0"/>
        <pt x="766" y="-321" on="0"/>
        <pt x="669" y="-138" on="0"/>
        <pt x="659" y="-8" on="1"/>
        <pt x="521" y="13" on="0"/>
        <pt x="316" y="138" on="0"/>
        <pt x="180" y="330" on="0"/>
        <pt x="113" y="584" on="0"/>
        <pt x="113" y="735" on="1"/>
        <pt x="113" y="905" on="0"/>
        <pt x="199" y="1182" on="0"/>
        <pt x="372" y="1378" on="0"/>
        <pt x="633" y="1485" on="0"/>
        <pt x="809" y="1485" on="1"/>
        <pt x="975" y="1485" on="0"/>
        <pt x="1232" y="1378" on="0"/>
        <pt x="1408" y="1181" on="0"/>
        <pt x="1499" y="904" on="0"/>
      </contour>
      <contour>
        <pt x="457" y="733" on="1"/>
        <pt x="457" y="586" on="0"/>
        <pt x="495" y="356" on="0"/>
        <pt x="579" y="197" on="0"/>
        <pt x="712" y="113" on="0"/>
        <pt x="807" y="113" on="1"/>
        <pt x="903" y="113" on="0"/>
        <pt x="1036" y="197" on="0"/>
        <pt x="1118" y="356" on="0"/>
        <pt x="1155" y="586" on="0"/>
        <pt x="1155" y="733" on="1"/>
        <pt x="1155" y="880" on="0"/>
        <pt x="1118" y="1110" on="0"/>
        <pt x="1036" y="1269" on="0"/>
        <pt x="904" y="1352" on="0"/>
        <pt x="809" y="1352" on="1"/>
        <pt x="713" y="1352" on="0"/>
        <pt x="579" y="1269" on="0"/>
        <pt x="495" y="1110" on="0"/>
        <pt x="457" y="880" on="0"/>
      </contour>
    </TTGlyph>
    <TTGlyph name="R" xMin="57" yMin="0" xMax="1456" yMax="1462">
      <contour>
        <pt x="57" y="109" on="1"/>
        <pt x="143" y="109" on="1"/>
        <pt x="164" y="109" on="0"/>
        <pt x="202" y="117" on="0"/>
        <pt x="231" y="142" on="0"/>
        <pt x="248" y="191" on="0"/>
        <pt x="248" y="231" on="1"/>
        <pt x="248" y="1229" on="1"/>
        <pt x="248" y="1270" on="0"/>
        <pt x="231" y="1319" on="0"/>
        <pt x="202" y="1345" on="0"/>
        <pt x="164" y="1354" on="0"/>
        <pt x="143" y="1354" on="1"/>
        <pt x="57" y="1354" on="1"/>
        <pt x="57" y="1462" on="1"/>
        <pt x="717" y="1462" on="1"/>
        <pt x="1007" y="1462" on="0"/>
        <pt x="1278" y="1268" on="0"/>
        <pt x="1278" y="1083" on="1"/>
        <pt x="1278" y="1002" on="0"/>
        <pt x="1230" y="876" on="0"/>
        <pt x="1151" y="782" on="0"/>
        <pt x="1051" y="717" on="0"/>
        <pt x="999" y="696" on="1"/>
        <pt x="1243" y="276" on="1"/>
        <pt x="1269" y="232" on="0"/>
        <pt x="1318" y="169" on="0"/>
        <pt x="1367" y="128" on="0"/>
        <pt x="1419" y="109" on="0"/>
        <pt x="1448" y="109" on="1"/>
        <pt x="1456" y="109" on="1"/>
        <pt x="1456" y="0" on="1"/>
        <pt x="1389" y="0" on="1"/>
        <pt x="1297" y="0" on="0"/>
        <pt x="1160" y="14" on="0"/>
        <pt x="1057" y="55" on="0"/>
        <pt x="982" y="127" on="0"/>
        <pt x="950" y="184" on="1"/>
        <pt x="707" y="635" on="1"/>
        <pt x="571" y="635" on="1"/>
        <pt x="571" y="231" on="1"/>
        <pt x="571" y="191" on="0"/>
        <pt x="588" y="142" on="0"/>
        <pt x="617" y="117" on="0"/>
        <pt x="655" y="109" on="0"/>
        <pt x="676" y="109" on="1"/>
        <pt x="764" y="109" on="1"/>
        <pt x="764" y="0" on="1"/>
        <pt x="57" y="0" on="1"/>
      </contour>
      <contour>
        <pt x="571" y="754" on="1"/>
        <pt x="686" y="754" on="1"/>
        <pt x="757" y="754" on="0"/>
        <pt x="852" y="792" on="0"/>
        <pt x="909" y="867" on="0"/>
        <pt x="934" y="980" on="0"/>
        <pt x="934" y="1055" on="1"/>
        <pt x="934" y="1133" on="0"/>
        <pt x="906" y="1241" on="0"/>
        <pt x="846" y="1310" on="0"/>
        <pt x="750" y="1341" on="0"/>
        <pt x="682" y="1341" on="1"/>
        <pt x="571" y="1341" on="1"/>
      </contour>
    </TTGlyph>
    <TTGlyph name="Racute" xMin="57" yMin="0" xMax="1456" yMax="1907">
      <component glyphName="R" x="0" y="0" flags="0x204"/>
      <component glyphName="acute" x="219" y="338" flags="0x4"/>
    </TTGlyph>
    <TTGlyph name="Rcaron" xMin="57" yMin="0" xMax="1456" yMax="1907">
      <component glyphName="R" x="0" y="0" flags="0x204"/>
      <component glyphName="caron" x="80" y="338" flags="0x4"/>
    </TTGlyph>
    <TTGlyph name="Rcommaaccent" xMin="57" yMin="-453" xMax="1456" yMax="1462">
      <component glyphName="R" x="0" y="0" flags="0x204"/>
      <component glyphName="glyph00569" x="195" y="0" flags="0x4"/>
    </TTGlyph>
    <TTGlyph name="Rho" xMin="57" yMin="0" xMax="1245" yMax="1462">
      <component glyphName="P" x="0" y="0" flags="0x204"/>
    </TTGlyph>
    <TTGlyph name="S" xMin="61" yMin="-20" xMax="1098" yMax="1483">
      <contour>
        <pt x="541" y="-20" on="1"/>
        <pt x="403" y="-20" on="0"/>
        <pt x="219" y="32" on="0"/>
        <pt x="108" y="114" on="0"/>
        <pt x="61" y="216" on="0"/>
        <pt x="61" y="266" on="1"/>
        <pt x="61" y="319" on="0"/>
        <pt x="100" y="391" on="0"/>
        <pt x="165" y="437" on="0"/>
        <pt x="248" y="457" on="0"/>
        <pt x="293" y="457" on="1"/>
        <pt x="293" y="369" on="0"/>
        <pt x="335" y="236" on="0"/>
        <pt x="409" y="147" on="0"/>
        <pt x="512" y="102" on="0"/>
        <pt x="573" y="102" on="1"/>
        <pt x="633" y="102" on="0"/>
        <pt x="727" y="136" on="0"/>
        <pt x="793" y="196" on="0"/>
        <pt x="827" y="277" on="0"/>
        <pt x="827" y="324" on="1"/>
        <pt x="827" y="376" on="0"/>
        <pt x="785" y="457" on="0"/>
        <pt x="700" y="526" on="0"/>
        <pt x="571" y="589" on="0"/>
        <pt x="485" y="625" on="1"/>
        <pt x="378" y="669" on="0"/>
        <pt x="231" y="762" on="0"/>
        <pt x="141" y="870" on="0"/>
        <pt x="102" y="996" on="0"/>
        <pt x="102" y="1071" on="1"/>
        <pt x="102" y="1165" on="0"/>
        <pt x="178" y="1317" on="0"/>
        <pt x="312" y="1425" on="0"/>
        <pt x="496" y="1483" on="0"/>
        <pt x="604" y="1483" on="1"/>
        <pt x="717" y="1483" on="0"/>
        <pt x="881" y="1446" on="0"/>
        <pt x="988" y="1382" on="0"/>
        <pt x="1040" y="1295" on="0"/>
        <pt x="1040" y="1245" on="1"/>
        <pt x="1040" y="1209" on="0"/>
        <pt x="1009" y="1147" on="0"/>
        <pt x="946" y="1101" on="0"/>
        <pt x="851" y="1075" on="0"/>
        <pt x="788" y="1075" on="1"/>
        <pt x="788" y="1118" on="0"/>
        <pt x="765" y="1217" on="0"/>
        <pt x="713" y="1302" on="0"/>
        <pt x="630" y="1358" on="0"/>
        <pt x="571" y="1358" on="1"/>
        <pt x="530" y="1358" on="0"/>
        <pt x="456" y="1334" on="0"/>
        <pt x="401" y="1286" on="0"/>
        <pt x="369" y="1215" on="0"/>
        <pt x="369" y="1169" on="1"/>
        <pt x="369" y="1126" on="0"/>
        <pt x="397" y="1050" on="0"/>
        <pt x="472" y="977" on="0"/>
        <pt x="603" y="904" on="0"/>
        <pt x="707" y="862" on="1"/>
        <pt x="812" y="819" on="0"/>
        <pt x="960" y="729" on="0"/>
        <pt x="1055" y="626" on="0"/>
        <pt x="1098" y="503" on="0"/>
        <pt x="1098" y="428" on="1"/>
        <pt x="1098" y="329" on="0"/>
        <pt x="1020" y="164" on="0"/>
        <pt x="874" y="46" on="0"/>
        <pt x="669" y="-20" on="0"/>
      </contour>
    </TTGlyph>
    <TTGlyph name="SF010000" xMin="653" yMin="-492" xMax="1460" yMax="823">
      <contour>
        <pt x="653" y="823" on="1"/>
        <pt x="1460" y="823" on="1"/>
        <pt x="1460" y="678" on="1"/>
        <pt x="799" y="678" on="1"/>
        <pt x="799" y="-492" on="1"/>
        <pt x="653" y="-492" on="1"/>
      </contour>
    </TTGlyph>
    <TTGlyph name="SF020000" xMin="653" yMin="678" xMax="1460" yMax="1993">
      <contour>
        <pt x="653" y="1993" on="1"/>
        <pt x="799" y="1993" on="1"/>
        <pt x="799" y="823" on="1"/>
        <pt x="1460" y="823" on="1"/>
        <pt x="1460" y="678" on="1"/>
        <pt x="653" y="678" on="1"/>
      </contour>
    </TTGlyph>
    <TTGlyph name="SF030000" xMin="-10" yMin="-492" xMax="799" yMax="823">
      <contour>
        <pt x="-10" y="678" on="1"/>
        <pt x="-10" y="823" on="1"/>
        <pt x="799" y="823" on="1"/>
        <pt x="799" y="-492" on="1"/>
        <pt x="653" y="-492" on="1"/>
        <pt x="653" y="678" on="1"/>
      </contour>
    </TTGlyph>
    <TTGlyph name="SF040000" xMin="-10" yMin="678" xMax="799" yMax="1993">
      <contour>
        <pt x="-10" y="678" on="1"/>
        <pt x="-10" y="823" on="1"/>
        <pt x="653" y="823" on="1"/>
        <pt x="653" y="1993" on="1"/>
        <pt x="799" y="1993" on="1"/>
        <pt x="799" y="678" on="1"/>
      </contour>
    </TTGlyph>
    <TTGlyph name="SF050000" xMin="-10" yMin="-492" xMax="1460" yMax="1993">
      <contour>
        <pt x="-10" y="678" on="1"/>
        <pt x="-10" y="823" on="1"/>
        <pt x="653" y="823" on="1"/>
        <pt x="653" y="1993" on="1"/>
        <pt x="799" y="1993" on="1"/>
        <pt x="799" y="823" on="1"/>
        <pt x="1460" y="823" on="1"/>
        <pt x="1460" y="678" on="1"/>
        <pt x="799" y="678" on="1"/>
        <pt x="799" y="-492" on="1"/>
        <pt x="653" y="-492" on="1"/>
        <pt x="653" y="678" on="1"/>
      </contour>
    </TTGlyph>
    <TTGlyph name="SF060000" xMin="-10" yMin="-492" xMax="1460" yMax="823">
      <contour>
        <pt x="-10" y="678" on="1"/>
        <pt x="-10" y="823" on="1"/>
        <pt x="1460" y="823" on="1"/>
        <pt x="1460" y="678" on="1"/>
        <pt x="799" y="678" on="1"/>
        <pt x="799" y="-492" on="1"/>
        <pt x="653" y="-492" on="1"/>
        <pt x="653" y="678" on="1"/>
      </contour>
    </TTGlyph>
    <TTGlyph name="SF070000" xMin="-10" yMin="678" xMax="1460" yMax="1993">
      <contour>
        <pt x="-10" y="678" on="1"/>
        <pt x="-10" y="823" on="1"/>
        <pt x="653" y="823" on="1"/>
        <pt x="653" y="1993" on="1"/>
        <pt x="799" y="1993" on="1"/>
        <pt x="799" y="823" on="1"/>
        <pt x="1460" y="823" on="1"/>
        <pt x="1460" y="678" on="1"/>
      </contour>
    </TTGlyph>
    <TTGlyph name="SF080000" xMin="653" yMin="-492" xMax="1460" yMax="1993">
      <contour>
        <pt x="653" y="1993" on="1"/>
        <pt x="799" y="1993" on="1"/>
        <pt x="799" y="823" on="1"/>
        <pt x="1460" y="823" on="1"/>
        <pt x="1460" y="678" on="1"/>
        <pt x="799" y="678" on="1"/>
        <pt x="799" y="-492" on="1"/>
        <pt x="653" y="-492" on="1"/>
      </contour>
    </TTGlyph>
    <TTGlyph name="SF090000" xMin="-10" yMin="-492" xMax="799" yMax="1993">
      <contour>
        <pt x="-10" y="678" on="1"/>
        <pt x="-10" y="823" on="1"/>
        <pt x="653" y="823" on="1"/>
        <pt x="653" y="1993" on="1"/>
        <pt x="799" y="1993" on="1"/>
        <pt x="799" y="-492" on="1"/>
        <pt x="653" y="-492" on="1"/>
        <pt x="653" y="678" on="1"/>
      </contour>
    </TTGlyph>
    <TTGlyph name="SF100000" xMin="-10" yMin="678" xMax="1460" yMax="823">
      <contour>
        <pt x="-10" y="678" on="1"/>
        <pt x="-10" y="823" on="1"/>
        <pt x="1460" y="823" on="1"/>
        <pt x="1460" y="678" on="1"/>
      </contour>
    </TTGlyph>
    <TTGlyph name="SF110000" xMin="471" yMin="-492" xMax="616" yMax="1993">
      <contour>
        <pt x="471" y="1993" on="1"/>
        <pt x="616" y="1993" on="1"/>
        <pt x="616" y="-492" on="1"/>
        <pt x="471" y="-492" on="1"/>
      </contour>
    </TTGlyph>
    <TTGlyph name="SF190000" xMin="-10" yMin="-492" xMax="799" yMax="1993">
      <contour>
        <pt x="-10" y="498" on="1"/>
        <pt x="-10" y="643" on="1"/>
        <pt x="653" y="643" on="1"/>
        <pt x="653" y="858" on="1"/>
        <pt x="-10" y="858" on="1"/>
        <pt x="-10" y="1004" on="1"/>
        <pt x="653" y="1004" on="1"/>
        <pt x="653" y="1993" on="1"/>
        <pt x="799" y="1993" on="1"/>
        <pt x="799" y="-492" on="1"/>
        <pt x="653" y="-492" on="1"/>
        <pt x="653" y="498" on="1"/>
      </contour>
    </TTGlyph>
    <TTGlyph name="SF200000" xMin="-10" yMin="-492" xMax="979" yMax="1993">
      <contour>
        <pt x="-10" y="678" on="1"/>
        <pt x="-10" y="823" on="1"/>
        <pt x="473" y="823" on="1"/>
        <pt x="473" y="1993" on="1"/>
        <pt x="618" y="1993" on="1"/>
        <pt x="618" y="-492" on="1"/>
        <pt x="473" y="-492" on="1"/>
        <pt x="473" y="678" on="1"/>
      </contour>
      <contour>
        <pt x="834" y="1993" on="1"/>
        <pt x="979" y="1993" on="1"/>
        <pt x="979" y="-492" on="1"/>
        <pt x="834" y="-492" on="1"/>
      </contour>
    </TTGlyph>
    <TTGlyph name="SF210000" xMin="-10" yMin="-492" xMax="979" yMax="823">
      <contour>
        <pt x="-10" y="678" on="1"/>
        <pt x="-10" y="823" on="1"/>
        <pt x="979" y="823" on="1"/>
        <pt x="979" y="-492" on="1"/>
        <pt x="834" y="-492" on="1"/>
        <pt x="834" y="678" on="1"/>
        <pt x="618" y="678" on="1"/>
        <pt x="618" y="-492" on="1"/>
        <pt x="473" y="-492" on="1"/>
        <pt x="473" y="678" on="1"/>
      </contour>
    </TTGlyph>
    <TTGlyph name="SF220000" xMin="-10" yMin="-492" xMax="799" yMax="1004">
      <contour>
        <pt x="-10" y="498" on="1"/>
        <pt x="-10" y="643" on="1"/>
        <pt x="653" y="643" on="1"/>
        <pt x="653" y="858" on="1"/>
        <pt x="-10" y="858" on="1"/>
        <pt x="-10" y="1004" on="1"/>
        <pt x="799" y="1004" on="1"/>
        <pt x="799" y="-492" on="1"/>
        <pt x="653" y="-492" on="1"/>
        <pt x="653" y="498" on="1"/>
      </contour>
    </TTGlyph>
    <TTGlyph name="SF230000" xMin="-10" yMin="-492" xMax="979" yMax="1993">
      <contour>
        <pt x="834" y="1993" on="1"/>
        <pt x="979" y="1993" on="1"/>
        <pt x="979" y="-492" on="1"/>
        <pt x="834" y="-492" on="1"/>
      </contour>
      <contour>
        <pt x="473" y="1993" on="1"/>
        <pt x="618" y="1993" on="1"/>
        <pt x="618" y="858" on="1"/>
        <pt x="-10" y="858" on="1"/>
        <pt x="-10" y="1004" on="1"/>
        <pt x="473" y="1004" on="1"/>
      </contour>
      <contour>
        <pt x="618" y="-492" on="1"/>
        <pt x="473" y="-492" on="1"/>
        <pt x="473" y="498" on="1"/>
        <pt x="-10" y="498" on="1"/>
        <pt x="-10" y="643" on="1"/>
        <pt x="618" y="643" on="1"/>
      </contour>
    </TTGlyph>
    <TTGlyph name="SF240000" xMin="473" yMin="-492" xMax="979" yMax="1993">
      <contour>
        <pt x="473" y="1993" on="1"/>
        <pt x="618" y="1993" on="1"/>
        <pt x="618" y="-492" on="1"/>
        <pt x="473" y="-492" on="1"/>
      </contour>
      <contour>
        <pt x="834" y="1993" on="1"/>
        <pt x="979" y="1993" on="1"/>
        <pt x="979" y="-492" on="1"/>
        <pt x="834" y="-492" on="1"/>
      </contour>
    </TTGlyph>
    <TTGlyph name="SF250000" xMin="-10" yMin="-492" xMax="979" yMax="1004">
      <contour>
        <pt x="979" y="1004" on="1"/>
        <pt x="979" y="-492" on="1"/>
        <pt x="834" y="-492" on="1"/>
        <pt x="834" y="858" on="1"/>
        <pt x="-10" y="858" on="1"/>
        <pt x="-10" y="1004" on="1"/>
      </contour>
      <contour>
        <pt x="618" y="-492" on="1"/>
        <pt x="473" y="-492" on="1"/>
        <pt x="473" y="498" on="1"/>
        <pt x="-10" y="498" on="1"/>
        <pt x="-10" y="643" on="1"/>
        <pt x="618" y="643" on="1"/>
      </contour>
    </TTGlyph>
    <TTGlyph name="SF260000" xMin="-10" yMin="498" xMax="979" yMax="1993">
      <contour>
        <pt x="979" y="498" on="1"/>
        <pt x="-10" y="498" on="1"/>
        <pt x="-10" y="643" on="1"/>
        <pt x="834" y="643" on="1"/>
        <pt x="834" y="1993" on="1"/>
        <pt x="979" y="1993" on="1"/>
      </contour>
      <contour>
        <pt x="473" y="1993" on="1"/>
        <pt x="618" y="1993" on="1"/>
        <pt x="618" y="858" on="1"/>
        <pt x="-10" y="858" on="1"/>
        <pt x="-10" y="1004" on="1"/>
        <pt x="473" y="1004" on="1"/>
      </contour>
    </TTGlyph>
    <TTGlyph name="SF270000" xMin="-10" yMin="678" xMax="979" yMax="1993">
      <contour>
        <pt x="979" y="678" on="1"/>
        <pt x="-10" y="678" on="1"/>
        <pt x="-10" y="823" on="1"/>
        <pt x="473" y="823" on="1"/>
        <pt x="473" y="1993" on="1"/>
        <pt x="618" y="1993" on="1"/>
        <pt x="618" y="823" on="1"/>
        <pt x="834" y="823" on="1"/>
        <pt x="834" y="1993" on="1"/>
        <pt x="979" y="1993" on="1"/>
      </contour>
    </TTGlyph>
    <TTGlyph name="SF280000" xMin="-10" yMin="498" xMax="799" yMax="1993">
      <contour>
        <pt x="-10" y="498" on="1"/>
        <pt x="-10" y="643" on="1"/>
        <pt x="653" y="643" on="1"/>
        <pt x="653" y="858" on="1"/>
        <pt x="-10" y="858" on="1"/>
        <pt x="-10" y="1004" on="1"/>
        <pt x="653" y="1004" on="1"/>
        <pt x="653" y="1993" on="1"/>
        <pt x="799" y="1993" on="1"/>
        <pt x="799" y="498" on="1"/>
      </contour>
    </TTGlyph>
    <TTGlyph name="SF360000" xMin="653" yMin="-492" xMax="1460" yMax="1993">
      <contour>
        <pt x="653" y="1993" on="1"/>
        <pt x="799" y="1993" on="1"/>
        <pt x="799" y="1004" on="1"/>
        <pt x="1460" y="1004" on="1"/>
        <pt x="1460" y="858" on="1"/>
        <pt x="799" y="858" on="1"/>
        <pt x="799" y="643" on="1"/>
        <pt x="1460" y="643" on="1"/>
        <pt x="1460" y="498" on="1"/>
        <pt x="799" y="498" on="1"/>
        <pt x="799" y="-492" on="1"/>
        <pt x="653" y="-492" on="1"/>
      </contour>
    </TTGlyph>
    <TTGlyph name="SF370000" xMin="473" yMin="-492" xMax="1460" yMax="1993">
      <contour>
        <pt x="834" y="1993" on="1"/>
        <pt x="979" y="1993" on="1"/>
        <pt x="979" y="823" on="1"/>
        <pt x="1460" y="823" on="1"/>
        <pt x="1460" y="678" on="1"/>
        <pt x="979" y="678" on="1"/>
        <pt x="979" y="-492" on="1"/>
        <pt x="834" y="-492" on="1"/>
      </contour>
      <contour>
        <pt x="473" y="1993" on="1"/>
        <pt x="618" y="1993" on="1"/>
        <pt x="618" y="-492" on="1"/>
        <pt x="473" y="-492" on="1"/>
      </contour>
    </TTGlyph>
    <TTGlyph name="SF380000" xMin="473" yMin="498" xMax="1460" yMax="1993">
      <contour>
        <pt x="473" y="1993" on="1"/>
        <pt x="618" y="1993" on="1"/>
        <pt x="618" y="643" on="1"/>
        <pt x="1460" y="643" on="1"/>
        <pt x="1460" y="498" on="1"/>
        <pt x="473" y="498" on="1"/>
      </contour>
      <contour>
        <pt x="834" y="1993" on="1"/>
        <pt x="979" y="1993" on="1"/>
        <pt x="979" y="1004" on="1"/>
        <pt x="1460" y="1004" on="1"/>
        <pt x="1460" y="858" on="1"/>
        <pt x="834" y="858" on="1"/>
      </contour>
    </TTGlyph>
    <TTGlyph name="SF390000" xMin="473" yMin="-492" xMax="1460" yMax="1004">
      <contour>
        <pt x="473" y="1004" on="1"/>
        <pt x="1460" y="1004" on="1"/>
        <pt x="1460" y="858" on="1"/>
        <pt x="618" y="858" on="1"/>
        <pt x="618" y="-492" on="1"/>
        <pt x="473" y="-492" on="1"/>
      </contour>
      <contour>
        <pt x="834" y="643" on="1"/>
        <pt x="1460" y="643" on="1"/>
        <pt x="1460" y="498" on="1"/>
        <pt x="979" y="498" on="1"/>
        <pt x="979" y="-492" on="1"/>
        <pt x="834" y="-492" on="1"/>
      </contour>
    </TTGlyph>
    <TTGlyph name="SF400000" xMin="-10" yMin="498" xMax="1460" yMax="1993">
      <contour>
        <pt x="834" y="1993" on="1"/>
        <pt x="979" y="1993" on="1"/>
        <pt x="979" y="1004" on="1"/>
        <pt x="1460" y="1004" on="1"/>
        <pt x="1460" y="858" on="1"/>
        <pt x="834" y="858" on="1"/>
      </contour>
      <contour>
        <pt x="473" y="1993" on="1"/>
        <pt x="618" y="1993" on="1"/>
        <pt x="618" y="858" on="1"/>
        <pt x="-10" y="858" on="1"/>
        <pt x="-10" y="1004" on="1"/>
        <pt x="473" y="1004" on="1"/>
      </contour>
      <contour>
        <pt x="-10" y="498" on="1"/>
        <pt x="-10" y="643" on="1"/>
        <pt x="1460" y="643" on="1"/>
        <pt x="1460" y="498" on="1"/>
      </contour>
    </TTGlyph>
    <TTGlyph name="SF410000" xMin="-10" yMin="-492" xMax="1460" yMax="1004">
      <contour>
        <pt x="618" y="-492" on="1"/>
        <pt x="473" y="-492" on="1"/>
        <pt x="473" y="498" on="1"/>
        <pt x="-10" y="498" on="1"/>
        <pt x="-10" y="643" on="1"/>
        <pt x="618" y="643" on="1"/>
      </contour>
      <contour>
        <pt x="834" y="643" on="1"/>
        <pt x="1460" y="643" on="1"/>
        <pt x="1460" y="498" on="1"/>
        <pt x="979" y="498" on="1"/>
        <pt x="979" y="-492" on="1"/>
        <pt x="834" y="-492" on="1"/>
      </contour>
      <contour>
        <pt x="1460" y="1004" on="1"/>
        <pt x="1460" y="858" on="1"/>
        <pt x="-10" y="858" on="1"/>
        <pt x="-10" y="1004" on="1"/>
      </contour>
    </TTGlyph>
    <TTGlyph name="SF420000" xMin="473" yMin="-492" xMax="1460" yMax="1993">
      <contour>
        <pt x="618" y="-492" on="1"/>
        <pt x="473" y="-492" on="1"/>
        <pt x="473" y="1993" on="1"/>
        <pt x="618" y="1993" on="1"/>
      </contour>
      <contour>
        <pt x="834" y="643" on="1"/>
        <pt x="1460" y="643" on="1"/>
        <pt x="1460" y="498" on="1"/>
        <pt x="979" y="498" on="1"/>
        <pt x="979" y="-492" on="1"/>
        <pt x="834" y="-492" on="1"/>
      </contour>
      <contour>
        <pt x="834" y="1993" on="1"/>
        <pt x="979" y="1993" on="1"/>
        <pt x="979" y="1004" on="1"/>
        <pt x="1460" y="1004" on="1"/>
        <pt x="1460" y="858" on="1"/>
        <pt x="834" y="858" on="1"/>
      </contour>
    </TTGlyph>
    <TTGlyph name="SF430000" xMin="-10" yMin="498" xMax="1460" yMax="1004">
      <contour>
        <pt x="-10" y="858" on="1"/>
        <pt x="-10" y="1004" on="1"/>
        <pt x="1460" y="1004" on="1"/>
        <pt x="1460" y="858" on="1"/>
      </contour>
      <contour>
        <pt x="-10" y="498" on="1"/>
        <pt x="-10" y="643" on="1"/>
        <pt x="1460" y="643" on="1"/>
        <pt x="1460" y="498" on="1"/>
      </contour>
    </TTGlyph>
    <TTGlyph name="SF440000" xMin="-10" yMin="-492" xMax="1460" yMax="1993">
      <contour>
        <pt x="834" y="1993" on="1"/>
        <pt x="979" y="1993" on="1"/>
        <pt x="979" y="1004" on="1"/>
        <pt x="1460" y="1004" on="1"/>
        <pt x="1460" y="858" on="1"/>
        <pt x="834" y="858" on="1"/>
      </contour>
      <contour>
        <pt x="618" y="-492" on="1"/>
        <pt x="473" y="-492" on="1"/>
        <pt x="473" y="498" on="1"/>
        <pt x="-10" y="498" on="1"/>
        <pt x="-10" y="643" on="1"/>
        <pt x="618" y="643" on="1"/>
      </contour>
      <contour>
        <pt x="834" y="643" on="1"/>
        <pt x="1460" y="643" on="1"/>
        <pt x="1460" y="498" on="1"/>
        <pt x="979" y="498" on="1"/>
        <pt x="979" y="-492" on="1"/>
        <pt x="834" y="-492" on="1"/>
      </contour>
      <contour>
        <pt x="473" y="1993" on="1"/>
        <pt x="618" y="1993" on="1"/>
        <pt x="618" y="858" on="1"/>
        <pt x="-10" y="858" on="1"/>
        <pt x="-10" y="1004" on="1"/>
        <pt x="473" y="1004" on="1"/>
      </contour>
    </TTGlyph>
    <TTGlyph name="SF450000" xMin="-10" yMin="498" xMax="1460" yMax="1993">
      <contour>
        <pt x="-10" y="858" on="1"/>
        <pt x="-10" y="1004" on="1"/>
        <pt x="653" y="1004" on="1"/>
        <pt x="653" y="1993" on="1"/>
        <pt x="799" y="1993" on="1"/>
        <pt x="799" y="1004" on="1"/>
        <pt x="1460" y="1004" on="1"/>
        <pt x="1460" y="858" on="1"/>
      </contour>
      <contour>
        <pt x="-10" y="498" on="1"/>
        <pt x="-10" y="643" on="1"/>
        <pt x="1460" y="643" on="1"/>
        <pt x="1460" y="498" on="1"/>
      </contour>
    </TTGlyph>
    <TTGlyph name="SF460000" xMin="-10" yMin="678" xMax="1460" yMax="1993">
      <contour>
        <pt x="-10" y="678" on="1"/>
        <pt x="-10" y="823" on="1"/>
        <pt x="473" y="823" on="1"/>
        <pt x="473" y="1993" on="1"/>
        <pt x="618" y="1993" on="1"/>
        <pt x="618" y="823" on="1"/>
        <pt x="834" y="823" on="1"/>
        <pt x="834" y="1993" on="1"/>
        <pt x="979" y="1993" on="1"/>
        <pt x="979" y="823" on="1"/>
        <pt x="1460" y="823" on="1"/>
        <pt x="1460" y="678" on="1"/>
      </contour>
    </TTGlyph>
    <TTGlyph name="SF470000" xMin="-10" yMin="-492" xMax="1460" yMax="1004">
      <contour>
        <pt x="-10" y="498" on="1"/>
        <pt x="-10" y="643" on="1"/>
        <pt x="1460" y="643" on="1"/>
        <pt x="1460" y="498" on="1"/>
        <pt x="799" y="498" on="1"/>
        <pt x="799" y="-492" on="1"/>
        <pt x="653" y="-492" on="1"/>
        <pt x="653" y="498" on="1"/>
      </contour>
      <contour>
        <pt x="-10" y="858" on="1"/>
        <pt x="-10" y="1004" on="1"/>
        <pt x="1460" y="1004" on="1"/>
        <pt x="1460" y="858" on="1"/>
      </contour>
    </TTGlyph>
    <TTGlyph name="SF480000" xMin="-10" yMin="-492" xMax="1460" yMax="823">
      <contour>
        <pt x="-10" y="678" on="1"/>
        <pt x="-10" y="823" on="1"/>
        <pt x="1460" y="823" on="1"/>
        <pt x="1460" y="678" on="1"/>
        <pt x="979" y="678" on="1"/>
        <pt x="979" y="-492" on="1"/>
        <pt x="834" y="-492" on="1"/>
        <pt x="834" y="678" on="1"/>
        <pt x="618" y="678" on="1"/>
        <pt x="618" y="-492" on="1"/>
        <pt x="473" y="-492" on="1"/>
        <pt x="473" y="678" on="1"/>
      </contour>
    </TTGlyph>
    <TTGlyph name="SF490000" xMin="473" yMin="678" xMax="1460" yMax="1993">
      <contour>
        <pt x="834" y="1993" on="1"/>
        <pt x="979" y="1993" on="1"/>
        <pt x="979" y="823" on="1"/>
        <pt x="1460" y="823" on="1"/>
        <pt x="1460" y="678" on="1"/>
        <pt x="473" y="678" on="1"/>
        <pt x="473" y="1993" on="1"/>
        <pt x="618" y="1993" on="1"/>
        <pt x="618" y="823" on="1"/>
        <pt x="834" y="823" on="1"/>
      </contour>
    </TTGlyph>
    <TTGlyph name="SF500000" xMin="653" yMin="498" xMax="1460" yMax="1993">
      <contour>
        <pt x="653" y="1993" on="1"/>
        <pt x="799" y="1993" on="1"/>
        <pt x="799" y="1004" on="1"/>
        <pt x="1460" y="1004" on="1"/>
        <pt x="1460" y="858" on="1"/>
        <pt x="799" y="858" on="1"/>
        <pt x="799" y="643" on="1"/>
        <pt x="1460" y="643" on="1"/>
        <pt x="1460" y="498" on="1"/>
        <pt x="653" y="498" on="1"/>
      </contour>
    </TTGlyph>
    <TTGlyph name="SF510000" xMin="653" yMin="-492" xMax="1460" yMax="1004">
      <contour>
        <pt x="653" y="1004" on="1"/>
        <pt x="1460" y="1004" on="1"/>
        <pt x="1460" y="858" on="1"/>
        <pt x="799" y="858" on="1"/>
        <pt x="799" y="643" on="1"/>
        <pt x="1460" y="643" on="1"/>
        <pt x="1460" y="498" on="1"/>
        <pt x="799" y="498" on="1"/>
        <pt x="799" y="-492" on="1"/>
        <pt x="653" y="-492" on="1"/>
      </contour>
    </TTGlyph>
    <TTGlyph name="SF520000" xMin="473" yMin="-492" xMax="1460" yMax="823">
      <contour>
        <pt x="1460" y="823" on="1"/>
        <pt x="1460" y="678" on="1"/>
        <pt x="979" y="678" on="1"/>
        <pt x="979" y="-492" on="1"/>
        <pt x="834" y="-492" on="1"/>
        <pt x="834" y="678" on="1"/>
        <pt x="618" y="678" on="1"/>
        <pt x="618" y="-492" on="1"/>
        <pt x="473" y="-492" on="1"/>
        <pt x="473" y="823" on="1"/>
      </contour>
    </TTGlyph>
    <TTGlyph name="SF530000" xMin="-10" yMin="-492" xMax="1460" yMax="1993">
      <contour>
        <pt x="834" y="1993" on="1"/>
        <pt x="979" y="1993" on="1"/>
        <pt x="979" y="823" on="1"/>
        <pt x="1460" y="823" on="1"/>
        <pt x="1460" y="678" on="1"/>
        <pt x="979" y="678" on="1"/>
        <pt x="979" y="-492" on="1"/>
        <pt x="834" y="-492" on="1"/>
        <pt x="834" y="678" on="1"/>
        <pt x="618" y="678" on="1"/>
        <pt x="618" y="-492" on="1"/>
        <pt x="473" y="-492" on="1"/>
        <pt x="473" y="678" on="1"/>
        <pt x="-10" y="678" on="1"/>
        <pt x="-10" y="823" on="1"/>
        <pt x="473" y="823" on="1"/>
        <pt x="473" y="1993" on="1"/>
        <pt x="618" y="1993" on="1"/>
        <pt x="618" y="823" on="1"/>
        <pt x="834" y="823" on="1"/>
      </contour>
    </TTGlyph>
    <TTGlyph name="SF540000" xMin="-10" yMin="-492" xMax="1460" yMax="1993">
      <contour>
        <pt x="-10" y="498" on="1"/>
        <pt x="-10" y="643" on="1"/>
        <pt x="653" y="643" on="1"/>
        <pt x="653" y="858" on="1"/>
        <pt x="-10" y="858" on="1"/>
        <pt x="-10" y="1004" on="1"/>
        <pt x="653" y="1004" on="1"/>
        <pt x="653" y="1993" on="1"/>
        <pt x="799" y="1993" on="1"/>
        <pt x="799" y="1004" on="1"/>
        <pt x="1460" y="1004" on="1"/>
        <pt x="1460" y="858" on="1"/>
        <pt x="799" y="858" on="1"/>
        <pt x="799" y="643" on="1"/>
        <pt x="1460" y="643" on="1"/>
        <pt x="1460" y="498" on="1"/>
        <pt x="799" y="498" on="1"/>
        <pt x="799" y="-492" on="1"/>
        <pt x="653" y="-492" on="1"/>
        <pt x="653" y="498" on="1"/>
      </contour>
    </TTGlyph>
    <TTGlyph name="Sacute" xMin="61" yMin="-20" xMax="1098" yMax="1907">
      <component glyphName="S" x="0" y="0" flags="0x204"/>
      <component glyphName="acute" x="172" y="338" flags="0x4"/>
    </TTGlyph>
    <TTGlyph name="Scaron" xMin="61" yMin="-20" xMax="1098" yMax="1907">
      <component glyphName="S" x="0" y="0" flags="0x204"/>
      <component glyphName="caron" x="18" y="338" flags="0x4"/>
    </TTGlyph>
    <TTGlyph name="Scedilla" xMin="61" yMin="-492" xMax="1098" yMax="1483">
      <component glyphName="S" x="0" y="0" flags="0x204"/>
      <component glyphName="cedilla" x="246" y="0" flags="0x4"/>
    </TTGlyph>
    <TTGlyph name="Scircumflex" xMin="61" yMin="-20" xMax="1098" yMax="1907">
      <component glyphName="S" x="0" y="0" flags="0x204"/>
      <component glyphName="circumflex" x="18" y="338" flags="0x4"/>
    </TTGlyph>
    <TTGlyph name="Scommaaccent" xMin="61" yMin="-453" xMax="1098" yMax="1483">
      <component glyphName="S" x="0" y="0" flags="0x204"/>
      <component glyphName="glyph00569" x="6" y="0" flags="0x4"/>
    </TTGlyph>
    <TTGlyph name="Sigma" xMin="47" yMin="0" xMax="1214" yMax="1462">
      <contour>
        <pt x="887" y="250" on="1"/>
        <pt x="935" y="250" on="0"/>
        <pt x="1003" y="279" on="0"/>
        <pt x="1048" y="331" on="0"/>
        <pt x="1074" y="402" on="0"/>
        <pt x="1079" y="444" on="1"/>
        <pt x="1087" y="506" on="1"/>
        <pt x="1214" y="506" on="1"/>
        <pt x="1204" y="0" on="1"/>
        <pt x="47" y="0" on="1"/>
        <pt x="47" y="127" on="1"/>
        <pt x="469" y="707" on="1"/>
        <pt x="92" y="1382" on="1"/>
        <pt x="92" y="1462" on="1"/>
        <pt x="1114" y="1462" on="1"/>
        <pt x="1124" y="1083" on="1"/>
        <pt x="997" y="1083" on="1"/>
        <pt x="987" y="1192" on="1"/>
        <pt x="980" y="1260" on="0"/>
        <pt x="899" y="1337" on="0"/>
        <pt x="807" y="1337" on="1"/>
        <pt x="414" y="1337" on="1"/>
        <pt x="698" y="823" on="1"/>
        <pt x="698" y="793" on="1"/>
        <pt x="295" y="250" on="1"/>
      </contour>
    </TTGlyph>
    <TTGlyph name="T" xMin="20" yMin="0" xMax="1317" yMax="1462">
      <contour>
        <pt x="831" y="242" on="1"/>
        <pt x="831" y="198" on="0"/>
        <pt x="847" y="146" on="0"/>
        <pt x="876" y="118" on="0"/>
        <pt x="914" y="109" on="0"/>
        <pt x="936" y="109" on="1"/>
        <pt x="1022" y="109" on="1"/>
        <pt x="1022" y="0" on="1"/>
        <pt x="315" y="0" on="1"/>
        <pt x="315" y="109" on="1"/>
        <pt x="401" y="109" on="1"/>
        <pt x="424" y="109" on="0"/>
        <pt x="462" y="118" on="0"/>
        <pt x="490" y="146" on="0"/>
        <pt x="506" y="198" on="0"/>
        <pt x="506" y="242" on="1"/>
        <pt x="506" y="1337" on="1"/>
        <pt x="342" y="1337" on="1"/>
        <pt x="296" y="1337" on="0"/>
        <pt x="234" y="1317" on="0"/>
        <pt x="195" y="1280" on="0"/>
        <pt x="176" y="1226" on="0"/>
        <pt x="172" y="1192" on="1"/>
        <pt x="158" y="1065" on="1"/>
        <pt x="20" y="1065" on="1"/>
        <pt x="31" y="1462" on="1"/>
        <pt x="1307" y="1462" on="1"/>
        <pt x="1317" y="1065" on="1"/>
        <pt x="1180" y="1065" on="1"/>
        <pt x="1165" y="1192" on="1"/>
        <pt x="1161" y="1226" on="0"/>
        <pt x="1142" y="1280" on="0"/>
        <pt x="1103" y="1317" on="0"/>
        <pt x="1041" y="1337" on="0"/>
        <pt x="995" y="1337" on="1"/>
        <pt x="831" y="1337" on="1"/>
      </contour>
    </TTGlyph>
    <TTGlyph name="Tau" xMin="20" yMin="0" xMax="1317" yMax="1462">
      <component glyphName="T" x="0" y="0" flags="0x204"/>
    </TTGlyph>
    <TTGlyph name="Tbar" xMin="20" yMin="0" xMax="1317" yMax="1462">
      <contour>
        <pt x="831" y="782" on="1"/>
        <pt x="1126" y="782" on="1"/>
        <pt x="1126" y="674" on="1"/>
        <pt x="831" y="674" on="1"/>
        <pt x="831" y="242" on="1"/>
        <pt x="831" y="198" on="0"/>
        <pt x="847" y="146" on="0"/>
        <pt x="876" y="118" on="0"/>
        <pt x="914" y="109" on="0"/>
        <pt x="936" y="109" on="1"/>
        <pt x="1022" y="109" on="1"/>
        <pt x="1022" y="0" on="1"/>
        <pt x="315" y="0" on="1"/>
        <pt x="315" y="109" on="1"/>
        <pt x="401" y="109" on="1"/>
        <pt x="424" y="109" on="0"/>
        <pt x="462" y="118" on="0"/>
        <pt x="490" y="146" on="0"/>
        <pt x="506" y="198" on="0"/>
        <pt x="506" y="242" on="1"/>
        <pt x="506" y="674" on="1"/>
        <pt x="211" y="674" on="1"/>
        <pt x="211" y="782" on="1"/>
        <pt x="506" y="782" on="1"/>
        <pt x="506" y="1337" on="1"/>
        <pt x="342" y="1337" on="1"/>
        <pt x="296" y="1337" on="0"/>
        <pt x="234" y="1317" on="0"/>
        <pt x="195" y="1280" on="0"/>
        <pt x="176" y="1226" on="0"/>
        <pt x="172" y="1192" on="1"/>
        <pt x="158" y="1065" on="1"/>
        <pt x="20" y="1065" on="1"/>
        <pt x="31" y="1462" on="1"/>
        <pt x="1307" y="1462" on="1"/>
        <pt x="1317" y="1065" on="1"/>
        <pt x="1180" y="1065" on="1"/>
        <pt x="1165" y="1192" on="1"/>
        <pt x="1161" y="1226" on="0"/>
        <pt x="1142" y="1280" on="0"/>
        <pt x="1103" y="1317" on="0"/>
        <pt x="1041" y="1337" on="0"/>
        <pt x="995" y="1337" on="1"/>
        <pt x="831" y="1337" on="1"/>
      </contour>
    </TTGlyph>
    <TTGlyph name="Tcaron" xMin="20" yMin="0" xMax="1317" yMax="1907">
      <component glyphName="T" x="0" y="0" flags="0x204"/>
      <component glyphName="caron" x="78" y="338" flags="0x4"/>
    </TTGlyph>
    <TTGlyph name="Tcommaaccent" xMin="20" yMin="-492" xMax="1317" yMax="1462">
      <component glyphName="T" x="0" y="0" flags="0x204"/>
      <component glyphName="cedilla" x="344" y="0" flags="0x4"/>
    </TTGlyph>
    <TTGlyph name="Theta" xMin="113" yMin="-20" xMax="1499" yMax="1485">
      <contour>
        <pt x="639" y="942" on="1"/>
        <pt x="649" y="903" on="1"/>
        <pt x="655" y="881" on="0"/>
        <pt x="669" y="846" on="0"/>
        <pt x="699" y="822" on="0"/>
        <pt x="753" y="809" on="0"/>
        <pt x="799" y="809" on="1"/>
        <pt x="809" y="809" on="1"/>
        <pt x="850" y="809" on="0"/>
        <pt x="904" y="822" on="0"/>
        <pt x="939" y="847" on="0"/>
        <pt x="957" y="882" on="0"/>
        <pt x="963" y="903" on="1"/>
        <pt x="973" y="942" on="1"/>
        <pt x="1079" y="942" on="1"/>
        <pt x="1079" y="551" on="1"/>
        <pt x="973" y="551" on="1"/>
        <pt x="963" y="590" on="1"/>
        <pt x="957" y="611" on="0"/>
        <pt x="939" y="646" on="0"/>
        <pt x="904" y="671" on="0"/>
        <pt x="850" y="684" on="0"/>
        <pt x="809" y="684" on="1"/>
        <pt x="799" y="684" on="1"/>
        <pt x="753" y="684" on="0"/>
        <pt x="699" y="671" on="0"/>
        <pt x="669" y="647" on="0"/>
        <pt x="655" y="612" on="0"/>
        <pt x="649" y="590" on="1"/>
        <pt x="639" y="551" on="1"/>
        <pt x="532" y="551" on="1"/>
        <pt x="532" y="942" on="1"/>
      </contour>
      <contour>
        <pt x="1499" y="733" on="1"/>
        <pt x="1499" y="564" on="0"/>
        <pt x="1408" y="286" on="0"/>
        <pt x="1231" y="88" on="0"/>
        <pt x="974" y="-20" on="0"/>
        <pt x="807" y="-20" on="1"/>
        <pt x="632" y="-20" on="0"/>
        <pt x="371" y="88" on="0"/>
        <pt x="199" y="286" on="0"/>
        <pt x="113" y="565" on="0"/>
        <pt x="113" y="735" on="1"/>
        <pt x="113" y="905" on="0"/>
        <pt x="199" y="1182" on="0"/>
        <pt x="372" y="1378" on="0"/>
        <pt x="633" y="1485" on="0"/>
        <pt x="809" y="1485" on="1"/>
        <pt x="975" y="1485" on="0"/>
        <pt x="1232" y="1378" on="0"/>
        <pt x="1408" y="1181" on="0"/>
        <pt x="1499" y="904" on="0"/>
      </contour>
      <contour>
        <pt x="457" y="733" on="1"/>
        <pt x="457" y="586" on="0"/>
        <pt x="495" y="356" on="0"/>
        <pt x="579" y="197" on="0"/>
        <pt x="712" y="113" on="0"/>
        <pt x="807" y="113" on="1"/>
        <pt x="903" y="113" on="0"/>
        <pt x="1036" y="197" on="0"/>
        <pt x="1118" y="356" on="0"/>
        <pt x="1155" y="586" on="0"/>
        <pt x="1155" y="733" on="1"/>
        <pt x="1155" y="880" on="0"/>
        <pt x="1118" y="1110" on="0"/>
        <pt x="1036" y="1269" on="0"/>
        <pt x="904" y="1352" on="0"/>
        <pt x="809" y="1352" on="1"/>
        <pt x="713" y="1352" on="0"/>
        <pt x="579" y="1269" on="0"/>
        <pt x="495" y="1110" on="0"/>
        <pt x="457" y="880" on="0"/>
      </contour>
    </TTGlyph>
    <TTGlyph name="Thorn" xMin="57" yMin="0" xMax="1245" yMax="1462">
      <contour>
        <pt x="571" y="410" on="1"/>
        <pt x="621" y="410" on="1"/>
        <pt x="697" y="410" on="0"/>
        <pt x="803" y="448" on="0"/>
        <pt x="870" y="530" on="0"/>
        <pt x="901" y="660" on="0"/>
        <pt x="901" y="752" on="1"/>
        <pt x="901" y="834" on="0"/>
        <pt x="874" y="955" on="0"/>
        <pt x="815" y="1034" on="0"/>
        <pt x="720" y="1073" on="0"/>
        <pt x="651" y="1073" on="1"/>
        <pt x="571" y="1073" on="1"/>
      </contour>
      <contour>
        <pt x="1245" y="760" on="1"/>
        <pt x="1245" y="668" on="0"/>
        <pt x="1181" y="498" on="0"/>
        <pt x="1037" y="368" on="0"/>
        <pt x="807" y="291" on="0"/>
        <pt x="641" y="291" on="1"/>
        <pt x="571" y="291" on="1"/>
        <pt x="571" y="231" on="1"/>
        <pt x="573" y="191" on="0"/>
        <pt x="591" y="142" on="0"/>
        <pt x="620" y="117" on="0"/>
        <pt x="659" y="109" on="0"/>
        <pt x="680" y="109" on="1"/>
        <pt x="764" y="109" on="1"/>
        <pt x="764" y="0" on="1"/>
        <pt x="57" y="0" on="1"/>
        <pt x="57" y="109" on="1"/>
        <pt x="143" y="109" on="1"/>
        <pt x="166" y="109" on="0"/>
        <pt x="204" y="118" on="0"/>
        <pt x="232" y="146" on="0"/>
        <pt x="248" y="198" on="0"/>
        <pt x="248" y="242" on="1"/>
        <pt x="248" y="1221" on="1"/>
        <pt x="248" y="1265" on="0"/>
        <pt x="232" y="1317" on="0"/>
        <pt x="204" y="1345" on="0"/>
        <pt x="166" y="1354" on="0"/>
        <pt x="143" y="1354" on="1"/>
        <pt x="57" y="1354" on="1"/>
        <pt x="57" y="1462" on="1"/>
        <pt x="764" y="1462" on="1"/>
        <pt x="764" y="1354" on="1"/>
        <pt x="680" y="1354" on="1"/>
        <pt x="659" y="1354" on="0"/>
        <pt x="619" y="1346" on="0"/>
        <pt x="589" y="1320" on="0"/>
        <pt x="571" y="1272" on="0"/>
        <pt x="571" y="1231" on="1"/>
        <pt x="571" y="1194" on="1"/>
        <pt x="686" y="1194" on="1"/>
        <pt x="828" y="1192" on="0"/>
        <pt x="1038" y="1131" on="0"/>
        <pt x="1177" y="1020" on="0"/>
        <pt x="1245" y="861" on="0"/>
      </contour>
    </TTGlyph>
    <TTGlyph name="U" xMin="33" yMin="-20" xMax="1497" yMax="1462">
      <contour>
        <pt x="1497" y="1354" on="1"/>
        <pt x="1409" y="1354" on="1"/>
        <pt x="1388" y="1354" on="0"/>
        <pt x="1350" y="1345" on="0"/>
        <pt x="1321" y="1317" on="0"/>
        <pt x="1305" y="1265" on="0"/>
        <pt x="1305" y="1221" on="1"/>
        <pt x="1305" y="422" on="1"/>
        <pt x="1305" y="319" on="0"/>
        <pt x="1246" y="155" on="0"/>
        <pt x="1121" y="41" on="0"/>
        <pt x="927" y="-20" on="0"/>
        <pt x="793" y="-20" on="1"/>
        <pt x="659" y="-20" on="0"/>
        <pt x="448" y="31" on="0"/>
        <pt x="302" y="143" on="0"/>
        <pt x="225" y="320" on="0"/>
        <pt x="225" y="446" on="1"/>
        <pt x="225" y="1229" on="1"/>
        <pt x="225" y="1270" on="0"/>
        <pt x="208" y="1319" on="0"/>
        <pt x="179" y="1345" on="0"/>
        <pt x="142" y="1354" on="0"/>
        <pt x="121" y="1354" on="1"/>
        <pt x="33" y="1354" on="1"/>
        <pt x="33" y="1462" on="1"/>
        <pt x="739" y="1462" on="1"/>
        <pt x="739" y="1354" on="1"/>
        <pt x="653" y="1354" on="1"/>
        <pt x="632" y="1354" on="0"/>
        <pt x="594" y="1345" on="0"/>
        <pt x="565" y="1317" on="0"/>
        <pt x="549" y="1265" on="0"/>
        <pt x="549" y="1221" on="1"/>
        <pt x="549" y="430" on="1"/>
        <pt x="549" y="344" on="0"/>
        <pt x="592" y="227" on="0"/>
        <pt x="672" y="156" on="0"/>
        <pt x="784" y="125" on="0"/>
        <pt x="854" y="125" on="1"/>
        <pt x="922" y="125" on="0"/>
        <pt x="1032" y="160" on="0"/>
        <pt x="1109" y="234" on="0"/>
        <pt x="1151" y="348" on="0"/>
        <pt x="1151" y="426" on="1"/>
        <pt x="1151" y="1229" on="1"/>
        <pt x="1151" y="1270" on="0"/>
        <pt x="1135" y="1319" on="0"/>
        <pt x="1106" y="1345" on="0"/>
        <pt x="1068" y="1354" on="0"/>
        <pt x="1047" y="1354" on="1"/>
        <pt x="961" y="1354" on="1"/>
        <pt x="961" y="1462" on="1"/>
        <pt x="1497" y="1462" on="1"/>
      </contour>
    </TTGlyph>
    <TTGlyph name="Uacute" xMin="33" yMin="-20" xMax="1497" yMax="1907">
      <component glyphName="U" x="0" y="0" flags="0x204"/>
      <component glyphName="acute" x="313" y="338" flags="0x4"/>
    </TTGlyph>
    <TTGlyph name="Ubreve" xMin="33" yMin="-20" xMax="1497" yMax="1901">
      <component glyphName="U" x="0" y="0" flags="0x204"/>
      <component glyphName="breve" x="217" y="338" flags="0x4"/>
    </TTGlyph>
    <TTGlyph name="Ucircumflex" xMin="33" yMin="-20" xMax="1497" yMax="1907">
      <component glyphName="U" x="0" y="0" flags="0x204"/>
      <component glyphName="circumflex" x="227" y="338" flags="0x4"/>
    </TTGlyph>
    <TTGlyph name="Udieresis" xMin="33" yMin="-20" xMax="1497" yMax="1874">
      <component glyphName="U" x="0" y="0" flags="0x204"/>
      <component glyphName="dieresis" x="236" y="338" flags="0x4"/>
    </TTGlyph>
    <TTGlyph name="Ugrave" xMin="33" yMin="-20" xMax="1497" yMax="1907">
      <component glyphName="U" x="0" y="0" flags="0x204"/>
      <component glyphName="grave" x="100" y="338" flags="0x4"/>
    </TTGlyph>
    <TTGlyph name="Uhorn" xMin="33" yMin="-20" xMax="1726" yMax="1577">
      <contour>
        <pt x="1305" y="1462" on="1"/>
        <pt x="1305" y="1112" on="1"/>
        <pt x="1544" y="1136" on="0"/>
        <pt x="1544" y="1257" on="1"/>
        <pt x="1544" y="1296" on="0"/>
        <pt x="1432" y="1384" on="0"/>
        <pt x="1432" y="1454" on="1"/>
        <pt x="1432" y="1577" on="0"/>
        <pt x="1569" y="1577" on="1"/>
        <pt x="1639" y="1577" on="0"/>
        <pt x="1726" y="1470" on="0"/>
        <pt x="1726" y="1380" on="1"/>
        <pt x="1726" y="1236" on="0"/>
        <pt x="1499" y="1035" on="0"/>
        <pt x="1305" y="1018" on="1"/>
        <pt x="1305" y="422" on="1"/>
        <pt x="1305" y="-20" on="0"/>
        <pt x="793" y="-20" on="1"/>
        <pt x="225" y="-20" on="0"/>
        <pt x="225" y="446" on="1"/>
        <pt x="225" y="1229" on="1"/>
        <pt x="225" y="1354" on="0"/>
        <pt x="121" y="1354" on="1"/>
        <pt x="33" y="1354" on="1"/>
        <pt x="33" y="1462" on="1"/>
        <pt x="739" y="1462" on="1"/>
        <pt x="739" y="1354" on="1"/>
        <pt x="653" y="1354" on="1"/>
        <pt x="549" y="1354" on="0"/>
        <pt x="549" y="1221" on="1"/>
        <pt x="549" y="430" on="1"/>
        <pt x="549" y="125" on="0"/>
        <pt x="854" y="125" on="1"/>
        <pt x="1151" y="125" on="0"/>
        <pt x="1151" y="426" on="1"/>
        <pt x="1151" y="1229" on="1"/>
        <pt x="1151" y="1354" on="0"/>
        <pt x="1047" y="1354" on="1"/>
        <pt x="961" y="1354" on="1"/>
        <pt x="961" y="1462" on="1"/>
      </contour>
    </TTGlyph>
    <TTGlyph name="Uhungarumlaut" xMin="33" yMin="-20" xMax="1497" yMax="1907">
      <component glyphName="U" x="0" y="0" flags="0x204"/>
      <component glyphName="hungarumlaut" x="309" y="338" flags="0x4"/>
    </TTGlyph>
    <TTGlyph name="Umacron" xMin="33" yMin="-20" xMax="1497" yMax="1741">
      <component glyphName="U" x="0" y="0" flags="0x204"/>
      <component glyphName="uni02C9" x="311" y="338" flags="0x4"/>
    </TTGlyph>
    <TTGlyph name="Uogonek" xMin="33" yMin="-492" xMax="1497" yMax="1462">
      <component glyphName="U" x="0" y="0" flags="0x204"/>
      <component glyphName="ogonek" x="272" y="0" flags="0x4"/>
    </TTGlyph>
    <TTGlyph name="Upsilon" xMin="0" yMin="0" xMax="1419" yMax="1462">
      <component glyphName="Y" x="0" y="0" flags="0x204"/>
    </TTGlyph>
    <TTGlyph name="Upsilon1" xMin="0" yMin="0" xMax="1487" yMax="1477">
      <contour>
        <pt x="877" y="236" on="1"/>
        <pt x="877" y="191" on="0"/>
        <pt x="895" y="141" on="0"/>
        <pt x="926" y="115" on="0"/>
        <pt x="967" y="109" on="0"/>
        <pt x="991" y="109" on="1"/>
        <pt x="1092" y="109" on="1"/>
        <pt x="1092" y="0" on="1"/>
        <pt x="336" y="0" on="1"/>
        <pt x="336" y="109" on="1"/>
        <pt x="432" y="109" on="1"/>
        <pt x="457" y="109" on="0"/>
        <pt x="500" y="115" on="0"/>
        <pt x="532" y="140" on="0"/>
        <pt x="551" y="189" on="0"/>
        <pt x="551" y="233" on="1"/>
        <pt x="551" y="403" on="1"/>
        <pt x="551" y="465" on="0"/>
        <pt x="517" y="608" on="0"/>
        <pt x="464" y="756" on="0"/>
        <pt x="397" y="901" on="0"/>
        <pt x="332" y="1027" on="0"/>
        <pt x="274" y="1127" on="0"/>
        <pt x="256" y="1157" on="1"/>
        <pt x="230" y="1201" on="0"/>
        <pt x="175" y="1273" on="0"/>
        <pt x="117" y="1325" on="0"/>
        <pt x="58" y="1354" on="0"/>
        <pt x="27" y="1354" on="1"/>
        <pt x="0" y="1354" on="1"/>
        <pt x="0" y="1462" on="1"/>
        <pt x="233" y="1462" on="1"/>
        <pt x="308" y="1462" on="0"/>
        <pt x="420" y="1436" on="0"/>
        <pt x="512" y="1373" on="0"/>
        <pt x="588" y="1267" on="0"/>
        <pt x="627" y="1186" on="1"/>
        <pt x="661" y="1114" on="0"/>
        <pt x="713" y="992" on="0"/>
        <pt x="754" y="883" on="0"/>
        <pt x="786" y="782" on="0"/>
        <pt x="801" y="731" on="1"/>
        <pt x="816" y="793" on="0"/>
        <pt x="854" y="920" on="0"/>
        <pt x="898" y="1042" on="0"/>
        <pt x="944" y="1156" on="0"/>
        <pt x="967" y="1206" on="1"/>
        <pt x="1005" y="1290" on="0"/>
        <pt x="1080" y="1396" on="0"/>
        <pt x="1161" y="1455" on="0"/>
        <pt x="1250" y="1477" on="0"/>
        <pt x="1303" y="1477" on="1"/>
        <pt x="1351" y="1477" on="0"/>
        <pt x="1420" y="1456" on="0"/>
        <pt x="1465" y="1419" on="0"/>
        <pt x="1487" y="1369" on="0"/>
        <pt x="1487" y="1341" on="1"/>
        <pt x="1487" y="1281" on="0"/>
        <pt x="1427" y="1207" on="0"/>
        <pt x="1370" y="1198" on="1"/>
        <pt x="1362" y="1238" on="0"/>
        <pt x="1315" y="1298" on="0"/>
        <pt x="1272" y="1298" on="1"/>
        <pt x="1245" y="1298" on="0"/>
        <pt x="1194" y="1276" on="0"/>
        <pt x="1142" y="1221" on="0"/>
        <pt x="1086" y="1128" on="0"/>
        <pt x="1055" y="1057" on="1"/>
        <pt x="1040" y="1023" on="0"/>
        <pt x="1002" y="931" on="0"/>
        <pt x="962" y="824" on="0"/>
        <pt x="925" y="707" on="0"/>
        <pt x="895" y="591" on="0"/>
        <pt x="877" y="482" on="0"/>
        <pt x="877" y="436" on="1"/>
      </contour>
    </TTGlyph>
    <TTGlyph name="Upsilondieresis" xMin="0" yMin="0" xMax="1419" yMax="1874">
      <component glyphName="Y" x="0" y="0" flags="0x204"/>
      <component glyphName="dieresis" x="143" y="338" flags="0x4"/>
    </TTGlyph>
    <TTGlyph name="Upsilontonos" xMin="-98" yMin="0" xMax="1720" yMax="1462">
      <component glyphName="Y" x="301" y="0" flags="0x4"/>
      <component glyphName="tonos" x="-549" y="-168" flags="0x4"/>
    </TTGlyph>
    <TTGlyph name="Uring" xMin="33" yMin="-20" xMax="1497" yMax="2005">
      <component glyphName="U" x="0" y="0" flags="0x204"/>
      <component glyphName="ring" x="440" y="338" flags="0x4"/>
    </TTGlyph>
    <TTGlyph name="Utilde" xMin="33" yMin="-20" xMax="1497" yMax="1903">
      <component glyphName="U" x="0" y="0" flags="0x204"/>
      <component glyphName="tilde" x="229" y="338" flags="0x4"/>
    </TTGlyph>
    <TTGlyph name="V" xMin="0" yMin="0" xMax="1430" yMax="1462">
      <contour>
        <pt x="1430" y="1354" on="1"/>
        <pt x="1331" y="1354" on="1"/>
        <pt x="1317" y="1354" on="0"/>
        <pt x="1295" y="1342" on="0"/>
        <pt x="1273" y="1309" on="0"/>
        <pt x="1249" y="1251" on="0"/>
        <pt x="1233" y="1204" on="1"/>
        <pt x="815" y="0" on="1"/>
        <pt x="610" y="0" on="1"/>
        <pt x="174" y="1255" on="1"/>
        <pt x="164" y="1284" on="0"/>
        <pt x="133" y="1323" on="0"/>
        <pt x="98" y="1345" on="0"/>
        <pt x="62" y="1354" on="0"/>
        <pt x="47" y="1354" on="1"/>
        <pt x="0" y="1354" on="1"/>
        <pt x="0" y="1462" on="1"/>
        <pt x="676" y="1462" on="1"/>
        <pt x="676" y="1354" on="1"/>
        <pt x="582" y="1354" on="1"/>
        <pt x="567" y="1354" on="0"/>
        <pt x="539" y="1347" on="0"/>
        <pt x="516" y="1331" on="0"/>
        <pt x="502" y="1305" on="0"/>
        <pt x="502" y="1286" on="1"/>
        <pt x="502" y="1266" on="0"/>
        <pt x="514" y="1215" on="0"/>
        <pt x="520" y="1198" on="1"/>
        <pt x="729" y="567" on="1"/>
        <pt x="737" y="544" on="0"/>
        <pt x="754" y="482" on="0"/>
        <pt x="770" y="414" on="0"/>
        <pt x="783" y="347" on="0"/>
        <pt x="786" y="319" on="1"/>
        <pt x="789" y="336" on="0"/>
        <pt x="804" y="395" on="0"/>
        <pt x="824" y="464" on="0"/>
        <pt x="845" y="533" on="0"/>
        <pt x="854" y="561" on="1"/>
        <pt x="1065" y="1184" on="1"/>
        <pt x="1069" y="1195" on="0"/>
        <pt x="1078" y="1222" on="0"/>
        <pt x="1085" y="1250" on="0"/>
        <pt x="1090" y="1276" on="0"/>
        <pt x="1090" y="1284" on="1"/>
        <pt x="1090" y="1318" on="0"/>
        <pt x="1045" y="1354" on="0"/>
        <pt x="1008" y="1354" on="1"/>
        <pt x="901" y="1354" on="1"/>
        <pt x="901" y="1462" on="1"/>
        <pt x="1430" y="1462" on="1"/>
      </contour>
    </TTGlyph>
    <TTGlyph name="W" xMin="0" yMin="0" xMax="2185" yMax="1462">
      <contour>
        <pt x="1237" y="1448" on="1"/>
        <pt x="1520" y="666" on="1"/>
        <pt x="1538" y="618" on="0"/>
        <pt x="1569" y="519" on="0"/>
        <pt x="1595" y="429" on="0"/>
        <pt x="1615" y="353" on="0"/>
        <pt x="1620" y="326" on="1"/>
        <pt x="1628" y="363" on="0"/>
        <pt x="1646" y="453" on="0"/>
        <pt x="1667" y="552" on="0"/>
        <pt x="1690" y="656" on="0"/>
        <pt x="1702" y="705" on="1"/>
        <pt x="1810" y="1147" on="1"/>
        <pt x="1813" y="1159" on="0"/>
        <pt x="1820" y="1191" on="0"/>
        <pt x="1826" y="1222" on="0"/>
        <pt x="1829" y="1249" on="0"/>
        <pt x="1829" y="1257" on="1"/>
        <pt x="1829" y="1310" on="0"/>
        <pt x="1766" y="1354" on="0"/>
        <pt x="1698" y="1354" on="1"/>
        <pt x="1651" y="1354" on="1"/>
        <pt x="1651" y="1462" on="1"/>
        <pt x="2185" y="1462" on="1"/>
        <pt x="2185" y="1354" on="1"/>
        <pt x="2146" y="1354" on="1"/>
        <pt x="2116" y="1354" on="0"/>
        <pt x="2070" y="1342" on="0"/>
        <pt x="2034" y="1307" on="0"/>
        <pt x="2005" y="1245" on="0"/>
        <pt x="1991" y="1194" on="1"/>
        <pt x="1673" y="0" on="1"/>
        <pt x="1440" y="0" on="1"/>
        <pt x="1096" y="961" on="1"/>
        <pt x="801" y="0" on="1"/>
        <pt x="547" y="0" on="1"/>
        <pt x="172" y="1245" on="1"/>
        <pt x="163" y="1277" on="0"/>
        <pt x="137" y="1319" on="0"/>
        <pt x="102" y="1344" on="0"/>
        <pt x="57" y="1354" on="0"/>
        <pt x="27" y="1354" on="1"/>
        <pt x="0" y="1354" on="1"/>
        <pt x="0" y="1462" on="1"/>
        <pt x="684" y="1462" on="1"/>
        <pt x="684" y="1354" on="1"/>
        <pt x="637" y="1354" on="1"/>
        <pt x="575" y="1354" on="0"/>
        <pt x="514" y="1306" on="0"/>
        <pt x="514" y="1255" on="1"/>
        <pt x="514" y="1238" on="0"/>
        <pt x="527" y="1173" on="0"/>
        <pt x="535" y="1145" on="1"/>
        <pt x="672" y="672" on="1"/>
        <pt x="683" y="633" on="0"/>
        <pt x="708" y="542" on="0"/>
        <pt x="730" y="449" on="0"/>
        <pt x="748" y="363" on="0"/>
        <pt x="752" y="330" on="1"/>
        <pt x="766" y="396" on="0"/>
        <pt x="799" y="511" on="0"/>
        <pt x="817" y="571" on="1"/>
        <pt x="1087" y="1448" on="1"/>
      </contour>
    </TTGlyph>
    <TTGlyph name="Wacute" xMin="0" yMin="0" xMax="2185" yMax="1907">
      <component glyphName="W" x="0" y="0" flags="0x204"/>
      <component glyphName="acute" x="678" y="338" flags="0x4"/>
    </TTGlyph>
    <TTGlyph name="Wcircumflex" xMin="0" yMin="0" xMax="2185" yMax="1907">
      <component glyphName="W" x="0" y="0" flags="0x204"/>
      <component glyphName="circumflex" x="565" y="338" flags="0x4"/>
    </TTGlyph>
    <TTGlyph name="Wdieresis" xMin="0" yMin="0" xMax="2185" yMax="1874">
      <component glyphName="W" x="0" y="0" flags="0x204"/>
      <component glyphName="dieresis" x="555" y="338" flags="0x4"/>
    </TTGlyph>
    <TTGlyph name="Wgrave" xMin="0" yMin="0" xMax="2185" yMax="1907">
      <component glyphName="W" x="0" y="0" flags="0x204"/>
      <component glyphName="grave" x="438" y="338" flags="0x4"/>
    </TTGlyph>
    <TTGlyph name="X" xMin="20" yMin="0" xMax="1479" yMax="1462">
      <contour>
        <pt x="1071" y="1294" on="1"/>
        <pt x="1071" y="1312" on="0"/>
        <pt x="1053" y="1336" on="0"/>
        <pt x="1022" y="1349" on="0"/>
        <pt x="980" y="1354" on="0"/>
        <pt x="956" y="1354" on="1"/>
        <pt x="950" y="1354" on="1"/>
        <pt x="950" y="1462" on="1"/>
        <pt x="1430" y="1462" on="1"/>
        <pt x="1430" y="1354" on="1"/>
        <pt x="1411" y="1354" on="1"/>
        <pt x="1381" y="1354" on="0"/>
        <pt x="1333" y="1339" on="0"/>
        <pt x="1286" y="1304" on="0"/>
        <pt x="1238" y="1248" on="0"/>
        <pt x="1208" y="1206" on="1"/>
        <pt x="911" y="801" on="1"/>
        <pt x="1288" y="217" on="1"/>
        <pt x="1328" y="154" on="0"/>
        <pt x="1414" y="109" on="0"/>
        <pt x="1452" y="109" on="1"/>
        <pt x="1479" y="109" on="1"/>
        <pt x="1479" y="0" on="1"/>
        <pt x="803" y="0" on="1"/>
        <pt x="803" y="109" on="1"/>
        <pt x="813" y="109" on="1"/>
        <pt x="936" y="109" on="0"/>
        <pt x="936" y="176" on="1"/>
        <pt x="936" y="188" on="0"/>
        <pt x="932" y="210" on="0"/>
        <pt x="917" y="240" on="0"/>
        <pt x="891" y="284" on="0"/>
        <pt x="868" y="317" on="1"/>
        <pt x="680" y="602" on="1"/>
        <pt x="459" y="303" on="1"/>
        <pt x="440" y="277" on="0"/>
        <pt x="406" y="210" on="0"/>
        <pt x="406" y="178" on="1"/>
        <pt x="406" y="144" on="0"/>
        <pt x="462" y="109" on="0"/>
        <pt x="530" y="109" on="1"/>
        <pt x="537" y="109" on="1"/>
        <pt x="537" y="0" on="1"/>
        <pt x="20" y="0" on="1"/>
        <pt x="20" y="109" on="1"/>
        <pt x="33" y="109" on="1"/>
        <pt x="70" y="109" on="0"/>
        <pt x="126" y="129" on="0"/>
        <pt x="175" y="166" on="0"/>
        <pt x="221" y="219" on="0"/>
        <pt x="246" y="252" on="1"/>
        <pt x="604" y="719" on="1"/>
        <pt x="266" y="1245" on="1"/>
        <pt x="249" y="1272" on="0"/>
        <pt x="216" y="1313" on="0"/>
        <pt x="175" y="1340" on="0"/>
        <pt x="125" y="1354" on="0"/>
        <pt x="90" y="1354" on="1"/>
        <pt x="63" y="1354" on="1"/>
        <pt x="63" y="1462" on="1"/>
        <pt x="741" y="1462" on="1"/>
        <pt x="741" y="1354" on="1"/>
        <pt x="735" y="1354" on="1"/>
        <pt x="700" y="1354" on="0"/>
        <pt x="653" y="1345" on="0"/>
        <pt x="625" y="1328" on="0"/>
        <pt x="614" y="1306" on="0"/>
        <pt x="614" y="1294" on="1"/>
        <pt x="614" y="1273" on="0"/>
        <pt x="645" y="1209" on="0"/>
        <pt x="668" y="1174" on="1"/>
        <pt x="838" y="920" on="1"/>
        <pt x="1016" y="1169" on="1"/>
        <pt x="1034" y="1197" on="0"/>
        <pt x="1071" y="1266" on="0"/>
      </contour>
    </TTGlyph>
    <TTGlyph name="Xi" xMin="66" yMin="0" xMax="1227" yMax="1462">
      <contour>
        <pt x="1217" y="0" on="1"/>
        <pt x="76" y="0" on="1"/>
        <pt x="66" y="465" on="1"/>
        <pt x="193" y="465" on="1"/>
        <pt x="201" y="403" on="1"/>
        <pt x="205" y="373" on="0"/>
        <pt x="225" y="317" on="0"/>
        <pt x="264" y="275" on="0"/>
        <pt x="327" y="250" on="0"/>
        <pt x="373" y="250" on="1"/>
        <pt x="920" y="250" on="1"/>
        <pt x="966" y="250" on="0"/>
        <pt x="1028" y="275" on="0"/>
        <pt x="1067" y="317" on="0"/>
        <pt x="1088" y="373" on="0"/>
        <pt x="1092" y="403" on="1"/>
        <pt x="1100" y="465" on="1"/>
        <pt x="1227" y="465" on="1"/>
      </contour>
      <contour>
        <pt x="1165" y="1022" on="1"/>
        <pt x="1038" y="1022" on="1"/>
        <pt x="1030" y="1083" on="1"/>
        <pt x="1026" y="1114" on="0"/>
        <pt x="1006" y="1170" on="0"/>
        <pt x="967" y="1212" on="0"/>
        <pt x="904" y="1237" on="0"/>
        <pt x="858" y="1237" on="1"/>
        <pt x="434" y="1237" on="1"/>
        <pt x="388" y="1237" on="0"/>
        <pt x="325" y="1212" on="0"/>
        <pt x="286" y="1170" on="0"/>
        <pt x="266" y="1114" on="0"/>
        <pt x="262" y="1083" on="1"/>
        <pt x="254" y="1022" on="1"/>
        <pt x="127" y="1022" on="1"/>
        <pt x="137" y="1462" on="1"/>
        <pt x="1155" y="1462" on="1"/>
      </contour>
      <contour>
        <pt x="451" y="942" on="1"/>
        <pt x="461" y="903" on="1"/>
        <pt x="467" y="881" on="0"/>
        <pt x="480" y="846" on="0"/>
        <pt x="510" y="822" on="0"/>
        <pt x="564" y="809" on="0"/>
        <pt x="610" y="809" on="1"/>
        <pt x="682" y="809" on="1"/>
        <pt x="723" y="809" on="0"/>
        <pt x="777" y="822" on="0"/>
        <pt x="812" y="847" on="0"/>
        <pt x="830" y="882" on="0"/>
        <pt x="836" y="903" on="1"/>
        <pt x="846" y="942" on="1"/>
        <pt x="952" y="942" on="1"/>
        <pt x="952" y="551" on="1"/>
        <pt x="846" y="551" on="1"/>
        <pt x="836" y="590" on="1"/>
        <pt x="830" y="611" on="0"/>
        <pt x="812" y="646" on="0"/>
        <pt x="777" y="671" on="0"/>
        <pt x="723" y="684" on="0"/>
        <pt x="682" y="684" on="1"/>
        <pt x="610" y="684" on="1"/>
        <pt x="564" y="684" on="0"/>
        <pt x="510" y="671" on="0"/>
        <pt x="480" y="647" on="0"/>
        <pt x="467" y="612" on="0"/>
        <pt x="461" y="590" on="1"/>
        <pt x="451" y="551" on="1"/>
        <pt x="344" y="551" on="1"/>
        <pt x="344" y="942" on="1"/>
      </contour>
    </TTGlyph>
    <TTGlyph name="Y" xMin="0" yMin="0" xMax="1419" yMax="1462">
      <contour>
        <pt x="336" y="0" on="1"/>
        <pt x="336" y="109" on="1"/>
        <pt x="432" y="109" on="1"/>
        <pt x="457" y="109" on="0"/>
        <pt x="500" y="115" on="0"/>
        <pt x="532" y="140" on="0"/>
        <pt x="551" y="190" on="0"/>
        <pt x="551" y="233" on="1"/>
        <pt x="551" y="518" on="1"/>
        <pt x="172" y="1245" on="1"/>
        <pt x="157" y="1275" on="0"/>
        <pt x="130" y="1317" on="0"/>
        <pt x="98" y="1342" on="0"/>
        <pt x="57" y="1354" on="0"/>
        <pt x="27" y="1354" on="1"/>
        <pt x="0" y="1354" on="1"/>
        <pt x="0" y="1462" on="1"/>
        <pt x="686" y="1462" on="1"/>
        <pt x="686" y="1354" on="1"/>
        <pt x="651" y="1354" on="1"/>
        <pt x="589" y="1354" on="0"/>
        <pt x="528" y="1304" on="0"/>
        <pt x="528" y="1262" on="1"/>
        <pt x="528" y="1236" on="0"/>
        <pt x="547" y="1175" on="0"/>
        <pt x="559" y="1149" on="1"/>
        <pt x="711" y="848" on="1"/>
        <pt x="743" y="783" on="0"/>
        <pt x="784" y="683" on="0"/>
        <pt x="801" y="635" on="1"/>
        <pt x="822" y="689" on="0"/>
        <pt x="877" y="816" on="0"/>
        <pt x="911" y="885" on="1"/>
        <pt x="1030" y="1130" on="1"/>
        <pt x="1052" y="1175" on="0"/>
        <pt x="1065" y="1236" on="0"/>
        <pt x="1065" y="1253" on="1"/>
        <pt x="1065" y="1306" on="0"/>
        <pt x="998" y="1354" on="0"/>
        <pt x="930" y="1354" on="1"/>
        <pt x="883" y="1354" on="1"/>
        <pt x="883" y="1462" on="1"/>
        <pt x="1419" y="1462" on="1"/>
        <pt x="1419" y="1354" on="1"/>
        <pt x="1380" y="1354" on="1"/>
        <pt x="1354" y="1354" on="0"/>
        <pt x="1317" y="1340" on="0"/>
        <pt x="1284" y="1304" on="0"/>
        <pt x="1249" y="1242" on="0"/>
        <pt x="1225" y="1194" on="1"/>
        <pt x="877" y="516" on="1"/>
        <pt x="877" y="236" on="1"/>
        <pt x="877" y="191" on="0"/>
        <pt x="895" y="141" on="0"/>
        <pt x="926" y="115" on="0"/>
        <pt x="967" y="109" on="0"/>
        <pt x="991" y="109" on="1"/>
        <pt x="1092" y="109" on="1"/>
        <pt x="1092" y="0" on="1"/>
      </contour>
    </TTGlyph>
    <TTGlyph name="Yacute" xMin="0" yMin="0" xMax="1419" yMax="1907">
      <component glyphName="Y" x="0" y="0" flags="0x204"/>
      <component glyphName="acute" x="272" y="338" flags="0x4"/>
    </TTGlyph>
    <TTGlyph name="Ycircumflex" xMin="0" yMin="0" xMax="1419" yMax="1907">
      <component glyphName="Y" x="0" y="0" flags="0x204"/>
      <component glyphName="circumflex" x="129" y="338" flags="0x4"/>
    </TTGlyph>
    <TTGlyph name="Ydieresis" xMin="0" yMin="0" xMax="1419" yMax="1874">
      <component glyphName="Y" x="0" y="0" flags="0x204"/>
      <component glyphName="dieresis" x="143" y="338" flags="0x4"/>
    </TTGlyph>
    <TTGlyph name="Ygrave" xMin="0" yMin="0" xMax="1419" yMax="1907">
      <component glyphName="Y" x="0" y="0" flags="0x204"/>
      <component glyphName="grave" x="55" y="338" flags="0x4"/>
    </TTGlyph>
    <TTGlyph name="Z" xMin="86" yMin="0" xMax="1274" yMax="1462">
      <contour>
        <pt x="1229" y="1358" on="1"/>
        <pt x="459" y="125" on="1"/>
        <pt x="901" y="125" on="1"/>
        <pt x="964" y="125" on="0"/>
        <pt x="1044" y="160" on="0"/>
        <pt x="1091" y="218" on="0"/>
        <pt x="1112" y="291" on="0"/>
        <pt x="1116" y="330" on="1"/>
        <pt x="1126" y="422" on="1"/>
        <pt x="1274" y="422" on="1"/>
        <pt x="1264" y="0" on="1"/>
        <pt x="86" y="0" on="1"/>
        <pt x="86" y="102" on="1"/>
        <pt x="854" y="1337" on="1"/>
        <pt x="451" y="1337" on="1"/>
        <pt x="403" y="1337" on="0"/>
        <pt x="341" y="1311" on="0"/>
        <pt x="304" y="1262" on="0"/>
        <pt x="287" y="1193" on="0"/>
        <pt x="283" y="1151" on="1"/>
        <pt x="272" y="1040" on="1"/>
        <pt x="125" y="1040" on="1"/>
        <pt x="135" y="1462" on="1"/>
        <pt x="1229" y="1462" on="1"/>
      </contour>
    </TTGlyph>
    <TTGlyph name="Zacute" xMin="86" yMin="0" xMax="1274" yMax="1907">
      <component glyphName="Z" x="0" y="0" flags="0x204"/>
      <component glyphName="acute" x="207" y="338" flags="0x4"/>
    </TTGlyph>
    <TTGlyph name="Zcaron" xMin="86" yMin="0" xMax="1274" yMax="1907">
      <component glyphName="Z" x="0" y="0" flags="0x204"/>
      <component glyphName="caron" x="111" y="338" flags="0x4"/>
    </TTGlyph>
    <TTGlyph name="Zdotaccent" xMin="86" yMin="0" xMax="1274" yMax="1915">
      <component glyphName="Z" x="0" y="0" flags="0x204"/>
      <component glyphName="dotaccent" x="377" y="338" flags="0x4"/>
    </TTGlyph>
    <TTGlyph name="Zeta" xMin="86" yMin="0" xMax="1274" yMax="1462">
      <component glyphName="Z" x="0" y="0" flags="0x204"/>
    </TTGlyph>
    <TTGlyph name="a" xMin="92" yMin="-20" xMax="1161" yMax="1124">
      <contour>
        <pt x="410" y="305" on="1"/>
        <pt x="410" y="217" on="0"/>
        <pt x="466" y="129" on="0"/>
        <pt x="526" y="129" on="1"/>
        <pt x="570" y="129" on="0"/>
        <pt x="641" y="166" on="0"/>
        <pt x="692" y="234" on="0"/>
        <pt x="719" y="331" on="0"/>
        <pt x="719" y="391" on="1"/>
        <pt x="719" y="545" on="1"/>
        <pt x="627" y="539" on="1"/>
        <pt x="566" y="536" on="0"/>
        <pt x="482" y="503" on="0"/>
        <pt x="432" y="445" on="0"/>
        <pt x="410" y="361" on="0"/>
      </contour>
      <contour>
        <pt x="592" y="999" on="1"/>
        <pt x="553" y="999" on="0"/>
        <pt x="500" y="966" on="0"/>
        <pt x="468" y="907" on="0"/>
        <pt x="455" y="826" on="0"/>
        <pt x="455" y="778" on="1"/>
        <pt x="317" y="778" on="0"/>
        <pt x="178" y="840" on="0"/>
        <pt x="178" y="915" on="1"/>
        <pt x="178" y="971" on="0"/>
        <pt x="245" y="1051" on="0"/>
        <pt x="360" y="1101" on="0"/>
        <pt x="513" y="1124" on="0"/>
        <pt x="600" y="1124" on="1"/>
        <pt x="708" y="1124" on="0"/>
        <pt x="869" y="1087" on="0"/>
        <pt x="976" y="1005" on="0"/>
        <pt x="1030" y="872" on="0"/>
        <pt x="1030" y="776" on="1"/>
        <pt x="1030" y="254" on="1"/>
        <pt x="1030" y="212" on="0"/>
        <pt x="1043" y="156" on="0"/>
        <pt x="1071" y="123" on="0"/>
        <pt x="1119" y="109" on="0"/>
        <pt x="1153" y="109" on="1"/>
        <pt x="1161" y="109" on="1"/>
        <pt x="1161" y="0" on="1"/>
        <pt x="780" y="0" on="1"/>
        <pt x="737" y="141" on="1"/>
        <pt x="719" y="141" on="1"/>
        <pt x="685" y="100" on="0"/>
        <pt x="625" y="39" on="0"/>
        <pt x="557" y="-1" on="0"/>
        <pt x="472" y="-20" on="0"/>
        <pt x="414" y="-20" on="1"/>
        <pt x="346" y="-20" on="0"/>
        <pt x="229" y="20" on="0"/>
        <pt x="142" y="103" on="0"/>
        <pt x="92" y="228" on="0"/>
        <pt x="92" y="313" on="1"/>
        <pt x="92" y="480" on="0"/>
        <pt x="321" y="640" on="0"/>
        <pt x="551" y="647" on="1"/>
        <pt x="719" y="653" on="1"/>
        <pt x="719" y="766" on="1"/>
        <pt x="719" y="817" on="0"/>
        <pt x="711" y="903" on="0"/>
        <pt x="685" y="965" on="0"/>
        <pt x="634" y="999" on="0"/>
      </contour>
    </TTGlyph>
    <TTGlyph name="aacute" xMin="92" yMin="-20" xMax="1161" yMax="1569">
      <component glyphName="a" x="0" y="0" flags="0x204"/>
      <component glyphName="acute" x="137" y="0" flags="0x4"/>
    </TTGlyph>
    <TTGlyph name="abreve" xMin="92" yMin="-20" xMax="1161" yMax="1563">
      <component glyphName="a" x="0" y="0" flags="0x204"/>
      <component glyphName="breve" x="-5" y="0" flags="0x4"/>
    </TTGlyph>
    <TTGlyph name="acircumflex" xMin="92" yMin="-20" xMax="1161" yMax="1569">
      <component glyphName="a" x="0" y="0" flags="0x204"/>
      <component glyphName="circumflex" x="29" y="0" flags="0x4"/>
    </TTGlyph>
    <TTGlyph name="acute" xMin="330" yMin="1241" xMax="850" yMax="1569">
      <contour>
        <pt x="330" y="1268" on="1"/>
        <pt x="352" y="1297" on="0"/>
        <pt x="407" y="1373" on="0"/>
        <pt x="463" y="1454" on="0"/>
        <pt x="512" y="1535" on="0"/>
        <pt x="528" y="1569" on="1"/>
        <pt x="850" y="1569" on="1"/>
        <pt x="850" y="1548" on="1"/>
        <pt x="831" y="1521" on="0"/>
        <pt x="743" y="1440" on="0"/>
        <pt x="634" y="1352" on="0"/>
        <pt x="517" y="1269" on="0"/>
        <pt x="469" y="1241" on="1"/>
        <pt x="330" y="1241" on="1"/>
      </contour>
    </TTGlyph>
    <TTGlyph name="acutecomb" xMin="-761" yMin="1241" xMax="-241" yMax="1569">
      <component glyphName="acute" x="-1091" y="0" flags="0x4"/>
    </TTGlyph>
    <TTGlyph name="adieresis" xMin="92" yMin="-20" xMax="1161" yMax="1536">
      <component glyphName="a" x="0" y="0" flags="0x204"/>
      <component glyphName="dieresis" x="20" y="0" flags="0x4"/>
    </TTGlyph>
    <TTGlyph name="ae" xMin="92" yMin="-20" xMax="1706" yMax="1124">
      <contour>
        <pt x="410" y="305" on="1"/>
        <pt x="410" y="217" on="0"/>
        <pt x="466" y="129" on="0"/>
        <pt x="526" y="129" on="1"/>
        <pt x="570" y="129" on="0"/>
        <pt x="641" y="166" on="0"/>
        <pt x="692" y="234" on="0"/>
        <pt x="719" y="331" on="0"/>
        <pt x="719" y="391" on="1"/>
        <pt x="719" y="545" on="1"/>
        <pt x="627" y="539" on="1"/>
        <pt x="566" y="536" on="0"/>
        <pt x="482" y="503" on="0"/>
        <pt x="432" y="445" on="0"/>
        <pt x="410" y="361" on="0"/>
      </contour>
      <contour>
        <pt x="1231" y="991" on="1"/>
        <pt x="1146" y="991" on="0"/>
        <pt x="1043" y="821" on="0"/>
        <pt x="1038" y="657" on="1"/>
        <pt x="1393" y="657" on="1"/>
        <pt x="1393" y="817" on="0"/>
        <pt x="1315" y="991" on="0"/>
      </contour>
      <contour>
        <pt x="1253" y="-20" on="1"/>
        <pt x="1102" y="-20" on="0"/>
        <pt x="883" y="80" on="0"/>
        <pt x="817" y="176" on="1"/>
        <pt x="748" y="73" on="0"/>
        <pt x="544" y="-20" on="0"/>
        <pt x="414" y="-20" on="1"/>
        <pt x="346" y="-20" on="0"/>
        <pt x="229" y="20" on="0"/>
        <pt x="142" y="103" on="0"/>
        <pt x="92" y="228" on="0"/>
        <pt x="92" y="313" on="1"/>
        <pt x="92" y="480" on="0"/>
        <pt x="321" y="640" on="0"/>
        <pt x="551" y="647" on="1"/>
        <pt x="719" y="653" on="1"/>
        <pt x="719" y="766" on="1"/>
        <pt x="719" y="817" on="0"/>
        <pt x="711" y="903" on="0"/>
        <pt x="685" y="965" on="0"/>
        <pt x="634" y="999" on="0"/>
        <pt x="592" y="999" on="1"/>
        <pt x="553" y="999" on="0"/>
        <pt x="500" y="966" on="0"/>
        <pt x="468" y="907" on="0"/>
        <pt x="455" y="826" on="0"/>
        <pt x="455" y="778" on="1"/>
        <pt x="317" y="778" on="0"/>
        <pt x="178" y="840" on="0"/>
        <pt x="178" y="915" on="1"/>
        <pt x="178" y="971" on="0"/>
        <pt x="245" y="1051" on="0"/>
        <pt x="360" y="1101" on="0"/>
        <pt x="513" y="1124" on="0"/>
        <pt x="600" y="1124" on="1"/>
        <pt x="709" y="1124" on="0"/>
        <pt x="872" y="1070" on="0"/>
        <pt x="926" y="1008" on="1"/>
        <pt x="986" y="1065" on="0"/>
        <pt x="1136" y="1124" on="0"/>
        <pt x="1227" y="1124" on="1"/>
        <pt x="1338" y="1124" on="0"/>
        <pt x="1516" y="1061" on="0"/>
        <pt x="1640" y="937" on="0"/>
        <pt x="1706" y="753" on="0"/>
        <pt x="1706" y="631" on="1"/>
        <pt x="1706" y="526" on="1"/>
        <pt x="1034" y="526" on="1"/>
        <pt x="1037" y="423" on="0"/>
        <pt x="1076" y="275" on="0"/>
        <pt x="1146" y="179" on="0"/>
        <pt x="1245" y="133" on="0"/>
        <pt x="1309" y="133" on="1"/>
        <pt x="1362" y="133" on="0"/>
        <pt x="1452" y="158" on="0"/>
        <pt x="1525" y="203" on="0"/>
        <pt x="1579" y="264" on="0"/>
        <pt x="1597" y="299" on="1"/>
        <pt x="1653" y="269" on="0"/>
        <pt x="1653" y="199" on="1"/>
        <pt x="1653" y="155" on="0"/>
        <pt x="1606" y="76" on="0"/>
        <pt x="1508" y="16" on="0"/>
        <pt x="1357" y="-20" on="0"/>
      </contour>
    </TTGlyph>
    <TTGlyph name="aeacute" xMin="92" yMin="-20" xMax="1706" yMax="1569">
      <component glyphName="ae" x="0" y="0" flags="0x204"/>
      <component glyphName="acute" x="485" y="0" flags="0x4"/>
    </TTGlyph>
    <TTGlyph name="afii00208" xMin="-10" yMin="489" xMax="2058" yMax="610">
      <contour>
        <pt x="2058" y="489" on="1"/>
        <pt x="-10" y="489" on="1"/>
        <pt x="-10" y="610" on="1"/>
        <pt x="2058" y="610" on="1"/>
      </contour>
    </TTGlyph>
    <TTGlyph name="afii10017" xMin="8" yMin="0" xMax="1542" yMax="1462">
      <component glyphName="A" x="0" y="0" flags="0x204"/>
    </TTGlyph>
    <TTGlyph name="afii10018" xMin="84" yMin="0" xMax="1272" yMax="1462">
      <contour>
        <pt x="1184" y="1462" on="1"/>
        <pt x="1194" y="1065" on="1"/>
        <pt x="1057" y="1065" on="1"/>
        <pt x="1042" y="1192" on="1"/>
        <pt x="1038" y="1226" on="0"/>
        <pt x="1019" y="1280" on="0"/>
        <pt x="980" y="1317" on="0"/>
        <pt x="918" y="1337" on="0"/>
        <pt x="872" y="1337" on="1"/>
        <pt x="598" y="1337" on="1"/>
        <pt x="598" y="823" on="1"/>
        <pt x="727" y="823" on="1"/>
        <pt x="874" y="823" on="0"/>
        <pt x="1081" y="763" on="0"/>
        <pt x="1212" y="655" on="0"/>
        <pt x="1272" y="504" on="0"/>
        <pt x="1272" y="414" on="1"/>
        <pt x="1272" y="322" on="0"/>
        <pt x="1205" y="169" on="0"/>
        <pt x="1068" y="60" on="0"/>
        <pt x="859" y="0" on="0"/>
        <pt x="717" y="0" on="1"/>
        <pt x="84" y="0" on="1"/>
        <pt x="84" y="109" on="1"/>
        <pt x="170" y="109" on="1"/>
        <pt x="201" y="109" on="0"/>
        <pt x="241" y="124" on="0"/>
        <pt x="265" y="156" on="0"/>
        <pt x="274" y="208" on="0"/>
        <pt x="274" y="244" on="1"/>
        <pt x="274" y="1221" on="1"/>
        <pt x="274" y="1263" on="0"/>
        <pt x="259" y="1315" on="0"/>
        <pt x="232" y="1344" on="0"/>
        <pt x="194" y="1354" on="0"/>
        <pt x="170" y="1354" on="1"/>
        <pt x="84" y="1354" on="1"/>
        <pt x="84" y="1462" on="1"/>
      </contour>
      <contour>
        <pt x="598" y="121" on="1"/>
        <pt x="698" y="121" on="1"/>
        <pt x="760" y="121" on="0"/>
        <pt x="847" y="156" on="0"/>
        <pt x="901" y="226" on="0"/>
        <pt x="926" y="332" on="0"/>
        <pt x="926" y="403" on="1"/>
        <pt x="926" y="485" on="0"/>
        <pt x="898" y="600" on="0"/>
        <pt x="838" y="672" on="0"/>
        <pt x="743" y="705" on="0"/>
        <pt x="676" y="705" on="1"/>
        <pt x="598" y="705" on="1"/>
      </contour>
    </TTGlyph>
    <TTGlyph name="afii10019" xMin="57" yMin="0" xMax="1303" yMax="1462">
      <component glyphName="B" x="0" y="0" flags="0x204"/>
    </TTGlyph>
    <TTGlyph name="afii10020" xMin="57" yMin="0" xMax="1190" yMax="1462">
      <component glyphName="Gamma" x="0" y="0" flags="0x204"/>
    </TTGlyph>
    <TTGlyph name="afii10021" xMin="16" yMin="-430" xMax="1399" yMax="1462">
      <contour>
        <pt x="672" y="1337" on="1"/>
        <pt x="672" y="1236" on="0"/>
        <pt x="639" y="1024" on="0"/>
        <pt x="583" y="809" on="0"/>
        <pt x="510" y="596" on="0"/>
        <pt x="427" y="393" on="0"/>
        <pt x="341" y="206" on="0"/>
        <pt x="301" y="125" on="1"/>
        <pt x="866" y="125" on="1"/>
        <pt x="866" y="1337" on="1"/>
      </contour>
      <contour>
        <pt x="141" y="125" on="1"/>
        <pt x="216" y="272" on="0"/>
        <pt x="354" y="577" on="0"/>
        <pt x="460" y="873" on="0"/>
        <pt x="524" y="1151" on="0"/>
        <pt x="524" y="1270" on="1"/>
        <pt x="524" y="1298" on="0"/>
        <pt x="494" y="1332" on="0"/>
        <pt x="444" y="1349" on="0"/>
        <pt x="380" y="1354" on="0"/>
        <pt x="346" y="1354" on="1"/>
        <pt x="340" y="1354" on="1"/>
        <pt x="340" y="1462" on="1"/>
        <pt x="1360" y="1462" on="1"/>
        <pt x="1360" y="1354" on="1"/>
        <pt x="1333" y="1354" on="1"/>
        <pt x="1304" y="1354" on="0"/>
        <pt x="1253" y="1345" on="0"/>
        <pt x="1213" y="1316" on="0"/>
        <pt x="1190" y="1262" on="0"/>
        <pt x="1190" y="1217" on="1"/>
        <pt x="1190" y="272" on="1"/>
        <pt x="1190" y="224" on="0"/>
        <pt x="1217" y="166" on="0"/>
        <pt x="1262" y="135" on="0"/>
        <pt x="1323" y="125" on="0"/>
        <pt x="1358" y="125" on="1"/>
        <pt x="1399" y="125" on="1"/>
        <pt x="1399" y="-430" on="1"/>
        <pt x="1264" y="-430" on="1"/>
        <pt x="1264" y="-316" on="0"/>
        <pt x="1235" y="-154" on="0"/>
        <pt x="1172" y="-49" on="0"/>
        <pt x="1072" y="0" on="0"/>
        <pt x="1001" y="0" on="1"/>
        <pt x="414" y="0" on="1"/>
        <pt x="343" y="0" on="0"/>
        <pt x="244" y="-49" on="0"/>
        <pt x="181" y="-154" on="0"/>
        <pt x="152" y="-316" on="0"/>
        <pt x="152" y="-430" on="1"/>
        <pt x="16" y="-430" on="1"/>
        <pt x="16" y="125" on="1"/>
      </contour>
    </TTGlyph>
    <TTGlyph name="afii10022" xMin="57" yMin="0" xMax="1272" yMax="1462">
      <component glyphName="E" x="0" y="0" flags="0x204"/>
    </TTGlyph>
    <TTGlyph name="afii10023" xMin="57" yMin="0" xMax="1272" yMax="1874">
      <component glyphName="E" x="0" y="0" flags="0x204"/>
      <component glyphName="dieresis" x="98" y="338" flags="0x4"/>
    </TTGlyph>
    <TTGlyph name="afii10024" xMin="0" yMin="0" xMax="2130" yMax="1475">
      <contour>
        <pt x="924" y="1229" on="1"/>
        <pt x="924" y="1270" on="0"/>
        <pt x="908" y="1319" on="0"/>
        <pt x="879" y="1345" on="0"/>
        <pt x="841" y="1354" on="0"/>
        <pt x="819" y="1354" on="1"/>
        <pt x="733" y="1354" on="1"/>
        <pt x="733" y="1462" on="1"/>
        <pt x="1399" y="1462" on="1"/>
        <pt x="1399" y="1354" on="1"/>
        <pt x="1313" y="1354" on="1"/>
        <pt x="1291" y="1354" on="0"/>
        <pt x="1251" y="1345" on="0"/>
        <pt x="1223" y="1317" on="0"/>
        <pt x="1206" y="1265" on="0"/>
        <pt x="1206" y="1221" on="1"/>
        <pt x="1206" y="793" on="1"/>
        <pt x="1240" y="793" on="0"/>
        <pt x="1289" y="799" on="0"/>
        <pt x="1328" y="812" on="0"/>
        <pt x="1360" y="835" on="0"/>
        <pt x="1376" y="852" on="1"/>
        <pt x="1404" y="881" on="0"/>
        <pt x="1495" y="1028" on="0"/>
        <pt x="1550" y="1141" on="1"/>
        <pt x="1595" y="1231" on="0"/>
        <pt x="1674" y="1358" on="0"/>
        <pt x="1759" y="1438" on="0"/>
        <pt x="1857" y="1475" on="0"/>
        <pt x="1919" y="1475" on="1"/>
        <pt x="1962" y="1475" on="0"/>
        <pt x="2024" y="1456" on="0"/>
        <pt x="2063" y="1421" on="0"/>
        <pt x="2081" y="1374" on="0"/>
        <pt x="2081" y="1346" on="1"/>
        <pt x="2081" y="1283" on="0"/>
        <pt x="2027" y="1203" on="0"/>
        <pt x="1980" y="1194" on="1"/>
        <pt x="1976" y="1215" on="0"/>
        <pt x="1958" y="1253" on="0"/>
        <pt x="1931" y="1282" on="0"/>
        <pt x="1892" y="1300" on="0"/>
        <pt x="1866" y="1300" on="1"/>
        <pt x="1835" y="1300" on="0"/>
        <pt x="1784" y="1275" on="0"/>
        <pt x="1736" y="1221" on="0"/>
        <pt x="1685" y="1135" on="0"/>
        <pt x="1653" y="1073" on="1"/>
        <pt x="1619" y="1009" on="0"/>
        <pt x="1567" y="915" on="0"/>
        <pt x="1520" y="848" on="0"/>
        <pt x="1477" y="800" on="0"/>
        <pt x="1452" y="782" on="1"/>
        <pt x="1497" y="782" on="0"/>
        <pt x="1579" y="754" on="0"/>
        <pt x="1651" y="704" on="0"/>
        <pt x="1711" y="633" on="0"/>
        <pt x="1735" y="590" on="1"/>
        <pt x="1901" y="293" on="1"/>
        <pt x="1928" y="244" on="0"/>
        <pt x="1979" y="174" on="0"/>
        <pt x="2030" y="130" on="0"/>
        <pt x="2086" y="109" on="0"/>
        <pt x="2118" y="109" on="1"/>
        <pt x="2130" y="109" on="1"/>
        <pt x="2130" y="0" on="1"/>
        <pt x="1985" y="0" on="1"/>
        <pt x="1906" y="0" on="0"/>
        <pt x="1795" y="25" on="0"/>
        <pt x="1716" y="75" on="0"/>
        <pt x="1658" y="147" on="0"/>
        <pt x="1632" y="195" on="1"/>
        <pt x="1438" y="549" on="1"/>
        <pt x="1413" y="594" on="0"/>
        <pt x="1365" y="644" on="0"/>
        <pt x="1310" y="670" on="0"/>
        <pt x="1246" y="676" on="0"/>
        <pt x="1206" y="676" on="1"/>
        <pt x="1206" y="242" on="1"/>
        <pt x="1206" y="198" on="0"/>
        <pt x="1223" y="146" on="0"/>
        <pt x="1251" y="118" on="0"/>
        <pt x="1291" y="109" on="0"/>
        <pt x="1313" y="109" on="1"/>
        <pt x="1399" y="109" on="1"/>
        <pt x="1399" y="0" on="1"/>
        <pt x="733" y="0" on="1"/>
        <pt x="733" y="109" on="1"/>
        <pt x="819" y="109" on="1"/>
        <pt x="841" y="109" on="0"/>
        <pt x="879" y="117" on="0"/>
        <pt x="908" y="142" on="0"/>
        <pt x="924" y="191" on="0"/>
        <pt x="924" y="231" on="1"/>
        <pt x="924" y="676" on="1"/>
        <pt x="884" y="676" on="0"/>
        <pt x="820" y="670" on="0"/>
        <pt x="765" y="644" on="0"/>
        <pt x="717" y="594" on="0"/>
        <pt x="692" y="549" on="1"/>
        <pt x="498" y="195" on="1"/>
        <pt x="472" y="147" on="0"/>
        <pt x="414" y="75" on="0"/>
        <pt x="335" y="25" on="0"/>
        <pt x="224" y="0" on="0"/>
        <pt x="145" y="0" on="1"/>
        <pt x="0" y="0" on="1"/>
        <pt x="0" y="109" on="1"/>
        <pt x="12" y="109" on="1"/>
        <pt x="44" y="109" on="0"/>
        <pt x="100" y="130" on="0"/>
        <pt x="151" y="174" on="0"/>
        <pt x="202" y="244" on="0"/>
        <pt x="229" y="293" on="1"/>
        <pt x="395" y="590" on="1"/>
        <pt x="419" y="633" on="0"/>
        <pt x="479" y="704" on="0"/>
        <pt x="551" y="754" on="0"/>
        <pt x="633" y="782" on="0"/>
        <pt x="678" y="782" on="1"/>
        <pt x="653" y="800" on="0"/>
        <pt x="610" y="848" on="0"/>
        <pt x="563" y="915" on="0"/>
        <pt x="511" y="1009" on="0"/>
        <pt x="477" y="1073" on="1"/>
        <pt x="445" y="1135" on="0"/>
        <pt x="394" y="1221" on="0"/>
        <pt x="346" y="1275" on="0"/>
        <pt x="296" y="1300" on="0"/>
        <pt x="264" y="1300" on="1"/>
        <pt x="238" y="1300" on="0"/>
        <pt x="199" y="1282" on="0"/>
        <pt x="172" y="1253" on="0"/>
        <pt x="155" y="1215" on="0"/>
        <pt x="150" y="1194" on="1"/>
        <pt x="103" y="1203" on="0"/>
        <pt x="49" y="1283" on="0"/>
        <pt x="49" y="1346" on="1"/>
        <pt x="49" y="1374" on="0"/>
        <pt x="67" y="1421" on="0"/>
        <pt x="106" y="1456" on="0"/>
        <pt x="168" y="1475" on="0"/>
        <pt x="211" y="1475" on="1"/>
        <pt x="273" y="1475" on="0"/>
        <pt x="371" y="1438" on="0"/>
        <pt x="456" y="1358" on="0"/>
        <pt x="535" y="1231" on="0"/>
        <pt x="580" y="1141" on="1"/>
        <pt x="635" y="1028" on="0"/>
        <pt x="726" y="881" on="0"/>
        <pt x="754" y="852" on="1"/>
        <pt x="770" y="835" on="0"/>
        <pt x="802" y="812" on="0"/>
        <pt x="841" y="799" on="0"/>
        <pt x="890" y="793" on="0"/>
        <pt x="924" y="793" on="1"/>
      </contour>
    </TTGlyph>
    <TTGlyph name="afii10025" xMin="74" yMin="-23" xMax="1190" yMax="1483">
      <contour>
        <pt x="586" y="-23" on="1"/>
        <pt x="451" y="-23" on="0"/>
        <pt x="258" y="28" on="0"/>
        <pt x="133" y="113" on="0"/>
        <pt x="74" y="224" on="0"/>
        <pt x="74" y="283" on="1"/>
        <pt x="74" y="364" on="0"/>
        <pt x="182" y="461" on="0"/>
        <pt x="291" y="461" on="1"/>
        <pt x="300" y="381" on="0"/>
        <pt x="344" y="251" on="0"/>
        <pt x="417" y="159" on="0"/>
        <pt x="522" y="109" on="0"/>
        <pt x="592" y="109" on="1"/>
        <pt x="724" y="109" on="0"/>
        <pt x="874" y="252" on="0"/>
        <pt x="874" y="406" on="1"/>
        <pt x="874" y="474" on="0"/>
        <pt x="834" y="581" on="0"/>
        <pt x="747" y="654" on="0"/>
        <pt x="612" y="692" on="0"/>
        <pt x="518" y="692" on="1"/>
        <pt x="330" y="692" on="1"/>
        <pt x="330" y="819" on="1"/>
        <pt x="514" y="819" on="1"/>
        <pt x="669" y="819" on="0"/>
        <pt x="825" y="967" on="0"/>
        <pt x="825" y="1118" on="1"/>
        <pt x="825" y="1175" on="0"/>
        <pt x="801" y="1264" on="0"/>
        <pt x="748" y="1326" on="0"/>
        <pt x="665" y="1358" on="0"/>
        <pt x="606" y="1358" on="1"/>
        <pt x="541" y="1358" on="0"/>
        <pt x="455" y="1306" on="0"/>
        <pt x="404" y="1218" on="0"/>
        <pt x="383" y="1103" on="0"/>
        <pt x="383" y="1040" on="1"/>
        <pt x="327" y="1040" on="0"/>
        <pt x="229" y="1054" on="0"/>
        <pt x="157" y="1092" on="0"/>
        <pt x="115" y="1158" on="0"/>
        <pt x="115" y="1210" on="1"/>
        <pt x="115" y="1265" on="0"/>
        <pt x="183" y="1364" on="0"/>
        <pt x="311" y="1439" on="0"/>
        <pt x="494" y="1483" on="0"/>
        <pt x="608" y="1483" on="1"/>
        <pt x="725" y="1483" on="0"/>
        <pt x="920" y="1443" on="0"/>
        <pt x="1061" y="1359" on="0"/>
        <pt x="1139" y="1230" on="0"/>
        <pt x="1139" y="1141" on="1"/>
        <pt x="1139" y="1061" on="0"/>
        <pt x="1086" y="936" on="0"/>
        <pt x="996" y="843" on="0"/>
        <pt x="875" y="782" on="0"/>
        <pt x="807" y="766" on="1"/>
        <pt x="864" y="760" on="0"/>
        <pt x="997" y="721" on="0"/>
        <pt x="1113" y="641" on="0"/>
        <pt x="1190" y="513" on="0"/>
        <pt x="1190" y="418" on="1"/>
        <pt x="1190" y="299" on="0"/>
        <pt x="1094" y="132" on="0"/>
        <pt x="929" y="26" on="0"/>
        <pt x="709" y="-23" on="0"/>
      </contour>
    </TTGlyph>
    <TTGlyph name="afii10026" xMin="57" yMin="0" xMax="1620" yMax="1462">
      <contour>
        <pt x="1106" y="1010" on="1"/>
        <pt x="571" y="324" on="1"/>
        <pt x="571" y="242" on="1"/>
        <pt x="571" y="198" on="0"/>
        <pt x="588" y="146" on="0"/>
        <pt x="616" y="118" on="0"/>
        <pt x="654" y="109" on="0"/>
        <pt x="676" y="109" on="1"/>
        <pt x="764" y="109" on="1"/>
        <pt x="764" y="0" on="1"/>
        <pt x="57" y="0" on="1"/>
        <pt x="57" y="109" on="1"/>
        <pt x="143" y="109" on="1"/>
        <pt x="165" y="109" on="0"/>
        <pt x="203" y="118" on="0"/>
        <pt x="232" y="146" on="0"/>
        <pt x="248" y="198" on="0"/>
        <pt x="248" y="242" on="1"/>
        <pt x="248" y="1229" on="1"/>
        <pt x="248" y="1270" on="0"/>
        <pt x="231" y="1319" on="0"/>
        <pt x="202" y="1345" on="0"/>
        <pt x="164" y="1354" on="0"/>
        <pt x="143" y="1354" on="1"/>
        <pt x="57" y="1354" on="1"/>
        <pt x="57" y="1462" on="1"/>
        <pt x="764" y="1462" on="1"/>
        <pt x="764" y="1354" on="1"/>
        <pt x="676" y="1354" on="1"/>
        <pt x="654" y="1354" on="0"/>
        <pt x="616" y="1345" on="0"/>
        <pt x="588" y="1317" on="0"/>
        <pt x="571" y="1265" on="0"/>
        <pt x="571" y="1221" on="1"/>
        <pt x="571" y="500" on="1"/>
        <pt x="1106" y="1186" on="1"/>
        <pt x="1106" y="1221" on="1"/>
        <pt x="1106" y="1265" on="0"/>
        <pt x="1090" y="1317" on="0"/>
        <pt x="1061" y="1345" on="0"/>
        <pt x="1023" y="1354" on="0"/>
        <pt x="1001" y="1354" on="1"/>
        <pt x="913" y="1354" on="1"/>
        <pt x="913" y="1462" on="1"/>
        <pt x="1620" y="1462" on="1"/>
        <pt x="1620" y="1354" on="1"/>
        <pt x="1534" y="1354" on="1"/>
        <pt x="1513" y="1354" on="0"/>
        <pt x="1475" y="1345" on="0"/>
        <pt x="1446" y="1317" on="0"/>
        <pt x="1430" y="1265" on="0"/>
        <pt x="1430" y="1221" on="1"/>
        <pt x="1430" y="231" on="1"/>
        <pt x="1430" y="191" on="0"/>
        <pt x="1447" y="142" on="0"/>
        <pt x="1476" y="117" on="0"/>
        <pt x="1513" y="109" on="0"/>
        <pt x="1534" y="109" on="1"/>
        <pt x="1620" y="109" on="1"/>
        <pt x="1620" y="0" on="1"/>
        <pt x="913" y="0" on="1"/>
        <pt x="913" y="109" on="1"/>
        <pt x="1001" y="109" on="1"/>
        <pt x="1023" y="109" on="0"/>
        <pt x="1061" y="118" on="0"/>
        <pt x="1090" y="146" on="0"/>
        <pt x="1106" y="198" on="0"/>
        <pt x="1106" y="242" on="1"/>
      </contour>
    </TTGlyph>
    <TTGlyph name="afii10027" xMin="57" yMin="0" xMax="1620" yMax="1899">
      <component glyphName="afii10026" x="0" y="0" flags="0x204"/>
      <component glyphName="glyph00566" x="250" y="338" flags="0x4"/>
    </TTGlyph>
    <TTGlyph name="afii10028" xMin="57" yMin="0" xMax="1475" yMax="1475">
      <contour>
        <pt x="1329" y="0" on="1"/>
        <pt x="1250" y="0" on="0"/>
        <pt x="1133" y="25" on="0"/>
        <pt x="1046" y="75" on="0"/>
        <pt x="982" y="147" on="0"/>
        <pt x="956" y="195" on="1"/>
        <pt x="762" y="549" on="1"/>
        <pt x="737" y="594" on="0"/>
        <pt x="695" y="644" on="0"/>
        <pt x="648" y="670" on="0"/>
        <pt x="591" y="676" on="0"/>
        <pt x="551" y="676" on="1"/>
        <pt x="551" y="242" on="1"/>
        <pt x="551" y="198" on="0"/>
        <pt x="568" y="146" on="0"/>
        <pt x="596" y="118" on="0"/>
        <pt x="635" y="109" on="0"/>
        <pt x="657" y="109" on="1"/>
        <pt x="743" y="109" on="1"/>
        <pt x="743" y="0" on="1"/>
        <pt x="57" y="0" on="1"/>
        <pt x="57" y="109" on="1"/>
        <pt x="143" y="109" on="1"/>
        <pt x="165" y="109" on="0"/>
        <pt x="203" y="117" on="0"/>
        <pt x="232" y="142" on="0"/>
        <pt x="248" y="191" on="0"/>
        <pt x="248" y="231" on="1"/>
        <pt x="248" y="1229" on="1"/>
        <pt x="248" y="1270" on="0"/>
        <pt x="232" y="1319" on="0"/>
        <pt x="203" y="1345" on="0"/>
        <pt x="165" y="1354" on="0"/>
        <pt x="143" y="1354" on="1"/>
        <pt x="57" y="1354" on="1"/>
        <pt x="57" y="1462" on="1"/>
        <pt x="743" y="1462" on="1"/>
        <pt x="743" y="1354" on="1"/>
        <pt x="657" y="1354" on="1"/>
        <pt x="635" y="1354" on="0"/>
        <pt x="596" y="1345" on="0"/>
        <pt x="568" y="1317" on="0"/>
        <pt x="551" y="1265" on="0"/>
        <pt x="551" y="1221" on="1"/>
        <pt x="551" y="793" on="1"/>
        <pt x="585" y="793" on="0"/>
        <pt x="634" y="799" on="0"/>
        <pt x="673" y="812" on="0"/>
        <pt x="705" y="835" on="0"/>
        <pt x="721" y="852" on="1"/>
        <pt x="749" y="881" on="0"/>
        <pt x="839" y="1028" on="0"/>
        <pt x="895" y="1141" on="1"/>
        <pt x="940" y="1231" on="0"/>
        <pt x="1019" y="1358" on="0"/>
        <pt x="1104" y="1438" on="0"/>
        <pt x="1202" y="1475" on="0"/>
        <pt x="1264" y="1475" on="1"/>
        <pt x="1350" y="1475" on="0"/>
        <pt x="1425" y="1402" on="0"/>
        <pt x="1425" y="1346" on="1"/>
        <pt x="1425" y="1283" on="0"/>
        <pt x="1371" y="1203" on="0"/>
        <pt x="1325" y="1194" on="1"/>
        <pt x="1321" y="1215" on="0"/>
        <pt x="1303" y="1253" on="0"/>
        <pt x="1275" y="1282" on="0"/>
        <pt x="1236" y="1300" on="0"/>
        <pt x="1210" y="1300" on="1"/>
        <pt x="1179" y="1300" on="0"/>
        <pt x="1128" y="1275" on="0"/>
        <pt x="1080" y="1221" on="0"/>
        <pt x="1029" y="1135" on="0"/>
        <pt x="997" y="1073" on="1"/>
        <pt x="963" y="1009" on="0"/>
        <pt x="911" y="915" on="0"/>
        <pt x="865" y="848" on="0"/>
        <pt x="821" y="800" on="0"/>
        <pt x="797" y="782" on="1"/>
        <pt x="842" y="782" on="0"/>
        <pt x="924" y="754" on="0"/>
        <pt x="995" y="704" on="0"/>
        <pt x="1055" y="633" on="0"/>
        <pt x="1079" y="590" on="1"/>
        <pt x="1245" y="293" on="1"/>
        <pt x="1273" y="244" on="0"/>
        <pt x="1323" y="174" on="0"/>
        <pt x="1375" y="130" on="0"/>
        <pt x="1430" y="109" on="0"/>
        <pt x="1462" y="109" on="1"/>
        <pt x="1475" y="109" on="1"/>
        <pt x="1475" y="0" on="1"/>
      </contour>
    </TTGlyph>
    <TTGlyph name="afii10029" xMin="0" yMin="-14" xMax="1432" yMax="1462">
      <contour>
        <pt x="725" y="0" on="1"/>
        <pt x="725" y="109" on="1"/>
        <pt x="813" y="109" on="1"/>
        <pt x="834" y="109" on="0"/>
        <pt x="873" y="118" on="0"/>
        <pt x="901" y="146" on="0"/>
        <pt x="918" y="198" on="0"/>
        <pt x="918" y="242" on="1"/>
        <pt x="918" y="1354" on="1"/>
        <pt x="651" y="1354" on="1"/>
        <pt x="645" y="1226" on="0"/>
        <pt x="621" y="944" on="0"/>
        <pt x="584" y="666" on="0"/>
        <pt x="536" y="410" on="0"/>
        <pt x="506" y="309" on="1"/>
        <pt x="478" y="215" on="0"/>
        <pt x="407" y="91" on="0"/>
        <pt x="322" y="17" on="0"/>
        <pt x="221" y="-14" on="0"/>
        <pt x="164" y="-14" on="1"/>
        <pt x="90" y="-14" on="0"/>
        <pt x="0" y="65" on="0"/>
        <pt x="0" y="139" on="1"/>
        <pt x="0" y="170" on="0"/>
        <pt x="17" y="221" on="0"/>
        <pt x="45" y="257" on="0"/>
        <pt x="81" y="276" on="0"/>
        <pt x="100" y="276" on="1"/>
        <pt x="100" y="236" on="0"/>
        <pt x="150" y="180" on="0"/>
        <pt x="190" y="180" on="1"/>
        <pt x="224" y="180" on="0"/>
        <pt x="281" y="205" on="0"/>
        <pt x="331" y="265" on="0"/>
        <pt x="374" y="368" on="0"/>
        <pt x="395" y="446" on="1"/>
        <pt x="413" y="512" on="0"/>
        <pt x="443" y="674" on="0"/>
        <pt x="468" y="842" on="0"/>
        <pt x="487" y="1007" on="0"/>
        <pt x="500" y="1146" on="0"/>
        <pt x="506" y="1249" on="0"/>
        <pt x="506" y="1272" on="1"/>
        <pt x="506" y="1300" on="0"/>
        <pt x="480" y="1333" on="0"/>
        <pt x="435" y="1350" on="0"/>
        <pt x="376" y="1354" on="0"/>
        <pt x="342" y="1354" on="1"/>
        <pt x="311" y="1354" on="1"/>
        <pt x="311" y="1462" on="1"/>
        <pt x="1432" y="1462" on="1"/>
        <pt x="1432" y="1354" on="1"/>
        <pt x="1346" y="1354" on="1"/>
        <pt x="1324" y="1354" on="0"/>
        <pt x="1286" y="1345" on="0"/>
        <pt x="1257" y="1317" on="0"/>
        <pt x="1241" y="1264" on="0"/>
        <pt x="1241" y="1221" on="1"/>
        <pt x="1241" y="231" on="1"/>
        <pt x="1241" y="190" on="0"/>
        <pt x="1258" y="142" on="0"/>
        <pt x="1287" y="117" on="0"/>
        <pt x="1325" y="109" on="0"/>
        <pt x="1346" y="109" on="1"/>
        <pt x="1432" y="109" on="1"/>
        <pt x="1432" y="0" on="1"/>
      </contour>
    </TTGlyph>
    <TTGlyph name="afii10030" xMin="57" yMin="0" xMax="1892" yMax="1462">
      <component glyphName="M" x="0" y="0" flags="0x204"/>
    </TTGlyph>
    <TTGlyph name="afii10031" xMin="57" yMin="0" xMax="1620" yMax="1462">
      <component glyphName="H" x="0" y="0" flags="0x204"/>
    </TTGlyph>
    <TTGlyph name="afii10032" xMin="113" yMin="-20" xMax="1499" yMax="1485">
      <component glyphName="O" x="0" y="0" flags="0x204"/>
    </TTGlyph>
    <TTGlyph name="afii10033" xMin="57" yMin="0" xMax="1599" yMax="1462">
      <component glyphName="Pi" x="0" y="0" flags="0x204"/>
    </TTGlyph>
    <TTGlyph name="afii10034" xMin="57" yMin="0" xMax="1245" yMax="1462">
      <component glyphName="P" x="0" y="0" flags="0x204"/>
    </TTGlyph>
    <TTGlyph name="afii10035" xMin="113" yMin="-20" xMax="1286" yMax="1483">
      <component glyphName="C" x="0" y="0" flags="0x204"/>
    </TTGlyph>
    <TTGlyph name="afii10036" xMin="20" yMin="0" xMax="1317" yMax="1462">
      <component glyphName="T" x="0" y="0" flags="0x204"/>
    </TTGlyph>
    <TTGlyph name="afii10037" xMin="0" yMin="0" xMax="1421" yMax="1462">
      <contour>
        <pt x="1421" y="1354" on="1"/>
        <pt x="1382" y="1354" on="1"/>
        <pt x="1352" y="1354" on="0"/>
        <pt x="1311" y="1340" on="0"/>
        <pt x="1277" y="1304" on="0"/>
        <pt x="1246" y="1242" on="0"/>
        <pt x="1227" y="1194" on="1"/>
        <pt x="928" y="424" on="1"/>
        <pt x="894" y="337" on="0"/>
        <pt x="833" y="206" on="0"/>
        <pt x="765" y="111" on="0"/>
        <pt x="684" y="50" on="0"/>
        <pt x="580" y="14" on="0"/>
        <pt x="445" y="0" on="0"/>
        <pt x="356" y="0" on="1"/>
        <pt x="229" y="0" on="1"/>
        <pt x="229" y="119" on="1"/>
        <pt x="319" y="119" on="1"/>
        <pt x="371" y="119" on="0"/>
        <pt x="476" y="138" on="0"/>
        <pt x="568" y="176" on="0"/>
        <pt x="638" y="232" on="0"/>
        <pt x="655" y="270" on="1"/>
        <pt x="172" y="1245" on="1"/>
        <pt x="157" y="1275" on="0"/>
        <pt x="131" y="1317" on="0"/>
        <pt x="98" y="1342" on="0"/>
        <pt x="57" y="1354" on="0"/>
        <pt x="27" y="1354" on="1"/>
        <pt x="0" y="1354" on="1"/>
        <pt x="0" y="1462" on="1"/>
        <pt x="702" y="1462" on="1"/>
        <pt x="702" y="1354" on="1"/>
        <pt x="629" y="1354" on="1"/>
        <pt x="576" y="1354" on="0"/>
        <pt x="518" y="1316" on="0"/>
        <pt x="518" y="1270" on="1"/>
        <pt x="518" y="1241" on="0"/>
        <pt x="537" y="1185" on="0"/>
        <pt x="553" y="1153" on="1"/>
        <pt x="709" y="823" on="1"/>
        <pt x="726" y="787" on="0"/>
        <pt x="763" y="707" on="0"/>
        <pt x="796" y="626" on="0"/>
        <pt x="822" y="548" on="0"/>
        <pt x="829" y="514" on="1"/>
        <pt x="842" y="556" on="0"/>
        <pt x="873" y="645" on="0"/>
        <pt x="895" y="702" on="1"/>
        <pt x="1044" y="1112" on="1"/>
        <pt x="1063" y="1162" on="0"/>
        <pt x="1083" y="1236" on="0"/>
        <pt x="1083" y="1253" on="1"/>
        <pt x="1083" y="1306" on="0"/>
        <pt x="1016" y="1354" on="0"/>
        <pt x="948" y="1354" on="1"/>
        <pt x="905" y="1354" on="1"/>
        <pt x="905" y="1462" on="1"/>
        <pt x="1421" y="1462" on="1"/>
      </contour>
    </TTGlyph>
    <TTGlyph name="afii10038" xMin="61" yMin="0" xMax="1679" yMax="1462">
      <component glyphName="Phi" x="0" y="0" flags="0x204"/>
    </TTGlyph>
    <TTGlyph name="afii10039" xMin="20" yMin="0" xMax="1479" yMax="1462">
      <component glyphName="X" x="0" y="0" flags="0x204"/>
    </TTGlyph>
    <TTGlyph name="afii10040" xMin="57" yMin="-430" xMax="1606" yMax="1462">
      <contour>
        <pt x="1606" y="-430" on="1"/>
        <pt x="1470" y="-430" on="1"/>
        <pt x="1470" y="-316" on="0"/>
        <pt x="1441" y="-154" on="0"/>
        <pt x="1378" y="-49" on="0"/>
        <pt x="1279" y="0" on="0"/>
        <pt x="1208" y="0" on="1"/>
        <pt x="57" y="0" on="1"/>
        <pt x="57" y="109" on="1"/>
        <pt x="143" y="109" on="1"/>
        <pt x="164" y="109" on="0"/>
        <pt x="202" y="117" on="0"/>
        <pt x="231" y="144" on="0"/>
        <pt x="248" y="193" on="0"/>
        <pt x="248" y="233" on="1"/>
        <pt x="248" y="1221" on="1"/>
        <pt x="248" y="1265" on="0"/>
        <pt x="232" y="1317" on="0"/>
        <pt x="203" y="1345" on="0"/>
        <pt x="165" y="1354" on="0"/>
        <pt x="143" y="1354" on="1"/>
        <pt x="57" y="1354" on="1"/>
        <pt x="57" y="1462" on="1"/>
        <pt x="764" y="1462" on="1"/>
        <pt x="764" y="1354" on="1"/>
        <pt x="676" y="1354" on="1"/>
        <pt x="654" y="1354" on="0"/>
        <pt x="616" y="1345" on="0"/>
        <pt x="588" y="1317" on="0"/>
        <pt x="571" y="1265" on="0"/>
        <pt x="571" y="1221" on="1"/>
        <pt x="571" y="125" on="1"/>
        <pt x="1085" y="125" on="1"/>
        <pt x="1085" y="1221" on="1"/>
        <pt x="1085" y="1265" on="0"/>
        <pt x="1069" y="1317" on="0"/>
        <pt x="1040" y="1345" on="0"/>
        <pt x="1002" y="1354" on="0"/>
        <pt x="981" y="1354" on="1"/>
        <pt x="893" y="1354" on="1"/>
        <pt x="893" y="1462" on="1"/>
        <pt x="1599" y="1462" on="1"/>
        <pt x="1599" y="1354" on="1"/>
        <pt x="1513" y="1354" on="1"/>
        <pt x="1492" y="1354" on="0"/>
        <pt x="1455" y="1346" on="0"/>
        <pt x="1426" y="1320" on="0"/>
        <pt x="1409" y="1272" on="0"/>
        <pt x="1409" y="1231" on="1"/>
        <pt x="1409" y="125" on="1"/>
        <pt x="1606" y="125" on="1"/>
      </contour>
    </TTGlyph>
    <TTGlyph name="afii10041" xMin="39" yMin="0" xMax="1540" yMax="1462">
      <contour>
        <pt x="1350" y="242" on="1"/>
        <pt x="1350" y="198" on="0"/>
        <pt x="1366" y="146" on="0"/>
        <pt x="1394" y="118" on="0"/>
        <pt x="1432" y="109" on="0"/>
        <pt x="1454" y="109" on="1"/>
        <pt x="1540" y="109" on="1"/>
        <pt x="1540" y="0" on="1"/>
        <pt x="834" y="0" on="1"/>
        <pt x="834" y="109" on="1"/>
        <pt x="920" y="109" on="1"/>
        <pt x="942" y="109" on="0"/>
        <pt x="980" y="118" on="0"/>
        <pt x="1008" y="146" on="0"/>
        <pt x="1024" y="198" on="0"/>
        <pt x="1024" y="242" on="1"/>
        <pt x="1024" y="594" on="1"/>
        <pt x="998" y="583" on="0"/>
        <pt x="927" y="558" on="0"/>
        <pt x="836" y="536" on="0"/>
        <pt x="725" y="522" on="0"/>
        <pt x="659" y="522" on="1"/>
        <pt x="556" y="522" on="0"/>
        <pt x="389" y="565" on="0"/>
        <pt x="272" y="667" on="0"/>
        <pt x="209" y="838" on="0"/>
        <pt x="209" y="965" on="1"/>
        <pt x="209" y="1221" on="1"/>
        <pt x="209" y="1265" on="0"/>
        <pt x="193" y="1317" on="0"/>
        <pt x="165" y="1345" on="0"/>
        <pt x="127" y="1354" on="0"/>
        <pt x="104" y="1354" on="1"/>
        <pt x="39" y="1354" on="1"/>
        <pt x="39" y="1462" on="1"/>
        <pt x="725" y="1462" on="1"/>
        <pt x="725" y="1354" on="1"/>
        <pt x="639" y="1354" on="1"/>
        <pt x="617" y="1354" on="0"/>
        <pt x="579" y="1345" on="0"/>
        <pt x="551" y="1317" on="0"/>
        <pt x="535" y="1265" on="0"/>
        <pt x="535" y="1221" on="1"/>
        <pt x="535" y="971" on="1"/>
        <pt x="535" y="890" on="0"/>
        <pt x="563" y="780" on="0"/>
        <pt x="621" y="714" on="0"/>
        <pt x="712" y="686" on="0"/>
        <pt x="776" y="686" on="1"/>
        <pt x="815" y="686" on="0"/>
        <pt x="889" y="696" on="0"/>
        <pt x="953" y="710" on="0"/>
        <pt x="1006" y="728" on="0"/>
        <pt x="1024" y="735" on="1"/>
        <pt x="1024" y="1221" on="1"/>
        <pt x="1024" y="1265" on="0"/>
        <pt x="1008" y="1317" on="0"/>
        <pt x="980" y="1345" on="0"/>
        <pt x="942" y="1354" on="0"/>
        <pt x="920" y="1354" on="1"/>
        <pt x="834" y="1354" on="1"/>
        <pt x="834" y="1462" on="1"/>
        <pt x="1540" y="1462" on="1"/>
        <pt x="1540" y="1354" on="1"/>
        <pt x="1454" y="1354" on="1"/>
        <pt x="1432" y="1354" on="0"/>
        <pt x="1394" y="1345" on="0"/>
        <pt x="1366" y="1317" on="0"/>
        <pt x="1350" y="1265" on="0"/>
        <pt x="1350" y="1221" on="1"/>
      </contour>
    </TTGlyph>
    <TTGlyph name="afii10042" xMin="57" yMin="0" xMax="2273" yMax="1462">
      <contour>
        <pt x="57" y="0" on="1"/>
        <pt x="57" y="109" on="1"/>
        <pt x="143" y="109" on="1"/>
        <pt x="164" y="109" on="0"/>
        <pt x="202" y="117" on="0"/>
        <pt x="231" y="144" on="0"/>
        <pt x="248" y="193" on="0"/>
        <pt x="248" y="233" on="1"/>
        <pt x="248" y="1221" on="1"/>
        <pt x="248" y="1265" on="0"/>
        <pt x="232" y="1317" on="0"/>
        <pt x="203" y="1345" on="0"/>
        <pt x="165" y="1354" on="0"/>
        <pt x="143" y="1354" on="1"/>
        <pt x="57" y="1354" on="1"/>
        <pt x="57" y="1462" on="1"/>
        <pt x="731" y="1462" on="1"/>
        <pt x="731" y="1354" on="1"/>
        <pt x="664" y="1354" on="1"/>
        <pt x="642" y="1354" on="0"/>
        <pt x="604" y="1345" on="0"/>
        <pt x="576" y="1317" on="0"/>
        <pt x="559" y="1265" on="0"/>
        <pt x="559" y="1221" on="1"/>
        <pt x="559" y="125" on="1"/>
        <pt x="1010" y="125" on="1"/>
        <pt x="1010" y="1221" on="1"/>
        <pt x="1010" y="1265" on="0"/>
        <pt x="994" y="1317" on="0"/>
        <pt x="965" y="1345" on="0"/>
        <pt x="927" y="1354" on="0"/>
        <pt x="905" y="1354" on="1"/>
        <pt x="838" y="1354" on="1"/>
        <pt x="838" y="1462" on="1"/>
        <pt x="1491" y="1462" on="1"/>
        <pt x="1491" y="1354" on="1"/>
        <pt x="1425" y="1354" on="1"/>
        <pt x="1404" y="1354" on="0"/>
        <pt x="1367" y="1346" on="0"/>
        <pt x="1338" y="1320" on="0"/>
        <pt x="1321" y="1272" on="0"/>
        <pt x="1321" y="1231" on="1"/>
        <pt x="1321" y="125" on="1"/>
        <pt x="1772" y="125" on="1"/>
        <pt x="1772" y="1221" on="1"/>
        <pt x="1772" y="1265" on="0"/>
        <pt x="1755" y="1317" on="0"/>
        <pt x="1727" y="1345" on="0"/>
        <pt x="1688" y="1354" on="0"/>
        <pt x="1667" y="1354" on="1"/>
        <pt x="1599" y="1354" on="1"/>
        <pt x="1599" y="1462" on="1"/>
        <pt x="2273" y="1462" on="1"/>
        <pt x="2273" y="1354" on="1"/>
        <pt x="2187" y="1354" on="1"/>
        <pt x="2166" y="1354" on="0"/>
        <pt x="2128" y="1345" on="0"/>
        <pt x="2099" y="1317" on="0"/>
        <pt x="2083" y="1265" on="0"/>
        <pt x="2083" y="1221" on="1"/>
        <pt x="2083" y="233" on="1"/>
        <pt x="2083" y="193" on="0"/>
        <pt x="2100" y="144" on="0"/>
        <pt x="2129" y="117" on="0"/>
        <pt x="2166" y="109" on="0"/>
        <pt x="2187" y="109" on="1"/>
        <pt x="2273" y="109" on="1"/>
        <pt x="2273" y="0" on="1"/>
      </contour>
    </TTGlyph>
    <TTGlyph name="afii10043" xMin="57" yMin="-430" xMax="2279" yMax="1462">
      <contour>
        <pt x="2083" y="125" on="1"/>
        <pt x="2279" y="125" on="1"/>
        <pt x="2279" y="-430" on="1"/>
        <pt x="2144" y="-430" on="1"/>
        <pt x="2144" y="-319" on="0"/>
        <pt x="2117" y="-156" on="0"/>
        <pt x="2057" y="-51" on="0"/>
        <pt x="1963" y="0" on="0"/>
        <pt x="1896" y="0" on="1"/>
        <pt x="57" y="0" on="1"/>
        <pt x="57" y="109" on="1"/>
        <pt x="143" y="109" on="1"/>
        <pt x="164" y="109" on="0"/>
        <pt x="202" y="117" on="0"/>
        <pt x="231" y="144" on="0"/>
        <pt x="248" y="193" on="0"/>
        <pt x="248" y="233" on="1"/>
        <pt x="248" y="1221" on="1"/>
        <pt x="248" y="1265" on="0"/>
        <pt x="232" y="1317" on="0"/>
        <pt x="203" y="1345" on="0"/>
        <pt x="165" y="1354" on="0"/>
        <pt x="143" y="1354" on="1"/>
        <pt x="57" y="1354" on="1"/>
        <pt x="57" y="1462" on="1"/>
        <pt x="731" y="1462" on="1"/>
        <pt x="731" y="1354" on="1"/>
        <pt x="664" y="1354" on="1"/>
        <pt x="642" y="1354" on="0"/>
        <pt x="604" y="1345" on="0"/>
        <pt x="576" y="1317" on="0"/>
        <pt x="559" y="1265" on="0"/>
        <pt x="559" y="1221" on="1"/>
        <pt x="559" y="125" on="1"/>
        <pt x="1010" y="125" on="1"/>
        <pt x="1010" y="1221" on="1"/>
        <pt x="1010" y="1265" on="0"/>
        <pt x="994" y="1317" on="0"/>
        <pt x="965" y="1345" on="0"/>
        <pt x="927" y="1354" on="0"/>
        <pt x="905" y="1354" on="1"/>
        <pt x="838" y="1354" on="1"/>
        <pt x="838" y="1462" on="1"/>
        <pt x="1491" y="1462" on="1"/>
        <pt x="1491" y="1354" on="1"/>
        <pt x="1425" y="1354" on="1"/>
        <pt x="1404" y="1354" on="0"/>
        <pt x="1367" y="1346" on="0"/>
        <pt x="1338" y="1320" on="0"/>
        <pt x="1321" y="1272" on="0"/>
        <pt x="1321" y="1231" on="1"/>
        <pt x="1321" y="125" on="1"/>
        <pt x="1772" y="125" on="1"/>
        <pt x="1772" y="1221" on="1"/>
        <pt x="1772" y="1265" on="0"/>
        <pt x="1755" y="1317" on="0"/>
        <pt x="1727" y="1345" on="0"/>
        <pt x="1688" y="1354" on="0"/>
        <pt x="1667" y="1354" on="1"/>
        <pt x="1599" y="1354" on="1"/>
        <pt x="1599" y="1462" on="1"/>
        <pt x="2273" y="1462" on="1"/>
        <pt x="2273" y="1354" on="1"/>
        <pt x="2187" y="1354" on="1"/>
        <pt x="2166" y="1354" on="0"/>
        <pt x="2128" y="1345" on="0"/>
        <pt x="2099" y="1317" on="0"/>
        <pt x="2083" y="1265" on="0"/>
        <pt x="2083" y="1221" on="1"/>
      </contour>
    </TTGlyph>
</ttFont>
